<?xml version="1.0" standalone="no"?>
<!DOCTYPE svg PUBLIC "-//W3C//DTD SVG 20010904//EN"
 "http://www.w3.org/TR/2001/REC-SVG-20010904/DTD/svg10.dtd">
<svg version="1.0" xmlns="http://www.w3.org/2000/svg"
 width="170" height="50" viewBox="0 0 500.000000 150.000000"
 preserveAspectRatio="xMidYMid meet">

<g transform="translate(0.000000,150.000000) scale(0.100000,-0.100000)"
fill="#000000" stroke="none">
<path d="M700 1255 c0 -33 4 -45 15 -45 9 0 15 9 16 23 l0 22 16 -22 c8 -13
21 -23 28 -23 12 0 25 56 17 79 -7 20 -22 12 -22 -11 l-1 -23 -18 23 c-32 37
-51 29 -51 -23z"/>
<path d="M599 1263 c-5 -15 -9 -40 -7 -57 3 -28 4 -29 20 -13 12 12 25 16 43
11 32 -8 32 2 0 49 -30 44 -42 46 -56 10z"/>
<path d="M917 1223 c-17 -41 -5 -74 14 -40 7 12 17 16 30 12 24 -8 25 3 2 22
-16 13 -16 14 10 8 31 -6 36 9 8 25 -34 17 -48 11 -64 -27z"/>
<path d="M488 1239 c-10 -5 -18 -19 -18 -29 0 -16 7 -20 36 -20 21 0 33 -4 29
-10 -4 -6 -14 -9 -22 -8 -9 2 -18 -3 -20 -9 -7 -21 42 -15 62 7 15 17 16 22 4
36 -7 9 -22 14 -36 11 -13 -2 -23 0 -23 4 0 5 9 9 21 9 11 0 17 5 14 10 -8 13
-25 12 -47 -1z"/>
<path d="M1009 1174 l-22 -37 24 -18 c26 -20 49 -25 49 -10 0 5 -7 11 -15 15
-8 3 -15 10 -15 16 0 7 6 8 19 0 13 -7 22 -7 26 0 3 6 -1 13 -9 16 -9 3 -16
10 -16 15 0 6 9 5 21 -1 30 -17 36 -4 8 19 -34 28 -44 26 -70 -15z"/>
<path d="M728 1165 c-3 -14 -1 -22 4 -19 6 4 8 -28 6 -79 l-3 -85 47 -6 c67
-9 136 -59 169 -122 l26 -50 69 23 c38 13 74 21 80 19 11 -4 34 12 34 24 0 4
-14 6 -32 6 -28 -1 -35 5 -57 44 -53 95 -139 159 -248 183 -51 12 -58 17 -65
45 -11 40 -24 48 -30 17z m133 -100 c62 -22 130 -75 167 -131 38 -57 39 -64 8
-64 -16 0 -31 12 -50 40 -32 49 -95 96 -150 112 -42 12 -56 23 -56 46 0 16 27
15 81 -3z"/>
<path d="M1102 1107 c-38 -39 -40 -51 -8 -43 20 5 23 3 19 -18 -6 -30 16 -46
24 -18 2 11 13 22 24 25 26 7 24 39 -4 65 l-23 22 -32 -33z m48 -17 c0 -5 -4
-10 -10 -10 -5 0 -10 5 -10 10 0 6 5 10 10 10 6 0 10 -4 10 -10z"/>
<path d="M327 1112 c-24 -26 -22 -33 17 -64 35 -28 60 -22 36 7 -10 12 -10 18
-1 29 8 9 8 16 2 20 -5 4 -12 2 -16 -4 -3 -5 -11 -10 -18 -10 -8 0 -8 3 1 12
7 7 12 16 12 20 0 14 -16 9 -33 -10z"/>
<path d="M652 1100 c-103 -29 -201 -110 -243 -202 -10 -22 -18 -27 -45 -26
-19 1 -37 -2 -41 -6 -9 -9 17 -26 31 -20 6 2 44 -7 83 -20 l72 -24 21 44 c23
47 65 87 117 112 29 14 52 56 39 70 -3 3 -25 -3 -49 -12 -53 -20 -122 -77
-143 -117 -10 -20 -22 -29 -39 -29 -14 0 -25 3 -25 7 0 20 75 113 113 140 46
32 117 63 146 63 16 0 38 27 29 35 -2 1 -31 -5 -66 -15z"/>
<path d="M256 1008 c-21 -29 -20 -41 3 -62 26 -23 63 -17 78 14 26 52 -47 96
-81 48z m62 -31 c3 -14 -1 -18 -20 -15 -12 2 -24 11 -26 21 -3 14 1 18 20 15
12 -2 24 -11 26 -21z"/>
<path d="M1173 1013 c-36 -18 -47 -49 -14 -38 18 5 19 2 14 -29 -3 -20 -2 -36
2 -36 6 0 66 33 84 46 1 2 0 7 -4 13 -4 8 -12 8 -27 0 -19 -10 -20 -9 -13 7
20 50 7 61 -42 37z"/>
<path d="M779 924 c-1 -11 -1 -23 0 -28 1 -5 -4 -13 -11 -17 -11 -7 -11 -9 0
-9 7 0 10 -4 7 -10 -3 -5 -13 -10 -21 -10 -8 0 -12 5 -9 10 3 6 1 10 -5 10 -6
0 -8 6 -4 13 4 6 -5 1 -19 -12 -15 -14 -24 -27 -21 -30 4 -3 9 0 11 7 6 17 23
15 23 -3 0 -11 5 -12 25 -5 25 9 37 -4 13 -13 -10 -4 -10 -6 0 -6 29 -2 6 -51
-24 -51 -12 0 -1 19 14 23 16 4 16 5 -1 6 -10 0 -15 6 -12 11 3 6 1 10 -4 10
-6 0 -11 -11 -11 -23 0 -26 -34 -64 -44 -49 -3 6 -15 8 -26 5 -11 -3 -17 -9
-14 -14 3 -5 -5 -18 -18 -28 -16 -14 -28 -17 -40 -10 -19 10 -22 6 -19 -23 2
-11 -5 -18 -14 -18 -12 0 -15 -6 -10 -20 4 -11 2 -20 -4 -20 -11 0 -31 62 -31
98 0 12 -5 22 -12 22 -6 0 -20 7 -30 17 -17 15 -18 14 -18 -29 0 -56 22 -121
56 -165 19 -25 24 -41 19 -60 l-6 -26 -30 29 c-51 49 -82 128 -85 218 -4 94
-19 120 -28 49 -13 -93 24 -209 88 -280 33 -37 47 -73 29 -73 -5 0 -9 -16 -10
-35 -2 -27 0 -33 12 -29 8 4 13 9 10 13 -2 4 20 41 48 81 l53 74 53 -1 c42 -2
52 1 47 12 -9 25 34 45 95 45 49 0 57 3 67 24 17 38 3 65 -47 91 -54 28 -35
33 25 6 48 -22 62 -60 37 -98 -15 -22 -14 -23 13 -23 l29 -1 -27 -23 -27 -24
51 -74 c28 -40 51 -78 51 -85 0 -7 6 -14 14 -17 16 -7 17 8 1 50 -11 31 -10
35 29 77 23 25 49 60 59 78 38 74 53 183 35 249 -12 42 -22 7 -24 -82 -2 -96
-32 -170 -90 -226 l-34 -33 -7 27 c-5 19 -2 32 12 48 37 40 65 109 70 175 l5
64 -32 -23 c-22 -17 -31 -32 -31 -51 0 -15 -5 -31 -10 -34 -15 -9 -43 23 -36
41 3 8 -1 17 -8 20 -17 6 -25 34 -32 111 -6 60 -22 83 -59 81 -11 0 -28 3 -37
7 -13 5 -18 2 -19 -11z m57 -20 c18 -14 18 -15 -6 -9 l-25 6 25 -15 c15 -9 19
-15 10 -15 -22 -1 -37 12 -37 32 0 21 8 21 33 1z m-6 -44 c18 -11 20 -31 3
-47 -14 -15 -33 -17 -33 -3 0 6 6 10 13 10 8 0 9 3 1 8 -11 7 -15 42 -5 42 3
0 13 -5 21 -10z m20 -80 c0 -5 -2 -10 -4 -10 -3 0 -8 5 -11 10 -3 6 -1 10 4
10 6 0 11 -4 11 -10z m-70 -20 c0 -5 -10 -10 -22 -10 -19 0 -20 2 -8 10 19 13
30 13 30 0z m40 -20 c0 -5 -5 -10 -11 -10 -5 0 -7 5 -4 10 3 6 8 10 11 10 2 0
4 -4 4 -10z m-83 -6 c-3 -3 -12 -4 -19 -1 -8 3 -5 6 6 6 11 1 17 -2 13 -5z m3
-54 c0 -16 -4 -30 -10 -30 -5 0 -10 14 -10 30 0 17 5 30 10 30 6 0 10 -13 10
-30z m60 -47 c0 -25 -3 -43 -7 -39 -4 4 -6 22 -5 41 3 28 0 34 -20 38 -21 4
-20 4 5 6 26 1 27 -1 27 -46z m135 37 c3 -5 2 -10 -4 -10 -5 0 -13 5 -16 10
-3 6 -2 10 4 10 5 0 13 -4 16 -10z m-235 -100 c0 -5 -2 -10 -4 -10 -3 0 -8 5
-11 10 -3 6 -1 10 4 10 6 0 11 -4 11 -10z m-30 -21 c0 -5 -4 -9 -10 -9 -5 0
-10 7 -10 16 0 8 5 12 10 9 6 -3 10 -10 10 -16z"/>
<path d="M735 919 c-11 -17 -2 -18 19 -3 17 12 17 14 4 14 -9 0 -20 -5 -23
-11z"/>
<path d="M1186 875 c4 -8 11 -15 16 -15 5 0 7 -13 3 -30 -8 -37 0 -37 48 -5
59 41 46 65 -34 65 -30 0 -37 -3 -33 -15z"/>
<path d="M657 873 c-10 -9 -9 -33 1 -33 4 0 8 9 8 20 0 23 0 22 -9 13z"/>
<path d="M190 806 c0 -8 6 -16 13 -19 8 -3 7 -10 -7 -26 -26 -28 -15 -36 23
-17 16 9 37 16 46 16 8 0 15 7 15 15 0 8 -8 15 -18 15 -10 0 -27 7 -38 15 -24
18 -34 19 -34 1z"/>
<path d="M670 790 c-13 -8 -12 -10 3 -10 9 0 17 5 17 10 0 12 -1 12 -20 0z"/>
<path d="M933 782 c-10 -7 -10 -12 1 -28 12 -15 17 -17 27 -6 11 10 10 15 -1
27 -9 8 -20 11 -27 7z"/>
<path d="M1210 765 c0 -9 9 -15 23 -16 l22 0 -22 -16 c-38 -26 -29 -43 22 -43
25 0 45 5 45 10 0 6 -10 10 -22 10 l-21 0 21 23 c33 36 28 47 -23 47 -33 0
-45 -4 -45 -15z"/>
<path d="M947 724 c-8 -8 1 -24 14 -24 5 0 9 7 9 15 0 15 -12 20 -23 9z"/>
<path d="M190 666 c0 -31 10 -56 21 -56 5 0 9 6 9 14 0 8 15 17 36 20 47 9 39
32 -9 28 -22 -2 -37 1 -37 7 0 6 -4 11 -10 11 -5 0 -10 -11 -10 -24z"/>
<path d="M1194 625 c-8 -43 8 -65 47 -65 22 0 32 6 39 26 14 37 13 44 -12 53
-66 24 -66 24 -74 -14z m50 -11 c9 -3 16 -10 16 -16 0 -14 -43 -5 -48 10 -4
13 7 15 32 6z"/>
<path d="M251 586 c-39 -14 -53 -36 -23 -36 31 0 83 21 79 33 -5 16 -18 17
-56 3z"/>
<path d="M290 526 c0 -9 7 -16 16 -16 24 0 12 -35 -14 -38 -17 -3 -22 2 -22
17 0 12 -4 21 -10 21 -14 0 -13 -43 2 -58 18 -18 53 -14 74 9 17 19 17 23 3
47 -17 31 -49 42 -49 18z"/>
<path d="M1150 521 c-5 -11 -10 -26 -10 -34 0 -18 32 -47 53 -47 21 0 47 27
47 50 0 45 -69 69 -90 31z m58 -34 c2 -10 -3 -17 -11 -17 -18 0 -39 24 -30 34
12 12 38 2 41 -17z"/>
<path d="M651 484 l-23 -22 37 -12 c41 -14 160 -9 176 7 18 18 -34 40 -102 45
-56 3 -68 1 -88 -18z"/>
<path d="M568 419 c-8 -5 4 -16 37 -31 66 -30 196 -32 268 -5 37 15 45 22 37
32 -9 11 -17 10 -43 -3 -50 -25 -161 -28 -229 -5 -32 11 -63 16 -70 12z"/>
<path d="M340 400 c0 -5 5 -10 10 -10 6 0 10 5 10 10 0 6 -4 10 -10 10 -5 0
-10 -4 -10 -10z"/>
<path d="M1115 400 c-3 -5 1 -10 9 -10 9 0 16 5 16 10 0 6 -4 10 -9 10 -6 0
-13 -4 -16 -10z"/>
<path d="M392 358 c-17 -17 -15 -33 2 -19 12 10 14 9 12 -6 -3 -19 15 -44 27
-36 4 2 7 13 7 24 0 11 -4 17 -10 14 -5 -3 -10 1 -10 9 0 21 -14 28 -28 14z"/>
<path d="M1060 345 c0 -8 7 -15 16 -15 8 0 12 -4 9 -10 -3 -5 -1 -10 4 -10 6
0 11 7 11 15 0 8 -7 15 -16 15 -8 0 -12 5 -9 10 3 6 1 10 -4 10 -6 0 -11 -7
-11 -15z"/>
<path d="M1015 310 c-4 -11 -11 -18 -16 -15 -12 8 -11 -6 1 -25 7 -11 10 -11
10 -2 0 7 5 10 11 6 8 -4 9 1 5 17 -7 23 -6 23 8 5 8 -10 19 -15 25 -12 6 4 4
14 -7 26 -21 25 -29 25 -37 0z"/>
<path d="M450 305 c-13 -16 -5 -35 15 -35 22 0 28 19 12 35 -13 12 -17 13 -27
0z"/>
<path d="M496 274 c-9 -22 -8 -23 14 -17 11 3 20 12 20 19 0 19 -26 18 -34 -2z"/>
<path d="M940 276 c-19 -7 -35 -18 -34 -24 3 -33 5 -36 15 -19 9 15 13 16 27
5 13 -11 15 -10 10 9 -5 17 -2 21 13 18 12 -3 16 1 12 11 -3 8 -6 14 -7 13 0
0 -17 -6 -36 -13z"/>
<path d="M531 256 c-9 -10 -8 -15 3 -19 8 -3 16 2 19 14 6 22 -6 25 -22 5z"/>
<path d="M567 240 c-3 -11 -1 -18 4 -14 5 3 9 1 9 -5 0 -6 7 -8 15 -5 8 4 15
1 15 -5 0 -6 7 -11 15 -11 8 0 15 5 15 11 0 5 -4 8 -9 4 -5 -3 -12 -1 -16 4
-3 5 3 14 12 20 17 10 17 10 1 11 -10 0 -18 -5 -18 -11 0 -6 -7 -3 -16 5 -20
20 -21 20 -27 -4z"/>
<path d="M881 255 c1 -19 18 -51 18 -35 0 8 -4 22 -9 30 -5 8 -9 11 -9 5z"/>
<path d="M661 221 c-8 -15 -7 -20 8 -24 14 -3 17 0 13 19 -5 29 -8 30 -21 5z"/>
<path d="M750 213 c0 -25 0 -26 20 -8 19 17 20 17 21 -1 0 -11 3 -13 6 -6 2 6
9 10 14 6 5 -3 9 5 8 18 0 13 -3 18 -5 11 -4 -9 -13 -9 -30 -2 -34 12 -34 13
-34 -18z"/>
<path d="M830 223 c0 -15 2 -16 10 -3 8 13 10 12 10 -2 0 -11 7 -18 18 -17 10
0 12 3 5 6 -7 2 -13 11 -13 19 0 8 -7 14 -15 14 -8 0 -15 -8 -15 -17z"/>
</g>
</svg>
