<svg xmlns="http://www.w3.org/2000/svg" xmlns:xlink="http://www.w3.org/1999/xlink" width="500" zoomAndPan="magnify" viewBox="0 0 375 374.999991" height="500" preserveAspectRatio="xMidYMid meet" version="1.0"><defs><g/><clipPath id="892971b505"><path d="M 0 111 L 154.550781 111 L 154.550781 246.714844 L 0 246.714844 Z M 0 111 " clip-rule="nonzero"/></clipPath></defs><path stroke-linecap="butt" transform="matrix(0, -0.919938, 0.919938, 0, 162.386946, 251.20598)" fill="none" stroke-linejoin="miter" d="M -0.00114328 1.498665 L 157.312388 1.498665 " stroke="#ffffff" stroke-width="3" stroke-opacity="1" stroke-miterlimit="4"/><g clip-path="url(#892971b505)"><path fill="#eeba2b" d="M 79.765625 204.96875 L 79.765625 213.15625 L 86.710938 215.703125 L 86.710938 207.515625 Z M 79.765625 188.988281 L 79.765625 197.175781 L 86.710938 199.722656 L 86.710938 191.53125 Z M 114.449219 179.476562 L 99.195312 189.390625 L 99.195312 230.324219 C 104.382812 230.90625 109.476562 231.695312 114.449219 232.6875 Z M 79.765625 173.015625 L 79.765625 181.191406 L 86.710938 183.742188 L 86.710938 175.5625 Z M 36.460938 170.71875 L 21.199219 180.636719 L 21.199219 237.394531 C 26.078125 235.828125 31.183594 234.472656 36.460938 233.34375 Z M 93.585938 162.109375 L 93.585938 170.285156 L 100.53125 172.835938 L 100.53125 164.65625 Z M 79.765625 157.035156 L 79.765625 165.222656 L 86.710938 167.769531 L 86.710938 159.582031 Z M 93.585938 146.125 L 93.585938 154.316406 L 100.53125 156.855469 L 100.53125 148.675781 Z M 79.765625 141.054688 L 79.765625 149.242188 L 86.710938 151.789062 L 86.710938 143.597656 Z M 93.585938 130.148438 L 93.585938 138.335938 L 100.53125 140.882812 L 100.53125 132.695312 Z M 79.765625 125.070312 L 79.765625 133.261719 L 86.710938 135.808594 L 86.710938 127.617188 Z M 70.546875 117.230469 L 55.285156 127.144531 L 55.285156 230.269531 C 60.316406 229.734375 65.414062 229.378906 70.546875 229.230469 Z M 73.742188 111.324219 L 106.453125 123.320312 L 106.453125 173.90625 L 91.300781 183.761719 L 91.300781 229.632812 C 92.855469 229.726562 94.425781 229.84375 95.980469 229.980469 L 95.980469 187.652344 L 117.65625 173.570312 L 136.113281 185.574219 L 136.113281 238.4375 C 142.589844 240.683594 148.617188 243.28125 154.074219 246.199219 L 0.03125 246.199219 C 5.488281 243.300781 11.515625 240.714844 17.984375 238.488281 L 17.984375 178.898438 L 39.65625 164.816406 L 52.078125 172.882812 L 52.078125 125.414062 Z M 73.742188 111.324219 " fill-opacity="1" fill-rule="evenodd"/></g><g fill="#003262" fill-opacity="1"><g transform="translate(173.891273, 135.660385)"><g><path d="M 11.96875 -24.015625 C 13.59375 -24.015625 15.039062 -23.648438 16.3125 -22.921875 C 17.582031 -22.203125 18.59375 -21.21875 19.34375 -19.96875 C 20.09375 -18.726562 20.46875 -17.320312 20.46875 -15.75 C 20.46875 -14.164062 20.097656 -12.75 19.359375 -11.5 C 18.617188 -10.257812 17.609375 -9.285156 16.328125 -8.578125 C 15.046875 -7.867188 13.59375 -7.515625 11.96875 -7.515625 L 7.953125 -7.515625 L 7.953125 0 L 2.75 0 L 2.75 -24.015625 Z M 11.765625 -12.3125 C 12.796875 -12.3125 13.625 -12.632812 14.25 -13.28125 C 14.875 -13.9375 15.1875 -14.757812 15.1875 -15.75 C 15.1875 -16.75 14.875 -17.570312 14.25 -18.21875 C 13.625 -18.875 12.796875 -19.203125 11.765625 -19.203125 L 7.953125 -19.203125 L 7.953125 -12.3125 Z M 11.765625 -12.3125 "/></g></g></g><g fill="#003262" fill-opacity="1"><g transform="translate(195.219029, 135.660385)"><g><path d="M 17.53125 -18.546875 L 21.265625 -18.546875 L 21.265625 -0.03125 L 17.3125 -0.03125 L 16.90625 -1.6875 C 16.101562 -1 15.191406 -0.457031 14.171875 -0.0625 C 13.160156 0.320312 12.070312 0.515625 10.90625 0.515625 C 9.050781 0.515625 7.390625 0.0859375 5.921875 -0.765625 C 4.460938 -1.628906 3.3125 -2.796875 2.46875 -4.265625 C 1.625 -5.742188 1.203125 -7.421875 1.203125 -9.296875 C 1.203125 -11.148438 1.625 -12.8125 2.46875 -14.28125 C 3.3125 -15.757812 4.460938 -16.921875 5.921875 -17.765625 C 7.390625 -18.609375 9.050781 -19.03125 10.90625 -19.03125 C 12.09375 -19.03125 13.203125 -18.828125 14.234375 -18.421875 C 15.265625 -18.023438 16.179688 -17.472656 16.984375 -16.765625 Z M 11.3125 -4.21875 C 12.28125 -4.21875 13.144531 -4.429688 13.90625 -4.859375 C 14.675781 -5.296875 15.273438 -5.894531 15.703125 -6.65625 C 16.140625 -7.425781 16.359375 -8.304688 16.359375 -9.296875 C 16.359375 -10.253906 16.140625 -11.113281 15.703125 -11.875 C 15.273438 -12.644531 14.675781 -13.253906 13.90625 -13.703125 C 13.144531 -14.148438 12.28125 -14.375 11.3125 -14.375 C 10.332031 -14.375 9.460938 -14.148438 8.703125 -13.703125 C 7.953125 -13.253906 7.359375 -12.644531 6.921875 -11.875 C 6.492188 -11.113281 6.28125 -10.253906 6.28125 -9.296875 C 6.28125 -8.304688 6.492188 -7.4375 6.921875 -6.6875 C 7.359375 -5.9375 7.953125 -5.335938 8.703125 -4.890625 C 9.460938 -4.441406 10.332031 -4.21875 11.3125 -4.21875 Z M 11.3125 -4.21875 "/></g></g></g><g fill="#003262" fill-opacity="1"><g transform="translate(218.878438, 135.660385)"><g><path d="M 23.453125 -18.96875 C 24.734375 -18.96875 25.863281 -18.648438 26.84375 -18.015625 C 27.832031 -17.390625 28.609375 -16.523438 29.171875 -15.421875 C 29.734375 -14.328125 30.015625 -13.0625 30.015625 -11.625 L 30.015625 0 L 25 0 L 25 -10.796875 C 25 -13.316406 24.0625 -14.578125 22.1875 -14.578125 C 21.09375 -14.578125 20.226562 -14.175781 19.59375 -13.375 C 18.96875 -12.570312 18.65625 -11.453125 18.65625 -10.015625 L 18.65625 0 L 13.75 0 L 13.75 -10.796875 C 13.75 -13.316406 12.847656 -14.578125 11.046875 -14.578125 C 9.898438 -14.578125 9.003906 -14.175781 8.359375 -13.375 C 7.722656 -12.570312 7.40625 -11.453125 7.40625 -10.015625 L 7.40625 0 L 2.40625 0 L 2.40625 -18.515625 L 5.90625 -18.515625 L 6.828125 -16.21875 C 7.484375 -17.039062 8.296875 -17.703125 9.265625 -18.203125 C 10.242188 -18.710938 11.28125 -18.96875 12.375 -18.96875 C 13.539062 -18.96875 14.59375 -18.703125 15.53125 -18.171875 C 16.46875 -17.648438 17.203125 -16.921875 17.734375 -15.984375 C 18.367188 -16.898438 19.1875 -17.625 20.1875 -18.15625 C 21.195312 -18.695312 22.285156 -18.96875 23.453125 -18.96875 Z M 23.453125 -18.96875 "/></g></g></g><g fill="#003262" fill-opacity="1"><g transform="translate(251.041516, 135.660385)"><g><path d="M 12.515625 -19.03125 C 14.367188 -19.03125 16.023438 -18.609375 17.484375 -17.765625 C 18.953125 -16.921875 20.109375 -15.757812 20.953125 -14.28125 C 21.796875 -12.8125 22.21875 -11.140625 22.21875 -9.265625 C 22.21875 -7.390625 21.796875 -5.710938 20.953125 -4.234375 C 20.109375 -2.765625 18.953125 -1.597656 17.484375 -0.734375 C 16.023438 0.117188 14.367188 0.546875 12.515625 0.546875 C 11.554688 0.546875 10.640625 0.40625 9.765625 0.125 C 8.898438 -0.144531 8.113281 -0.519531 7.40625 -1 L 7.40625 6.6875 L 2.40625 6.6875 L 2.40625 -18.515625 L 5.734375 -18.515625 L 6.578125 -16.84375 C 7.359375 -17.53125 8.25 -18.066406 9.25 -18.453125 C 10.257812 -18.835938 11.347656 -19.03125 12.515625 -19.03125 Z M 12.109375 -4.1875 C 13.066406 -4.1875 13.925781 -4.40625 14.6875 -4.84375 C 15.457031 -5.289062 16.0625 -5.894531 16.5 -6.65625 C 16.9375 -7.425781 17.15625 -8.296875 17.15625 -9.265625 C 17.15625 -10.222656 16.9375 -11.082031 16.5 -11.84375 C 16.0625 -12.613281 15.457031 -13.222656 14.6875 -13.671875 C 13.925781 -14.117188 13.066406 -14.34375 12.109375 -14.34375 C 11.117188 -14.34375 10.25 -14.117188 9.5 -13.671875 C 8.75 -13.222656 8.15625 -12.613281 7.71875 -11.84375 C 7.28125 -11.082031 7.0625 -10.222656 7.0625 -9.265625 C 7.0625 -8.296875 7.28125 -7.425781 7.71875 -6.65625 C 8.15625 -5.894531 8.75 -5.289062 9.5 -4.84375 C 10.25 -4.40625 11.117188 -4.1875 12.109375 -4.1875 Z M 12.109375 -4.1875 "/></g></g></g><g fill="#003262" fill-opacity="1"><g transform="translate(274.426611, 135.660385)"><g><path d="M 17.53125 -18.546875 L 21.265625 -18.546875 L 21.265625 -0.03125 L 17.3125 -0.03125 L 16.90625 -1.6875 C 16.101562 -1 15.191406 -0.457031 14.171875 -0.0625 C 13.160156 0.320312 12.070312 0.515625 10.90625 0.515625 C 9.050781 0.515625 7.390625 0.0859375 5.921875 -0.765625 C 4.460938 -1.628906 3.3125 -2.796875 2.46875 -4.265625 C 1.625 -5.742188 1.203125 -7.421875 1.203125 -9.296875 C 1.203125 -11.148438 1.625 -12.8125 2.46875 -14.28125 C 3.3125 -15.757812 4.460938 -16.921875 5.921875 -17.765625 C 7.390625 -18.609375 9.050781 -19.03125 10.90625 -19.03125 C 12.09375 -19.03125 13.203125 -18.828125 14.234375 -18.421875 C 15.265625 -18.023438 16.179688 -17.472656 16.984375 -16.765625 Z M 11.3125 -4.21875 C 12.28125 -4.21875 13.144531 -4.429688 13.90625 -4.859375 C 14.675781 -5.296875 15.273438 -5.894531 15.703125 -6.65625 C 16.140625 -7.425781 16.359375 -8.304688 16.359375 -9.296875 C 16.359375 -10.253906 16.140625 -11.113281 15.703125 -11.875 C 15.273438 -12.644531 14.675781 -13.253906 13.90625 -13.703125 C 13.144531 -14.148438 12.28125 -14.375 11.3125 -14.375 C 10.332031 -14.375 9.460938 -14.148438 8.703125 -13.703125 C 7.953125 -13.253906 7.359375 -12.644531 6.921875 -11.875 C 6.492188 -11.113281 6.28125 -10.253906 6.28125 -9.296875 C 6.28125 -8.304688 6.492188 -7.4375 6.921875 -6.6875 C 7.359375 -5.9375 7.953125 -5.335938 8.703125 -4.890625 C 9.460938 -4.441406 10.332031 -4.21875 11.3125 -4.21875 Z M 11.3125 -4.21875 "/></g></g></g><g fill="#003262" fill-opacity="1"><g transform="translate(298.08602, 135.660385)"><g><path d="M 12.96875 -18.96875 C 15.070312 -18.96875 16.734375 -18.265625 17.953125 -16.859375 C 19.179688 -15.453125 19.796875 -13.570312 19.796875 -11.21875 L 19.796875 0 L 14.78125 0 L 14.78125 -10.421875 C 14.78125 -13.191406 13.707031 -14.578125 11.5625 -14.578125 C 10.28125 -14.578125 9.265625 -14.140625 8.515625 -13.265625 C 7.773438 -12.398438 7.40625 -11.222656 7.40625 -9.734375 L 7.40625 0 L 2.40625 0 L 2.40625 -18.515625 L 5.828125 -18.515625 L 6.828125 -16.21875 C 7.515625 -17.0625 8.394531 -17.726562 9.46875 -18.21875 C 10.539062 -18.71875 11.707031 -18.96875 12.96875 -18.96875 Z M 12.96875 -18.96875 "/></g></g></g><g fill="#003262" fill-opacity="1"><g transform="translate(320.065265, 135.660385)"><g><path d="M 17.359375 -18.515625 L 20.609375 -18.515625 L 20.609375 -2.15625 C 20.609375 -0.21875 20.222656 1.445312 19.453125 2.84375 C 18.691406 4.238281 17.601562 5.3125 16.1875 6.0625 C 14.769531 6.820312 13.085938 7.203125 11.140625 7.203125 C 8.628906 7.203125 6.53125 6.59375 4.84375 5.375 C 3.164062 4.164062 2.125 2.507812 1.71875 0.40625 L 6.6875 0.40625 C 6.957031 1.226562 7.519531 1.851562 8.375 2.28125 C 9.238281 2.707031 10.128906 2.921875 11.046875 2.921875 C 12.328125 2.921875 13.414062 2.535156 14.3125 1.765625 C 15.21875 1.003906 15.671875 -0.0625 15.671875 -1.4375 L 15.671875 -2.125 C 14.941406 -1.601562 14.128906 -1.195312 13.234375 -0.90625 C 12.347656 -0.625 11.398438 -0.484375 10.390625 -0.484375 C 8.671875 -0.484375 7.113281 -0.894531 5.71875 -1.71875 C 4.332031 -2.539062 3.234375 -3.648438 2.421875 -5.046875 C 1.609375 -6.441406 1.203125 -8.003906 1.203125 -9.734375 C 1.203125 -11.472656 1.609375 -13.046875 2.421875 -14.453125 C 3.234375 -15.859375 4.332031 -16.972656 5.71875 -17.796875 C 7.113281 -18.617188 8.671875 -19.03125 10.390625 -19.03125 C 11.597656 -19.03125 12.726562 -18.820312 13.78125 -18.40625 C 14.832031 -18 15.757812 -17.421875 16.5625 -16.671875 Z M 10.96875 -4.9375 C 12.34375 -4.9375 13.472656 -5.382812 14.359375 -6.28125 C 15.253906 -7.1875 15.703125 -8.335938 15.703125 -9.734375 C 15.703125 -11.109375 15.257812 -12.242188 14.375 -13.140625 C 13.5 -14.046875 12.363281 -14.5 10.96875 -14.5 C 9.625 -14.5 8.503906 -14.046875 7.609375 -13.140625 C 6.722656 -12.242188 6.28125 -11.109375 6.28125 -9.734375 C 6.28125 -8.335938 6.71875 -7.1875 7.59375 -6.28125 C 8.476562 -5.382812 9.601562 -4.9375 10.96875 -4.9375 Z M 10.96875 -4.9375 "/></g></g></g><g fill="#003262" fill-opacity="1"><g transform="translate(343.073185, 135.660385)"><g><path d="M 17.53125 -18.546875 L 21.265625 -18.546875 L 21.265625 -0.03125 L 17.3125 -0.03125 L 16.90625 -1.6875 C 16.101562 -1 15.191406 -0.457031 14.171875 -0.0625 C 13.160156 0.320312 12.070312 0.515625 10.90625 0.515625 C 9.050781 0.515625 7.390625 0.0859375 5.921875 -0.765625 C 4.460938 -1.628906 3.3125 -2.796875 2.46875 -4.265625 C 1.625 -5.742188 1.203125 -7.421875 1.203125 -9.296875 C 1.203125 -11.148438 1.625 -12.8125 2.46875 -14.28125 C 3.3125 -15.757812 4.460938 -16.921875 5.921875 -17.765625 C 7.390625 -18.609375 9.050781 -19.03125 10.90625 -19.03125 C 12.09375 -19.03125 13.203125 -18.828125 14.234375 -18.421875 C 15.265625 -18.023438 16.179688 -17.472656 16.984375 -16.765625 Z M 11.3125 -4.21875 C 12.28125 -4.21875 13.144531 -4.429688 13.90625 -4.859375 C 14.675781 -5.296875 15.273438 -5.894531 15.703125 -6.65625 C 16.140625 -7.425781 16.359375 -8.304688 16.359375 -9.296875 C 16.359375 -10.253906 16.140625 -11.113281 15.703125 -11.875 C 15.273438 -12.644531 14.675781 -13.253906 13.90625 -13.703125 C 13.144531 -14.148438 12.28125 -14.375 11.3125 -14.375 C 10.332031 -14.375 9.460938 -14.148438 8.703125 -13.703125 C 7.953125 -13.253906 7.359375 -12.644531 6.921875 -11.875 C 6.492188 -11.113281 6.28125 -10.253906 6.28125 -9.296875 C 6.28125 -8.304688 6.492188 -7.4375 6.921875 -6.6875 C 7.359375 -5.9375 7.953125 -5.335938 8.703125 -4.890625 C 9.460938 -4.441406 10.332031 -4.21875 11.3125 -4.21875 Z M 11.3125 -4.21875 "/></g></g></g><g fill="#003262" fill-opacity="1"><g transform="translate(173.891273, 170.910381)"><g><path d="M 17.1875 -12.65625 C 18.238281 -12.101562 19.054688 -11.328125 19.640625 -10.328125 C 20.222656 -9.335938 20.515625 -8.203125 20.515625 -6.921875 C 20.515625 -5.640625 20.175781 -4.472656 19.5 -3.421875 C 18.820312 -2.378906 17.90625 -1.546875 16.75 -0.921875 C 15.59375 -0.304688 14.332031 0 12.96875 0 L 2.75 0 L 2.75 -24.015625 L 12.6875 -24.015625 C 14.0625 -24.015625 15.289062 -23.742188 16.375 -23.203125 C 17.457031 -22.660156 18.3125 -21.921875 18.9375 -20.984375 C 19.570312 -20.046875 19.890625 -18.992188 19.890625 -17.828125 C 19.890625 -16.804688 19.648438 -15.835938 19.171875 -14.921875 C 18.691406 -14.003906 18.03125 -13.25 17.1875 -12.65625 Z M 14.84375 -17.015625 C 14.84375 -17.765625 14.601562 -18.378906 14.125 -18.859375 C 13.644531 -19.335938 12.992188 -19.578125 12.171875 -19.578125 L 7.859375 -19.578125 L 7.859375 -14.46875 L 12.171875 -14.46875 C 12.992188 -14.46875 13.644531 -14.707031 14.125 -15.1875 C 14.601562 -15.664062 14.84375 -16.273438 14.84375 -17.015625 Z M 12.453125 -4.765625 C 13.316406 -4.765625 14.003906 -5.015625 14.515625 -5.515625 C 15.035156 -6.023438 15.296875 -6.679688 15.296875 -7.484375 C 15.296875 -8.253906 15.035156 -8.890625 14.515625 -9.390625 C 14.003906 -9.898438 13.316406 -10.15625 12.453125 -10.15625 L 7.859375 -10.15625 L 7.859375 -4.765625 Z M 12.453125 -4.765625 "/></g></g></g><g fill="#003262" fill-opacity="1"><g transform="translate(195.904804, 170.910381)"><g><path d="M 10.875 0.515625 C 9.132812 0.515625 7.609375 0.164062 6.296875 -0.53125 C 4.984375 -1.226562 3.960938 -2.195312 3.234375 -3.4375 C 2.515625 -4.6875 2.15625 -6.144531 2.15625 -7.8125 L 2.15625 -18.515625 L 7.171875 -18.515625 L 7.171875 -8.40625 C 7.171875 -7.070312 7.492188 -6.035156 8.140625 -5.296875 C 8.796875 -4.554688 9.707031 -4.1875 10.875 -4.1875 C 12.039062 -4.1875 12.941406 -4.5625 13.578125 -5.3125 C 14.222656 -6.070312 14.546875 -7.101562 14.546875 -8.40625 L 14.546875 -18.515625 L 19.546875 -18.515625 L 19.546875 -7.8125 C 19.546875 -6.144531 19.1875 -4.6875 18.46875 -3.4375 C 17.75 -2.195312 16.738281 -1.226562 15.4375 -0.53125 C 14.132812 0.164062 12.613281 0.515625 10.875 0.515625 Z M 10.875 0.515625 "/></g></g></g><g fill="#003262" fill-opacity="1"><g transform="translate(217.609735, 170.910381)"><g><path d="M 8.984375 0.515625 C 7.429688 0.515625 6.070312 0.242188 4.90625 -0.296875 C 3.738281 -0.847656 2.828125 -1.617188 2.171875 -2.609375 C 1.523438 -3.609375 1.203125 -4.773438 1.203125 -6.109375 L 6.078125 -6.109375 C 6.097656 -5.285156 6.390625 -4.664062 6.953125 -4.25 C 7.523438 -3.84375 8.257812 -3.640625 9.15625 -3.640625 C 9.863281 -3.640625 10.476562 -3.789062 11 -4.09375 C 11.53125 -4.40625 11.796875 -4.867188 11.796875 -5.484375 C 11.796875 -6.128906 11.445312 -6.582031 10.75 -6.84375 C 10.050781 -7.101562 9.210938 -7.316406 8.234375 -7.484375 C 7.503906 -7.585938 6.742188 -7.742188 5.953125 -7.953125 C 5.160156 -8.160156 4.429688 -8.457031 3.765625 -8.84375 C 3.109375 -9.238281 2.566406 -9.773438 2.140625 -10.453125 C 1.722656 -11.140625 1.515625 -12.035156 1.515625 -13.140625 C 1.515625 -14.304688 1.828125 -15.332031 2.453125 -16.21875 C 3.078125 -17.113281 3.941406 -17.804688 5.046875 -18.296875 C 6.160156 -18.785156 7.472656 -19.03125 8.984375 -19.03125 C 10.472656 -19.03125 11.769531 -18.769531 12.875 -18.25 C 13.988281 -17.738281 14.851562 -17.019531 15.46875 -16.09375 C 16.082031 -15.175781 16.390625 -14.097656 16.390625 -12.859375 L 11.625 -12.859375 C 11.625 -13.585938 11.378906 -14.132812 10.890625 -14.5 C 10.398438 -14.875 9.71875 -15.0625 8.84375 -15.0625 C 8.070312 -15.0625 7.46875 -14.894531 7.03125 -14.5625 C 6.59375 -14.226562 6.375 -13.796875 6.375 -13.265625 C 6.375 -12.648438 6.71875 -12.226562 7.40625 -12 C 8.09375 -11.769531 8.914062 -11.578125 9.875 -11.421875 C 10.632812 -11.285156 11.410156 -11.117188 12.203125 -10.921875 C 13.003906 -10.722656 13.75 -10.429688 14.4375 -10.046875 C 15.125 -9.660156 15.675781 -9.125 16.09375 -8.4375 C 16.519531 -7.75 16.734375 -6.847656 16.734375 -5.734375 C 16.734375 -4.472656 16.410156 -3.375 15.765625 -2.4375 C 15.128906 -1.5 14.226562 -0.769531 13.0625 -0.25 C 11.894531 0.257812 10.535156 0.515625 8.984375 0.515625 Z M 8.984375 0.515625 "/></g></g></g><g fill="#003262" fill-opacity="1"><g transform="translate(235.611461, 170.910381)"><g><path d="M 2.40625 -20.984375 L 2.40625 -25.65625 L 7.40625 -25.65625 L 7.40625 -20.984375 Z M 2.40625 0 L 2.40625 -18.515625 L 7.40625 -18.515625 L 7.40625 0 Z M 2.40625 0 "/></g></g></g><g fill="#003262" fill-opacity="1"><g transform="translate(245.418119, 170.910381)"><g><path d="M 12.96875 -18.96875 C 15.070312 -18.96875 16.734375 -18.265625 17.953125 -16.859375 C 19.179688 -15.453125 19.796875 -13.570312 19.796875 -11.21875 L 19.796875 0 L 14.78125 0 L 14.78125 -10.421875 C 14.78125 -13.191406 13.707031 -14.578125 11.5625 -14.578125 C 10.28125 -14.578125 9.265625 -14.140625 8.515625 -13.265625 C 7.773438 -12.398438 7.40625 -11.222656 7.40625 -9.734375 L 7.40625 0 L 2.40625 0 L 2.40625 -18.515625 L 5.828125 -18.515625 L 6.828125 -16.21875 C 7.515625 -17.0625 8.394531 -17.726562 9.46875 -18.21875 C 10.539062 -18.71875 11.707031 -18.96875 12.96875 -18.96875 Z M 12.96875 -18.96875 "/></g></g></g><g fill="#003262" fill-opacity="1"><g transform="translate(267.397364, 170.910381)"><g><path d="M 20.375 -9.328125 C 20.375 -8.847656 20.335938 -8.359375 20.265625 -7.859375 L 6.28125 -7.859375 C 6.476562 -6.597656 6.976562 -5.628906 7.78125 -4.953125 C 8.582031 -4.273438 9.585938 -3.9375 10.796875 -3.9375 C 11.671875 -3.9375 12.453125 -4.125 13.140625 -4.5 C 13.828125 -4.882812 14.351562 -5.410156 14.71875 -6.078125 L 20 -6.078125 C 19.3125 -4.054688 18.144531 -2.453125 16.5 -1.265625 C 14.851562 -0.078125 12.953125 0.515625 10.796875 0.515625 C 8.972656 0.515625 7.332031 0.0859375 5.875 -0.765625 C 4.425781 -1.628906 3.285156 -2.796875 2.453125 -4.265625 C 1.617188 -5.742188 1.203125 -7.410156 1.203125 -9.265625 C 1.203125 -11.109375 1.617188 -12.769531 2.453125 -14.25 C 3.285156 -15.726562 4.425781 -16.894531 5.875 -17.75 C 7.332031 -18.601562 8.972656 -19.03125 10.796875 -19.03125 C 12.703125 -19.03125 14.375 -18.585938 15.8125 -17.703125 C 17.25 -16.828125 18.367188 -15.65625 19.171875 -14.1875 C 19.972656 -12.726562 20.375 -11.109375 20.375 -9.328125 Z M 10.796875 -14.78125 C 9.679688 -14.78125 8.738281 -14.472656 7.96875 -13.859375 C 7.207031 -13.242188 6.6875 -12.382812 6.40625 -11.28125 L 15.359375 -11.28125 C 14.628906 -13.613281 13.109375 -14.78125 10.796875 -14.78125 Z M 10.796875 -14.78125 "/></g></g></g><g fill="#003262" fill-opacity="1"><g transform="translate(288.930851, 170.910381)"><g><path d="M 8.984375 0.515625 C 7.429688 0.515625 6.070312 0.242188 4.90625 -0.296875 C 3.738281 -0.847656 2.828125 -1.617188 2.171875 -2.609375 C 1.523438 -3.609375 1.203125 -4.773438 1.203125 -6.109375 L 6.078125 -6.109375 C 6.097656 -5.285156 6.390625 -4.664062 6.953125 -4.25 C 7.523438 -3.84375 8.257812 -3.640625 9.15625 -3.640625 C 9.863281 -3.640625 10.476562 -3.789062 11 -4.09375 C 11.53125 -4.40625 11.796875 -4.867188 11.796875 -5.484375 C 11.796875 -6.128906 11.445312 -6.582031 10.75 -6.84375 C 10.050781 -7.101562 9.210938 -7.316406 8.234375 -7.484375 C 7.503906 -7.585938 6.742188 -7.742188 5.953125 -7.953125 C 5.160156 -8.160156 4.429688 -8.457031 3.765625 -8.84375 C 3.109375 -9.238281 2.566406 -9.773438 2.140625 -10.453125 C 1.722656 -11.140625 1.515625 -12.035156 1.515625 -13.140625 C 1.515625 -14.304688 1.828125 -15.332031 2.453125 -16.21875 C 3.078125 -17.113281 3.941406 -17.804688 5.046875 -18.296875 C 6.160156 -18.785156 7.472656 -19.03125 8.984375 -19.03125 C 10.472656 -19.03125 11.769531 -18.769531 12.875 -18.25 C 13.988281 -17.738281 14.851562 -17.019531 15.46875 -16.09375 C 16.082031 -15.175781 16.390625 -14.097656 16.390625 -12.859375 L 11.625 -12.859375 C 11.625 -13.585938 11.378906 -14.132812 10.890625 -14.5 C 10.398438 -14.875 9.71875 -15.0625 8.84375 -15.0625 C 8.070312 -15.0625 7.46875 -14.894531 7.03125 -14.5625 C 6.59375 -14.226562 6.375 -13.796875 6.375 -13.265625 C 6.375 -12.648438 6.71875 -12.226562 7.40625 -12 C 8.09375 -11.769531 8.914062 -11.578125 9.875 -11.421875 C 10.632812 -11.285156 11.410156 -11.117188 12.203125 -10.921875 C 13.003906 -10.722656 13.75 -10.429688 14.4375 -10.046875 C 15.125 -9.660156 15.675781 -9.125 16.09375 -8.4375 C 16.519531 -7.75 16.734375 -6.847656 16.734375 -5.734375 C 16.734375 -4.472656 16.410156 -3.375 15.765625 -2.4375 C 15.128906 -1.5 14.226562 -0.769531 13.0625 -0.25 C 11.894531 0.257812 10.535156 0.515625 8.984375 0.515625 Z M 8.984375 0.515625 "/></g></g></g><g fill="#003262" fill-opacity="1"><g transform="translate(306.932576, 170.910381)"><g><path d="M 8.984375 0.515625 C 7.429688 0.515625 6.070312 0.242188 4.90625 -0.296875 C 3.738281 -0.847656 2.828125 -1.617188 2.171875 -2.609375 C 1.523438 -3.609375 1.203125 -4.773438 1.203125 -6.109375 L 6.078125 -6.109375 C 6.097656 -5.285156 6.390625 -4.664062 6.953125 -4.25 C 7.523438 -3.84375 8.257812 -3.640625 9.15625 -3.640625 C 9.863281 -3.640625 10.476562 -3.789062 11 -4.09375 C 11.53125 -4.40625 11.796875 -4.867188 11.796875 -5.484375 C 11.796875 -6.128906 11.445312 -6.582031 10.75 -6.84375 C 10.050781 -7.101562 9.210938 -7.316406 8.234375 -7.484375 C 7.503906 -7.585938 6.742188 -7.742188 5.953125 -7.953125 C 5.160156 -8.160156 4.429688 -8.457031 3.765625 -8.84375 C 3.109375 -9.238281 2.566406 -9.773438 2.140625 -10.453125 C 1.722656 -11.140625 1.515625 -12.035156 1.515625 -13.140625 C 1.515625 -14.304688 1.828125 -15.332031 2.453125 -16.21875 C 3.078125 -17.113281 3.941406 -17.804688 5.046875 -18.296875 C 6.160156 -18.785156 7.472656 -19.03125 8.984375 -19.03125 C 10.472656 -19.03125 11.769531 -18.769531 12.875 -18.25 C 13.988281 -17.738281 14.851562 -17.019531 15.46875 -16.09375 C 16.082031 -15.175781 16.390625 -14.097656 16.390625 -12.859375 L 11.625 -12.859375 C 11.625 -13.585938 11.378906 -14.132812 10.890625 -14.5 C 10.398438 -14.875 9.71875 -15.0625 8.84375 -15.0625 C 8.070312 -15.0625 7.46875 -14.894531 7.03125 -14.5625 C 6.59375 -14.226562 6.375 -13.796875 6.375 -13.265625 C 6.375 -12.648438 6.71875 -12.226562 7.40625 -12 C 8.09375 -11.769531 8.914062 -11.578125 9.875 -11.421875 C 10.632812 -11.285156 11.410156 -11.117188 12.203125 -10.921875 C 13.003906 -10.722656 13.75 -10.429688 14.4375 -10.046875 C 15.125 -9.660156 15.675781 -9.125 16.09375 -8.4375 C 16.519531 -7.75 16.734375 -6.847656 16.734375 -5.734375 C 16.734375 -4.472656 16.410156 -3.375 15.765625 -2.4375 C 15.128906 -1.5 14.226562 -0.769531 13.0625 -0.25 C 11.894531 0.257812 10.535156 0.515625 8.984375 0.515625 Z M 8.984375 0.515625 "/></g></g></g><g fill="#003262" fill-opacity="1"><g transform="translate(324.934302, 170.910381)"><g/></g></g><g fill="#003262" fill-opacity="1"><g transform="translate(333.129369, 170.910381)"><g><path d="M 17.53125 -13.75 L 17.53125 -9.125 L 11.828125 -9.125 L 11.828125 -3.09375 L 6.921875 -3.09375 L 6.921875 -9.125 L 1.203125 -9.125 L 1.203125 -13.75 L 6.921875 -13.75 L 6.921875 -19.625 L 11.828125 -19.625 L 11.828125 -13.75 Z M 17.53125 -13.75 "/></g></g></g><g fill="#003262" fill-opacity="1"><g transform="translate(173.891273, 206.160376)"><g><path d="M 2.75 0 L 2.75 -24.015625 L 7.953125 -24.015625 L 7.953125 0 Z M 2.75 0 "/></g></g></g><g fill="#003262" fill-opacity="1"><g transform="translate(184.589438, 206.160376)"><g><path d="M 12.96875 -18.96875 C 15.070312 -18.96875 16.734375 -18.265625 17.953125 -16.859375 C 19.179688 -15.453125 19.796875 -13.570312 19.796875 -11.21875 L 19.796875 0 L 14.78125 0 L 14.78125 -10.421875 C 14.78125 -13.191406 13.707031 -14.578125 11.5625 -14.578125 C 10.28125 -14.578125 9.265625 -14.140625 8.515625 -13.265625 C 7.773438 -12.398438 7.40625 -11.222656 7.40625 -9.734375 L 7.40625 0 L 2.40625 0 L 2.40625 -18.515625 L 5.828125 -18.515625 L 6.828125 -16.21875 C 7.515625 -17.0625 8.394531 -17.726562 9.46875 -18.21875 C 10.539062 -18.71875 11.707031 -18.96875 12.96875 -18.96875 Z M 12.96875 -18.96875 "/></g></g></g><g fill="#003262" fill-opacity="1"><g transform="translate(206.568683, 206.160376)"><g><path d="M 12.96875 -18.96875 C 15.070312 -18.96875 16.734375 -18.265625 17.953125 -16.859375 C 19.179688 -15.453125 19.796875 -13.570312 19.796875 -11.21875 L 19.796875 0 L 14.78125 0 L 14.78125 -10.421875 C 14.78125 -13.191406 13.707031 -14.578125 11.5625 -14.578125 C 10.28125 -14.578125 9.265625 -14.140625 8.515625 -13.265625 C 7.773438 -12.398438 7.40625 -11.222656 7.40625 -9.734375 L 7.40625 0 L 2.40625 0 L 2.40625 -18.515625 L 5.828125 -18.515625 L 6.828125 -16.21875 C 7.515625 -17.0625 8.394531 -17.726562 9.46875 -18.21875 C 10.539062 -18.71875 11.707031 -18.96875 12.96875 -18.96875 Z M 12.96875 -18.96875 "/></g></g></g><g fill="#003262" fill-opacity="1"><g transform="translate(228.547928, 206.160376)"><g><path d="M 11.21875 0.515625 C 9.289062 0.515625 7.570312 0.0859375 6.0625 -0.765625 C 4.5625 -1.628906 3.375 -2.796875 2.5 -4.265625 C 1.632812 -5.742188 1.203125 -7.410156 1.203125 -9.265625 C 1.203125 -11.140625 1.632812 -12.8125 2.5 -14.28125 C 3.375 -15.757812 4.5625 -16.921875 6.0625 -17.765625 C 7.570312 -18.609375 9.289062 -19.03125 11.21875 -19.03125 C 13.113281 -19.03125 14.816406 -18.609375 16.328125 -17.765625 C 17.835938 -16.921875 19.023438 -15.757812 19.890625 -14.28125 C 20.765625 -12.8125 21.203125 -11.140625 21.203125 -9.265625 C 21.203125 -7.410156 20.765625 -5.742188 19.890625 -4.265625 C 19.023438 -2.796875 17.835938 -1.628906 16.328125 -0.765625 C 14.816406 0.0859375 13.113281 0.515625 11.21875 0.515625 Z M 11.21875 -4.1875 C 12.65625 -4.1875 13.832031 -4.65625 14.75 -5.59375 C 15.664062 -6.53125 16.125 -7.753906 16.125 -9.265625 C 16.125 -10.773438 15.664062 -12 14.75 -12.9375 C 13.832031 -13.875 12.65625 -14.34375 11.21875 -14.34375 C 9.75 -14.34375 8.554688 -13.875 7.640625 -12.9375 C 6.734375 -12 6.28125 -10.773438 6.28125 -9.265625 C 6.28125 -7.753906 6.734375 -6.53125 7.640625 -5.59375 C 8.554688 -4.65625 9.75 -4.1875 11.21875 -4.1875 Z M 11.21875 -4.1875 "/></g></g></g><g fill="#003262" fill-opacity="1"><g transform="translate(250.938645, 206.160376)"><g><path d="M 14.546875 -18.515625 L 19.75 -18.515625 L 12.375 0 L 7.75 0 L 0.234375 -18.515625 L 5.5625 -18.515625 L 10.125 -6.109375 Z M 14.546875 -18.515625 "/></g></g></g><g fill="#003262" fill-opacity="1"><g transform="translate(270.963423, 206.160376)"><g><path d="M 17.53125 -18.546875 L 21.265625 -18.546875 L 21.265625 -0.03125 L 17.3125 -0.03125 L 16.90625 -1.6875 C 16.101562 -1 15.191406 -0.457031 14.171875 -0.0625 C 13.160156 0.320312 12.070312 0.515625 10.90625 0.515625 C 9.050781 0.515625 7.390625 0.0859375 5.921875 -0.765625 C 4.460938 -1.628906 3.3125 -2.796875 2.46875 -4.265625 C 1.625 -5.742188 1.203125 -7.421875 1.203125 -9.296875 C 1.203125 -11.148438 1.625 -12.8125 2.46875 -14.28125 C 3.3125 -15.757812 4.460938 -16.921875 5.921875 -17.765625 C 7.390625 -18.609375 9.050781 -19.03125 10.90625 -19.03125 C 12.09375 -19.03125 13.203125 -18.828125 14.234375 -18.421875 C 15.265625 -18.023438 16.179688 -17.472656 16.984375 -16.765625 Z M 11.3125 -4.21875 C 12.28125 -4.21875 13.144531 -4.429688 13.90625 -4.859375 C 14.675781 -5.296875 15.273438 -5.894531 15.703125 -6.65625 C 16.140625 -7.425781 16.359375 -8.304688 16.359375 -9.296875 C 16.359375 -10.253906 16.140625 -11.113281 15.703125 -11.875 C 15.273438 -12.644531 14.675781 -13.253906 13.90625 -13.703125 C 13.144531 -14.148438 12.28125 -14.375 11.3125 -14.375 C 10.332031 -14.375 9.460938 -14.148438 8.703125 -13.703125 C 7.953125 -13.253906 7.359375 -12.644531 6.921875 -11.875 C 6.492188 -11.113281 6.28125 -10.253906 6.28125 -9.296875 C 6.28125 -8.304688 6.492188 -7.4375 6.921875 -6.6875 C 7.359375 -5.9375 7.953125 -5.335938 8.703125 -4.890625 C 9.460938 -4.441406 10.332031 -4.21875 11.3125 -4.21875 Z M 11.3125 -4.21875 "/></g></g></g><g fill="#003262" fill-opacity="1"><g transform="translate(294.622832, 206.160376)"><g><path d="M 11.453125 -4.453125 L 13.71875 -4.453125 L 13.71875 0 L 10.1875 0 C 8.15625 0 6.546875 -0.585938 5.359375 -1.765625 C 4.179688 -2.941406 3.59375 -4.5625 3.59375 -6.625 L 3.59375 -14.5 L 0.234375 -14.5 L 0.234375 -15.578125 L 7.578125 -23.359375 L 8.5 -23.359375 L 8.5 -18.515625 L 13.609375 -18.515625 L 13.609375 -14.5 L 8.609375 -14.5 L 8.609375 -7.265625 C 8.609375 -6.378906 8.851562 -5.6875 9.34375 -5.1875 C 9.832031 -4.695312 10.535156 -4.453125 11.453125 -4.453125 Z M 11.453125 -4.453125 "/></g></g></g><g fill="#003262" fill-opacity="1"><g transform="translate(309.367101, 206.160376)"><g><path d="M 2.40625 -20.984375 L 2.40625 -25.65625 L 7.40625 -25.65625 L 7.40625 -20.984375 Z M 2.40625 0 L 2.40625 -18.515625 L 7.40625 -18.515625 L 7.40625 0 Z M 2.40625 0 "/></g></g></g><g fill="#003262" fill-opacity="1"><g transform="translate(319.173759, 206.160376)"><g><path d="M 11.21875 0.515625 C 9.289062 0.515625 7.570312 0.0859375 6.0625 -0.765625 C 4.5625 -1.628906 3.375 -2.796875 2.5 -4.265625 C 1.632812 -5.742188 1.203125 -7.410156 1.203125 -9.265625 C 1.203125 -11.140625 1.632812 -12.8125 2.5 -14.28125 C 3.375 -15.757812 4.5625 -16.921875 6.0625 -17.765625 C 7.570312 -18.609375 9.289062 -19.03125 11.21875 -19.03125 C 13.113281 -19.03125 14.816406 -18.609375 16.328125 -17.765625 C 17.835938 -16.921875 19.023438 -15.757812 19.890625 -14.28125 C 20.765625 -12.8125 21.203125 -11.140625 21.203125 -9.265625 C 21.203125 -7.410156 20.765625 -5.742188 19.890625 -4.265625 C 19.023438 -2.796875 17.835938 -1.628906 16.328125 -0.765625 C 14.816406 0.0859375 13.113281 0.515625 11.21875 0.515625 Z M 11.21875 -4.1875 C 12.65625 -4.1875 13.832031 -4.65625 14.75 -5.59375 C 15.664062 -6.53125 16.125 -7.753906 16.125 -9.265625 C 16.125 -10.773438 15.664062 -12 14.75 -12.9375 C 13.832031 -13.875 12.65625 -14.34375 11.21875 -14.34375 C 9.75 -14.34375 8.554688 -13.875 7.640625 -12.9375 C 6.734375 -12 6.28125 -10.773438 6.28125 -9.265625 C 6.28125 -7.753906 6.734375 -6.53125 7.640625 -5.59375 C 8.554688 -4.65625 9.75 -4.1875 11.21875 -4.1875 Z M 11.21875 -4.1875 "/></g></g></g><g fill="#003262" fill-opacity="1"><g transform="translate(341.564477, 206.160376)"><g><path d="M 12.96875 -18.96875 C 15.070312 -18.96875 16.734375 -18.265625 17.953125 -16.859375 C 19.179688 -15.453125 19.796875 -13.570312 19.796875 -11.21875 L 19.796875 0 L 14.78125 0 L 14.78125 -10.421875 C 14.78125 -13.191406 13.707031 -14.578125 11.5625 -14.578125 C 10.28125 -14.578125 9.265625 -14.140625 8.515625 -13.265625 C 7.773438 -12.398438 7.40625 -11.222656 7.40625 -9.734375 L 7.40625 0 L 2.40625 0 L 2.40625 -18.515625 L 5.828125 -18.515625 L 6.828125 -16.21875 C 7.515625 -17.0625 8.394531 -17.726562 9.46875 -18.21875 C 10.539062 -18.71875 11.707031 -18.96875 12.96875 -18.96875 Z M 12.96875 -18.96875 "/></g></g></g><g fill="#003262" fill-opacity="1"><g transform="translate(173.891273, 241.410372)"><g><path d="M 10.703125 0.484375 C 8.867188 0.484375 7.253906 0.148438 5.859375 -0.515625 C 4.460938 -1.179688 3.367188 -2.128906 2.578125 -3.359375 C 1.796875 -4.597656 1.40625 -6.070312 1.40625 -7.78125 L 6.65625 -7.78125 C 6.65625 -6.613281 7.0625 -5.75 7.875 -5.1875 C 8.6875 -4.632812 9.617188 -4.359375 10.671875 -4.359375 C 11.328125 -4.359375 11.945312 -4.460938 12.53125 -4.671875 C 13.113281 -4.890625 13.59375 -5.210938 13.96875 -5.640625 C 14.351562 -6.066406 14.546875 -6.578125 14.546875 -7.171875 C 14.546875 -7.785156 14.328125 -8.269531 13.890625 -8.625 C 13.453125 -8.976562 12.867188 -9.269531 12.140625 -9.5 C 11.410156 -9.726562 10.609375 -9.945312 9.734375 -10.15625 C 8.847656 -10.351562 7.9375 -10.601562 7 -10.90625 C 6.0625 -11.207031 5.191406 -11.601562 4.390625 -12.09375 C 3.585938 -12.582031 2.945312 -13.242188 2.46875 -14.078125 C 1.988281 -14.910156 1.75 -15.96875 1.75 -17.25 C 1.75 -19.5625 2.53125 -21.335938 4.09375 -22.578125 C 5.664062 -23.828125 7.785156 -24.453125 10.453125 -24.453125 C 13.203125 -24.453125 15.332031 -23.757812 16.84375 -22.375 C 18.351562 -20.988281 19.109375 -19.109375 19.109375 -16.734375 L 13.953125 -16.734375 C 13.953125 -17.765625 13.585938 -18.523438 12.859375 -19.015625 C 12.128906 -19.503906 11.285156 -19.75 10.328125 -19.75 C 9.472656 -19.75 8.691406 -19.566406 7.984375 -19.203125 C 7.273438 -18.835938 6.921875 -18.265625 6.921875 -17.484375 C 6.921875 -16.921875 7.132812 -16.472656 7.5625 -16.140625 C 7.988281 -15.804688 8.550781 -15.53125 9.25 -15.3125 C 9.945312 -15.09375 10.71875 -14.878906 11.5625 -14.671875 C 12.476562 -14.453125 13.414062 -14.1875 14.375 -13.875 C 15.332031 -13.5625 16.222656 -13.140625 17.046875 -12.609375 C 17.867188 -12.085938 18.535156 -11.390625 19.046875 -10.515625 C 19.566406 -9.648438 19.828125 -8.554688 19.828125 -7.234375 C 19.828125 -5.492188 19.40625 -4.050781 18.5625 -2.90625 C 17.726562 -1.769531 16.625 -0.921875 15.25 -0.359375 C 13.882812 0.203125 12.367188 0.484375 10.703125 0.484375 Z M 10.703125 0.484375 "/></g></g></g><g fill="#003262" fill-opacity="1"><g transform="translate(195.116158, 241.410372)"><g><path d="M 10.875 0.515625 C 9.132812 0.515625 7.609375 0.164062 6.296875 -0.53125 C 4.984375 -1.226562 3.960938 -2.195312 3.234375 -3.4375 C 2.515625 -4.6875 2.15625 -6.144531 2.15625 -7.8125 L 2.15625 -18.515625 L 7.171875 -18.515625 L 7.171875 -8.40625 C 7.171875 -7.070312 7.492188 -6.035156 8.140625 -5.296875 C 8.796875 -4.554688 9.707031 -4.1875 10.875 -4.1875 C 12.039062 -4.1875 12.941406 -4.5625 13.578125 -5.3125 C 14.222656 -6.070312 14.546875 -7.101562 14.546875 -8.40625 L 14.546875 -18.515625 L 19.546875 -18.515625 L 19.546875 -7.8125 C 19.546875 -6.144531 19.1875 -4.6875 18.46875 -3.4375 C 17.75 -2.195312 16.738281 -1.226562 15.4375 -0.53125 C 14.132812 0.164062 12.613281 0.515625 10.875 0.515625 Z M 10.875 0.515625 "/></g></g></g><g fill="#003262" fill-opacity="1"><g transform="translate(216.821088, 241.410372)"><g><path d="M 23.453125 -18.96875 C 24.734375 -18.96875 25.863281 -18.648438 26.84375 -18.015625 C 27.832031 -17.390625 28.609375 -16.523438 29.171875 -15.421875 C 29.734375 -14.328125 30.015625 -13.0625 30.015625 -11.625 L 30.015625 0 L 25 0 L 25 -10.796875 C 25 -13.316406 24.0625 -14.578125 22.1875 -14.578125 C 21.09375 -14.578125 20.226562 -14.175781 19.59375 -13.375 C 18.96875 -12.570312 18.65625 -11.453125 18.65625 -10.015625 L 18.65625 0 L 13.75 0 L 13.75 -10.796875 C 13.75 -13.316406 12.847656 -14.578125 11.046875 -14.578125 C 9.898438 -14.578125 9.003906 -14.175781 8.359375 -13.375 C 7.722656 -12.570312 7.40625 -11.453125 7.40625 -10.015625 L 7.40625 0 L 2.40625 0 L 2.40625 -18.515625 L 5.90625 -18.515625 L 6.828125 -16.21875 C 7.484375 -17.039062 8.296875 -17.703125 9.265625 -18.203125 C 10.242188 -18.710938 11.28125 -18.96875 12.375 -18.96875 C 13.539062 -18.96875 14.59375 -18.703125 15.53125 -18.171875 C 16.46875 -17.648438 17.203125 -16.921875 17.734375 -15.984375 C 18.367188 -16.898438 19.1875 -17.625 20.1875 -18.15625 C 21.195312 -18.695312 22.285156 -18.96875 23.453125 -18.96875 Z M 23.453125 -18.96875 "/></g></g></g><g fill="#003262" fill-opacity="1"><g transform="translate(248.984166, 241.410372)"><g><path d="M 23.453125 -18.96875 C 24.734375 -18.96875 25.863281 -18.648438 26.84375 -18.015625 C 27.832031 -17.390625 28.609375 -16.523438 29.171875 -15.421875 C 29.734375 -14.328125 30.015625 -13.0625 30.015625 -11.625 L 30.015625 0 L 25 0 L 25 -10.796875 C 25 -13.316406 24.0625 -14.578125 22.1875 -14.578125 C 21.09375 -14.578125 20.226562 -14.175781 19.59375 -13.375 C 18.96875 -12.570312 18.65625 -11.453125 18.65625 -10.015625 L 18.65625 0 L 13.75 0 L 13.75 -10.796875 C 13.75 -13.316406 12.847656 -14.578125 11.046875 -14.578125 C 9.898438 -14.578125 9.003906 -14.175781 8.359375 -13.375 C 7.722656 -12.570312 7.40625 -11.453125 7.40625 -10.015625 L 7.40625 0 L 2.40625 0 L 2.40625 -18.515625 L 5.90625 -18.515625 L 6.828125 -16.21875 C 7.484375 -17.039062 8.296875 -17.703125 9.265625 -18.203125 C 10.242188 -18.710938 11.28125 -18.96875 12.375 -18.96875 C 13.539062 -18.96875 14.59375 -18.703125 15.53125 -18.171875 C 16.46875 -17.648438 17.203125 -16.921875 17.734375 -15.984375 C 18.367188 -16.898438 19.1875 -17.625 20.1875 -18.15625 C 21.195312 -18.695312 22.285156 -18.96875 23.453125 -18.96875 Z M 23.453125 -18.96875 "/></g></g></g><g fill="#003262" fill-opacity="1"><g transform="translate(281.147243, 241.410372)"><g><path d="M 2.40625 -20.984375 L 2.40625 -25.65625 L 7.40625 -25.65625 L 7.40625 -20.984375 Z M 2.40625 0 L 2.40625 -18.515625 L 7.40625 -18.515625 L 7.40625 0 Z M 2.40625 0 "/></g></g></g><g fill="#003262" fill-opacity="1"><g transform="translate(290.953902, 241.410372)"><g><path d="M 11.453125 -4.453125 L 13.71875 -4.453125 L 13.71875 0 L 10.1875 0 C 8.15625 0 6.546875 -0.585938 5.359375 -1.765625 C 4.179688 -2.941406 3.59375 -4.5625 3.59375 -6.625 L 3.59375 -14.5 L 0.234375 -14.5 L 0.234375 -15.578125 L 7.578125 -23.359375 L 8.5 -23.359375 L 8.5 -18.515625 L 13.609375 -18.515625 L 13.609375 -14.5 L 8.609375 -14.5 L 8.609375 -7.265625 C 8.609375 -6.378906 8.851562 -5.6875 9.34375 -5.1875 C 9.832031 -4.695312 10.535156 -4.453125 11.453125 -4.453125 Z M 11.453125 -4.453125 "/></g></g></g></svg>