<svg xmlns="http://www.w3.org/2000/svg" xmlns:xlink="http://www.w3.org/1999/xlink" width="500" zoomAndPan="magnify" viewBox="0 0 375 374.999991" height="500" preserveAspectRatio="xMidYMid meet" version="1.0"><defs><g/><clipPath id="fee72a4cae"><path d="M 0 47.570312 L 122.234375 47.570312 L 122.234375 327.386719 L 0 327.386719 Z M 0 47.570312 " clip-rule="nonzero"/></clipPath><clipPath id="72c8b30329"><path d="M 122.234375 187.496094 L -0.00390625 47.601562 L -0.00390625 327.386719 Z M 122.234375 187.496094 " clip-rule="nonzero"/></clipPath><clipPath id="fc4bccd2b2"><path d="M 250.515625 45.046875 L 374.996094 45.046875 L 374.996094 329.988281 L 250.515625 329.988281 Z M 250.515625 45.046875 " clip-rule="nonzero"/></clipPath><clipPath id="f5384573c5"><path d="M 250.515625 187.5 L 374.996094 329.957031 L 374.996094 45.046875 Z M 250.515625 187.5 " clip-rule="nonzero"/></clipPath><clipPath id="3d23d874c3"><path d="M 66.601562 143.394531 L 306.433594 143.394531 L 306.433594 216.921875 L 66.601562 216.921875 Z M 66.601562 143.394531 " clip-rule="nonzero"/></clipPath><clipPath id="1bbb4a5395"><path d="M 269.394531 143.394531 C 289.699219 143.394531 306.15625 159.855469 306.15625 180.160156 C 306.15625 200.464844 289.699219 216.921875 269.394531 216.921875 L 103.367188 216.921875 C 83.0625 216.921875 66.601562 200.464844 66.601562 180.160156 C 66.601562 159.855469 83.0625 143.394531 103.367188 143.394531 Z M 269.394531 143.394531 " clip-rule="nonzero"/></clipPath><clipPath id="15059a00e8"><path d="M 70.542969 145.617188 L 139.628906 145.617188 L 139.628906 214.703125 L 70.542969 214.703125 Z M 70.542969 145.617188 " clip-rule="nonzero"/></clipPath><clipPath id="b7a2f53a2b"><path d="M 105.085938 145.617188 C 86.007812 145.617188 70.542969 161.082031 70.542969 180.160156 C 70.542969 199.234375 86.007812 214.703125 105.085938 214.703125 C 124.164062 214.703125 139.628906 199.234375 139.628906 180.160156 C 139.628906 161.082031 124.164062 145.617188 105.085938 145.617188 Z M 105.085938 145.617188 " clip-rule="nonzero"/></clipPath><clipPath id="9e37223033"><path d="M 151.835938 145.617188 L 220.921875 145.617188 L 220.921875 214.703125 L 151.835938 214.703125 Z M 151.835938 145.617188 " clip-rule="nonzero"/></clipPath><clipPath id="4575022ad2"><path d="M 186.378906 145.617188 C 167.300781 145.617188 151.835938 161.082031 151.835938 180.160156 C 151.835938 199.234375 167.300781 214.703125 186.378906 214.703125 C 205.457031 214.703125 220.921875 199.234375 220.921875 180.160156 C 220.921875 161.082031 205.457031 145.617188 186.378906 145.617188 Z M 186.378906 145.617188 " clip-rule="nonzero"/></clipPath><clipPath id="538e13516c"><path d="M 233.101562 145.617188 L 302.1875 145.617188 L 302.1875 214.703125 L 233.101562 214.703125 Z M 233.101562 145.617188 " clip-rule="nonzero"/></clipPath><clipPath id="ce4fd56c47"><path d="M 267.644531 145.617188 C 248.566406 145.617188 233.101562 161.082031 233.101562 180.160156 C 233.101562 199.234375 248.566406 214.703125 267.644531 214.703125 C 286.722656 214.703125 302.1875 199.234375 302.1875 180.160156 C 302.1875 161.082031 286.722656 145.617188 267.644531 145.617188 Z M 267.644531 145.617188 " clip-rule="nonzero"/></clipPath><clipPath id="58926fc2b3"><path d="M 70.542969 221.460938 L 139.628906 221.460938 L 139.628906 234.132812 L 70.542969 234.132812 Z M 70.542969 221.460938 " clip-rule="nonzero"/></clipPath><clipPath id="94e9f9f563"><path d="M 76.542969 221.460938 L 133.628906 221.460938 C 136.941406 221.460938 139.628906 224.148438 139.628906 227.460938 L 139.628906 228.132812 C 139.628906 231.445312 136.941406 234.132812 133.628906 234.132812 L 76.542969 234.132812 C 73.230469 234.132812 70.542969 231.445312 70.542969 228.132812 L 70.542969 227.460938 C 70.542969 224.148438 73.230469 221.460938 76.542969 221.460938 Z M 76.542969 221.460938 " clip-rule="nonzero"/></clipPath><clipPath id="00ed61c42f"><path d="M 151.835938 221.460938 L 220.925781 221.460938 L 220.925781 234.132812 L 151.835938 234.132812 Z M 151.835938 221.460938 " clip-rule="nonzero"/></clipPath><clipPath id="4e3cd08852"><path d="M 157.835938 221.460938 L 214.921875 221.460938 C 218.234375 221.460938 220.921875 224.148438 220.921875 227.460938 L 220.921875 228.132812 C 220.921875 231.445312 218.234375 234.132812 214.921875 234.132812 L 157.835938 234.132812 C 154.523438 234.132812 151.835938 231.445312 151.835938 228.132812 L 151.835938 227.460938 C 151.835938 224.148438 154.523438 221.460938 157.835938 221.460938 Z M 157.835938 221.460938 " clip-rule="nonzero"/></clipPath><clipPath id="793b1b3f0b"><path d="M 233.101562 221.460938 L 302.191406 221.460938 L 302.191406 234.132812 L 233.101562 234.132812 Z M 233.101562 221.460938 " clip-rule="nonzero"/></clipPath><clipPath id="63161a052b"><path d="M 239.101562 221.460938 L 296.1875 221.460938 C 299.5 221.460938 302.1875 224.148438 302.1875 227.460938 L 302.1875 228.132812 C 302.1875 231.445312 299.5 234.132812 296.1875 234.132812 L 239.101562 234.132812 C 235.789062 234.132812 233.101562 231.445312 233.101562 228.132812 L 233.101562 227.460938 C 233.101562 224.148438 235.789062 221.460938 239.101562 221.460938 Z M 239.101562 221.460938 " clip-rule="nonzero"/></clipPath><clipPath id="62331a2964"><path d="M 82.964844 157 L 127.214844 157 L 127.214844 203.496094 L 82.964844 203.496094 Z M 82.964844 157 " clip-rule="nonzero"/></clipPath><clipPath id="c9b30011d9"><path d="M 159.046875 152.839844 L 213.796875 152.839844 L 213.796875 207.589844 L 159.046875 207.589844 Z M 159.046875 152.839844 " clip-rule="nonzero"/></clipPath><clipPath id="2dd8ef4f93"><path d="M 240.328125 152.839844 L 295 152.839844 L 295 207.589844 L 240.328125 207.589844 Z M 240.328125 152.839844 " clip-rule="nonzero"/></clipPath></defs><g clip-path="url(#fee72a4cae)"><g clip-path="url(#72c8b30329)"><path fill="#212123" d="M -0.00390625 327.386719 L -0.00390625 47.570312 L 122.234375 47.570312 L 122.234375 327.386719 Z M -0.00390625 327.386719 " fill-opacity="1" fill-rule="nonzero"/></g></g><g clip-path="url(#fc4bccd2b2)"><g clip-path="url(#f5384573c5)"><path fill="#212123" d="M 374.996094 45.046875 L 374.996094 329.988281 L 250.515625 329.988281 L 250.515625 45.046875 Z M 374.996094 45.046875 " fill-opacity="1" fill-rule="nonzero"/></g></g><g clip-path="url(#3d23d874c3)"><g clip-path="url(#1bbb4a5395)"><path fill="#eeba2b" d="M 66.601562 143.394531 L 306.144531 143.394531 L 306.144531 216.921875 L 66.601562 216.921875 Z M 66.601562 143.394531 " fill-opacity="1" fill-rule="nonzero"/></g></g><g clip-path="url(#15059a00e8)"><g clip-path="url(#b7a2f53a2b)"><path fill="#212123" d="M 70.542969 145.617188 L 139.628906 145.617188 L 139.628906 214.703125 L 70.542969 214.703125 Z M 70.542969 145.617188 " fill-opacity="1" fill-rule="nonzero"/></g></g><g clip-path="url(#9e37223033)"><g clip-path="url(#4575022ad2)"><path fill="#212123" d="M 151.835938 145.617188 L 220.921875 145.617188 L 220.921875 214.703125 L 151.835938 214.703125 Z M 151.835938 145.617188 " fill-opacity="1" fill-rule="nonzero"/></g></g><g clip-path="url(#538e13516c)"><g clip-path="url(#ce4fd56c47)"><path fill="#212123" d="M 233.101562 145.617188 L 302.1875 145.617188 L 302.1875 214.703125 L 233.101562 214.703125 Z M 233.101562 145.617188 " fill-opacity="1" fill-rule="nonzero"/></g></g><g clip-path="url(#58926fc2b3)"><g clip-path="url(#94e9f9f563)"><path fill="#eeba2b" d="M 70.542969 221.460938 L 139.628906 221.460938 L 139.628906 234.132812 L 70.542969 234.132812 Z M 70.542969 221.460938 " fill-opacity="1" fill-rule="nonzero"/></g></g><g clip-path="url(#00ed61c42f)"><g clip-path="url(#4e3cd08852)"><path fill="#eeba2b" d="M 151.835938 221.460938 L 220.925781 221.460938 L 220.925781 234.132812 L 151.835938 234.132812 Z M 151.835938 221.460938 " fill-opacity="1" fill-rule="nonzero"/></g></g><g clip-path="url(#793b1b3f0b)"><g clip-path="url(#63161a052b)"><path fill="#eeba2b" d="M 233.101562 221.460938 L 302.191406 221.460938 L 302.191406 234.132812 L 233.101562 234.132812 Z M 233.101562 221.460938 " fill-opacity="1" fill-rule="nonzero"/></g></g><g fill="#000000" fill-opacity="1"><g transform="translate(73.134055, 229.633201)"><g><path d="M 2.296875 0.046875 C 1.910156 0.046875 1.554688 -0.0390625 1.234375 -0.21875 C 0.921875 -0.40625 0.664062 -0.65625 0.46875 -0.96875 C 0.28125 -1.289062 0.1875 -1.65625 0.1875 -2.0625 C 0.1875 -2.46875 0.28125 -2.828125 0.46875 -3.140625 C 0.664062 -3.460938 0.921875 -3.710938 1.234375 -3.890625 C 1.554688 -4.066406 1.910156 -4.15625 2.296875 -4.15625 C 2.679688 -4.15625 3.035156 -4.066406 3.359375 -3.890625 C 3.679688 -3.710938 3.9375 -3.460938 4.125 -3.140625 C 4.3125 -2.828125 4.40625 -2.46875 4.40625 -2.0625 C 4.40625 -1.65625 4.3125 -1.289062 4.125 -0.96875 C 3.9375 -0.65625 3.679688 -0.40625 3.359375 -0.21875 C 3.035156 -0.0390625 2.679688 0.046875 2.296875 0.046875 Z M 2.296875 -0.875 C 2.628906 -0.875 2.894531 -0.984375 3.09375 -1.203125 C 3.289062 -1.421875 3.390625 -1.707031 3.390625 -2.0625 C 3.390625 -2.425781 3.289062 -2.710938 3.09375 -2.921875 C 2.894531 -3.140625 2.628906 -3.25 2.296875 -3.25 C 1.972656 -3.25 1.710938 -3.140625 1.515625 -2.921875 C 1.316406 -2.710938 1.21875 -2.425781 1.21875 -2.0625 C 1.21875 -1.695312 1.316406 -1.40625 1.515625 -1.1875 C 1.710938 -0.976562 1.972656 -0.875 2.296875 -0.875 Z M 2.296875 -0.875 "/></g></g></g><g fill="#000000" fill-opacity="1"><g transform="translate(77.731483, 229.633201)"><g><path d="M 0.1875 -2.0625 C 0.1875 -2.46875 0.273438 -2.828125 0.453125 -3.140625 C 0.628906 -3.460938 0.875 -3.710938 1.1875 -3.890625 C 1.5 -4.066406 1.851562 -4.15625 2.25 -4.15625 C 2.738281 -4.15625 3.15625 -4.023438 3.5 -3.765625 C 3.851562 -3.503906 4.085938 -3.15625 4.203125 -2.71875 L 3.109375 -2.71875 C 3.023438 -2.882812 2.90625 -3.007812 2.75 -3.09375 C 2.601562 -3.1875 2.4375 -3.234375 2.25 -3.234375 C 1.9375 -3.234375 1.679688 -3.125 1.484375 -2.90625 C 1.296875 -2.695312 1.203125 -2.414062 1.203125 -2.0625 C 1.203125 -1.695312 1.296875 -1.40625 1.484375 -1.1875 C 1.679688 -0.976562 1.9375 -0.875 2.25 -0.875 C 2.4375 -0.875 2.601562 -0.914062 2.75 -1 C 2.90625 -1.09375 3.023438 -1.226562 3.109375 -1.40625 L 4.203125 -1.40625 C 4.085938 -0.957031 3.851562 -0.601562 3.5 -0.34375 C 3.15625 -0.09375 2.738281 0.03125 2.25 0.03125 C 1.851562 0.03125 1.5 -0.0546875 1.1875 -0.234375 C 0.875 -0.410156 0.628906 -0.65625 0.453125 -0.96875 C 0.273438 -1.289062 0.1875 -1.65625 0.1875 -2.0625 Z M 0.1875 -2.0625 "/></g></g></g><g fill="#000000" fill-opacity="1"><g transform="translate(82.188532, 229.633201)"><g><path d="M 3.3125 -4.109375 L 3.3125 -3.296875 L 2.21875 -3.296875 L 2.21875 0 L 1.234375 0 L 1.234375 -3.296875 L 0.140625 -3.296875 L 0.140625 -4.109375 Z M 3.3125 -4.109375 "/></g></g></g><g fill="#000000" fill-opacity="1"><g transform="translate(85.645377, 229.633201)"><g><path d="M 2.296875 0.046875 C 1.910156 0.046875 1.554688 -0.0390625 1.234375 -0.21875 C 0.921875 -0.40625 0.664062 -0.65625 0.46875 -0.96875 C 0.28125 -1.289062 0.1875 -1.65625 0.1875 -2.0625 C 0.1875 -2.46875 0.28125 -2.828125 0.46875 -3.140625 C 0.664062 -3.460938 0.921875 -3.710938 1.234375 -3.890625 C 1.554688 -4.066406 1.910156 -4.15625 2.296875 -4.15625 C 2.679688 -4.15625 3.035156 -4.066406 3.359375 -3.890625 C 3.679688 -3.710938 3.9375 -3.460938 4.125 -3.140625 C 4.3125 -2.828125 4.40625 -2.46875 4.40625 -2.0625 C 4.40625 -1.65625 4.3125 -1.289062 4.125 -0.96875 C 3.9375 -0.65625 3.679688 -0.40625 3.359375 -0.21875 C 3.035156 -0.0390625 2.679688 0.046875 2.296875 0.046875 Z M 2.296875 -0.875 C 2.628906 -0.875 2.894531 -0.984375 3.09375 -1.203125 C 3.289062 -1.421875 3.390625 -1.707031 3.390625 -2.0625 C 3.390625 -2.425781 3.289062 -2.710938 3.09375 -2.921875 C 2.894531 -3.140625 2.628906 -3.25 2.296875 -3.25 C 1.972656 -3.25 1.710938 -3.140625 1.515625 -2.921875 C 1.316406 -2.710938 1.21875 -2.425781 1.21875 -2.0625 C 1.21875 -1.695312 1.316406 -1.40625 1.515625 -1.1875 C 1.710938 -0.976562 1.972656 -0.875 2.296875 -0.875 Z M 2.296875 -0.875 "/></g></g></g><g fill="#000000" fill-opacity="1"><g transform="translate(90.242806, 229.633201)"><g><path d="M 2.84375 -2.109375 C 3.082031 -2.054688 3.273438 -1.9375 3.421875 -1.75 C 3.566406 -1.5625 3.640625 -1.347656 3.640625 -1.109375 C 3.640625 -0.773438 3.519531 -0.503906 3.28125 -0.296875 C 3.039062 -0.0976562 2.703125 0 2.265625 0 L 0.359375 0 L 0.359375 -4.109375 L 2.203125 -4.109375 C 2.617188 -4.109375 2.945312 -4.007812 3.1875 -3.8125 C 3.425781 -3.625 3.546875 -3.363281 3.546875 -3.03125 C 3.546875 -2.789062 3.476562 -2.59375 3.34375 -2.4375 C 3.21875 -2.28125 3.050781 -2.171875 2.84375 -2.109375 Z M 1.359375 -2.4375 L 2.015625 -2.4375 C 2.179688 -2.4375 2.304688 -2.472656 2.390625 -2.546875 C 2.484375 -2.617188 2.53125 -2.726562 2.53125 -2.875 C 2.53125 -3.007812 2.484375 -3.113281 2.390625 -3.1875 C 2.304688 -3.257812 2.179688 -3.296875 2.015625 -3.296875 L 1.359375 -3.296875 Z M 2.09375 -0.8125 C 2.257812 -0.8125 2.390625 -0.847656 2.484375 -0.921875 C 2.578125 -0.992188 2.625 -1.101562 2.625 -1.25 C 2.625 -1.394531 2.578125 -1.507812 2.484375 -1.59375 C 2.390625 -1.675781 2.257812 -1.71875 2.09375 -1.71875 L 1.359375 -1.71875 L 1.359375 -0.8125 Z M 2.09375 -0.8125 "/></g></g></g><g fill="#000000" fill-opacity="1"><g transform="translate(94.097392, 229.633201)"><g><path d="M 1.359375 -3.296875 L 1.359375 -2.46875 L 2.703125 -2.46875 L 2.703125 -1.703125 L 1.359375 -1.703125 L 1.359375 -0.796875 L 2.875 -0.796875 L 2.875 0 L 0.359375 0 L 0.359375 -4.109375 L 2.875 -4.109375 L 2.875 -3.296875 Z M 1.359375 -3.296875 "/></g></g></g><g fill="#000000" fill-opacity="1"><g transform="translate(97.26178, 229.633201)"><g><path d="M 2.453125 0 L 1.59375 -1.546875 L 1.359375 -1.546875 L 1.359375 0 L 0.359375 0 L 0.359375 -4.109375 L 2.046875 -4.109375 C 2.367188 -4.109375 2.640625 -4.050781 2.859375 -3.9375 C 3.085938 -3.820312 3.257812 -3.664062 3.375 -3.46875 C 3.488281 -3.269531 3.546875 -3.050781 3.546875 -2.8125 C 3.546875 -2.539062 3.46875 -2.296875 3.3125 -2.078125 C 3.15625 -1.867188 2.929688 -1.71875 2.640625 -1.625 L 3.578125 0 Z M 1.359375 -2.25 L 1.984375 -2.25 C 2.160156 -2.25 2.296875 -2.296875 2.390625 -2.390625 C 2.484375 -2.484375 2.53125 -2.609375 2.53125 -2.765625 C 2.53125 -2.921875 2.484375 -3.039062 2.390625 -3.125 C 2.296875 -3.21875 2.160156 -3.265625 1.984375 -3.265625 L 1.359375 -3.265625 Z M 1.359375 -2.25 "/></g></g></g><g fill="#000000" fill-opacity="1"><g transform="translate(101.075423, 229.633201)"><g/></g></g><g fill="#000000" fill-opacity="1"><g transform="translate(102.315443, 229.633201)"><g><path d="M 0.234375 -0.796875 C 0.359375 -0.898438 0.414062 -0.953125 0.40625 -0.953125 C 0.789062 -1.265625 1.09375 -1.519531 1.3125 -1.71875 C 1.53125 -1.925781 1.710938 -2.140625 1.859375 -2.359375 C 2.015625 -2.578125 2.09375 -2.796875 2.09375 -3.015625 C 2.09375 -3.171875 2.054688 -3.289062 1.984375 -3.375 C 1.910156 -3.46875 1.800781 -3.515625 1.65625 -3.515625 C 1.507812 -3.515625 1.394531 -3.457031 1.3125 -3.34375 C 1.226562 -3.238281 1.1875 -3.082031 1.1875 -2.875 L 0.21875 -2.875 C 0.226562 -3.207031 0.296875 -3.484375 0.421875 -3.703125 C 0.554688 -3.929688 0.734375 -4.097656 0.953125 -4.203125 C 1.179688 -4.304688 1.425781 -4.359375 1.6875 -4.359375 C 2.15625 -4.359375 2.503906 -4.238281 2.734375 -4 C 2.972656 -3.757812 3.09375 -3.453125 3.09375 -3.078125 C 3.09375 -2.660156 2.953125 -2.269531 2.671875 -1.90625 C 2.390625 -1.550781 2.023438 -1.207031 1.578125 -0.875 L 3.15625 -0.875 L 3.15625 -0.0625 L 0.234375 -0.0625 Z M 0.234375 -0.796875 "/></g></g></g><g fill="#000000" fill-opacity="1"><g transform="translate(105.655305, 229.633201)"><g><path d="M 0.96875 -2.296875 C 0.601562 -2.484375 0.421875 -2.785156 0.421875 -3.203125 C 0.421875 -3.421875 0.472656 -3.613281 0.578125 -3.78125 C 0.679688 -3.957031 0.84375 -4.097656 1.0625 -4.203125 C 1.289062 -4.304688 1.566406 -4.359375 1.890625 -4.359375 C 2.210938 -4.359375 2.484375 -4.304688 2.703125 -4.203125 C 2.921875 -4.097656 3.082031 -3.957031 3.1875 -3.78125 C 3.300781 -3.613281 3.359375 -3.421875 3.359375 -3.203125 C 3.359375 -2.992188 3.304688 -2.8125 3.203125 -2.65625 C 3.109375 -2.5 2.976562 -2.378906 2.8125 -2.296875 C 3.019531 -2.191406 3.179688 -2.050781 3.296875 -1.875 C 3.410156 -1.695312 3.46875 -1.488281 3.46875 -1.25 C 3.46875 -0.96875 3.394531 -0.726562 3.25 -0.53125 C 3.113281 -0.332031 2.925781 -0.179688 2.6875 -0.078125 C 2.445312 0.0234375 2.179688 0.078125 1.890625 0.078125 C 1.597656 0.078125 1.332031 0.0234375 1.09375 -0.078125 C 0.851562 -0.179688 0.660156 -0.332031 0.515625 -0.53125 C 0.378906 -0.726562 0.3125 -0.96875 0.3125 -1.25 C 0.3125 -1.488281 0.367188 -1.695312 0.484375 -1.875 C 0.597656 -2.050781 0.757812 -2.191406 0.96875 -2.296875 Z M 2.390625 -3.0625 C 2.390625 -3.21875 2.34375 -3.335938 2.25 -3.421875 C 2.164062 -3.515625 2.046875 -3.5625 1.890625 -3.5625 C 1.742188 -3.5625 1.625 -3.515625 1.53125 -3.421875 C 1.4375 -3.335938 1.390625 -3.210938 1.390625 -3.046875 C 1.390625 -2.898438 1.4375 -2.78125 1.53125 -2.6875 C 1.625 -2.601562 1.742188 -2.5625 1.890625 -2.5625 C 2.035156 -2.5625 2.15625 -2.601562 2.25 -2.6875 C 2.34375 -2.78125 2.390625 -2.90625 2.390625 -3.0625 Z M 1.890625 -1.859375 C 1.710938 -1.859375 1.566406 -1.804688 1.453125 -1.703125 C 1.335938 -1.609375 1.28125 -1.472656 1.28125 -1.296875 C 1.28125 -1.128906 1.332031 -0.992188 1.4375 -0.890625 C 1.550781 -0.785156 1.703125 -0.734375 1.890625 -0.734375 C 2.078125 -0.734375 2.222656 -0.785156 2.328125 -0.890625 C 2.441406 -0.992188 2.5 -1.128906 2.5 -1.296875 C 2.5 -1.460938 2.441406 -1.597656 2.328125 -1.703125 C 2.210938 -1.804688 2.066406 -1.859375 1.890625 -1.859375 Z M 1.890625 -1.859375 "/></g></g></g><g fill="#000000" fill-opacity="1"><g transform="translate(109.445551, 229.633201)"><g><path d="M 2.875 -2.46875 L 2.875 -1.640625 L 0.296875 -1.640625 L 0.296875 -2.46875 Z M 2.875 -2.46875 "/></g></g></g><g fill="#000000" fill-opacity="1"><g transform="translate(112.838056, 229.633201)"><g><path d="M 0.234375 -0.796875 C 0.359375 -0.898438 0.414062 -0.953125 0.40625 -0.953125 C 0.789062 -1.265625 1.09375 -1.519531 1.3125 -1.71875 C 1.53125 -1.925781 1.710938 -2.140625 1.859375 -2.359375 C 2.015625 -2.578125 2.09375 -2.796875 2.09375 -3.015625 C 2.09375 -3.171875 2.054688 -3.289062 1.984375 -3.375 C 1.910156 -3.46875 1.800781 -3.515625 1.65625 -3.515625 C 1.507812 -3.515625 1.394531 -3.457031 1.3125 -3.34375 C 1.226562 -3.238281 1.1875 -3.082031 1.1875 -2.875 L 0.21875 -2.875 C 0.226562 -3.207031 0.296875 -3.484375 0.421875 -3.703125 C 0.554688 -3.929688 0.734375 -4.097656 0.953125 -4.203125 C 1.179688 -4.304688 1.425781 -4.359375 1.6875 -4.359375 C 2.15625 -4.359375 2.503906 -4.238281 2.734375 -4 C 2.972656 -3.757812 3.09375 -3.453125 3.09375 -3.078125 C 3.09375 -2.660156 2.953125 -2.269531 2.671875 -1.90625 C 2.390625 -1.550781 2.023438 -1.207031 1.578125 -0.875 L 3.15625 -0.875 L 3.15625 -0.0625 L 0.234375 -0.0625 Z M 0.234375 -0.796875 "/></g></g></g><g fill="#000000" fill-opacity="1"><g transform="translate(116.177915, 229.633201)"><g><path d="M 1.34375 -1.25 C 1.394531 -0.9375 1.570312 -0.78125 1.875 -0.78125 C 2.082031 -0.78125 2.226562 -0.875 2.3125 -1.0625 C 2.394531 -1.25 2.4375 -1.546875 2.4375 -1.953125 C 2.351562 -1.835938 2.238281 -1.742188 2.09375 -1.671875 C 1.945312 -1.609375 1.78125 -1.578125 1.59375 -1.578125 C 1.34375 -1.578125 1.117188 -1.628906 0.921875 -1.734375 C 0.734375 -1.835938 0.582031 -1.988281 0.46875 -2.1875 C 0.351562 -2.394531 0.296875 -2.644531 0.296875 -2.9375 C 0.296875 -3.226562 0.351562 -3.476562 0.46875 -3.6875 C 0.59375 -3.90625 0.765625 -4.070312 0.984375 -4.1875 C 1.210938 -4.300781 1.472656 -4.359375 1.765625 -4.359375 C 2.347656 -4.359375 2.753906 -4.179688 2.984375 -3.828125 C 3.210938 -3.472656 3.328125 -2.945312 3.328125 -2.25 C 3.328125 -1.738281 3.28125 -1.316406 3.1875 -0.984375 C 3.09375 -0.660156 2.9375 -0.410156 2.71875 -0.234375 C 2.507812 -0.0664062 2.21875 0.015625 1.84375 0.015625 C 1.539062 0.015625 1.285156 -0.0390625 1.078125 -0.15625 C 0.867188 -0.269531 0.707031 -0.421875 0.59375 -0.609375 C 0.488281 -0.804688 0.429688 -1.019531 0.421875 -1.25 Z M 1.828125 -2.359375 C 1.984375 -2.359375 2.109375 -2.410156 2.203125 -2.515625 C 2.304688 -2.617188 2.359375 -2.753906 2.359375 -2.921875 C 2.359375 -3.109375 2.304688 -3.25 2.203125 -3.34375 C 2.109375 -3.445312 1.972656 -3.5 1.796875 -3.5 C 1.628906 -3.5 1.492188 -3.445312 1.390625 -3.34375 C 1.296875 -3.25 1.25 -3.109375 1.25 -2.921875 C 1.25 -2.753906 1.296875 -2.617188 1.390625 -2.515625 C 1.492188 -2.410156 1.640625 -2.359375 1.828125 -2.359375 Z M 1.828125 -2.359375 "/></g></g></g><g fill="#000000" fill-opacity="1"><g transform="translate(119.77514, 229.633201)"><g><path d="M 1.4375 -0.921875 L 0.78125 0.75 L 0.15625 0.75 L 0.484375 -0.921875 Z M 1.4375 -0.921875 "/></g></g></g><g fill="#000000" fill-opacity="1"><g transform="translate(121.453843, 229.633201)"><g/></g></g><g fill="#000000" fill-opacity="1"><g transform="translate(122.693863, 229.633201)"><g><path d="M 0.234375 -0.796875 C 0.359375 -0.898438 0.414062 -0.953125 0.40625 -0.953125 C 0.789062 -1.265625 1.09375 -1.519531 1.3125 -1.71875 C 1.53125 -1.925781 1.710938 -2.140625 1.859375 -2.359375 C 2.015625 -2.578125 2.09375 -2.796875 2.09375 -3.015625 C 2.09375 -3.171875 2.054688 -3.289062 1.984375 -3.375 C 1.910156 -3.46875 1.800781 -3.515625 1.65625 -3.515625 C 1.507812 -3.515625 1.394531 -3.457031 1.3125 -3.34375 C 1.226562 -3.238281 1.1875 -3.082031 1.1875 -2.875 L 0.21875 -2.875 C 0.226562 -3.207031 0.296875 -3.484375 0.421875 -3.703125 C 0.554688 -3.929688 0.734375 -4.097656 0.953125 -4.203125 C 1.179688 -4.304688 1.425781 -4.359375 1.6875 -4.359375 C 2.15625 -4.359375 2.503906 -4.238281 2.734375 -4 C 2.972656 -3.757812 3.09375 -3.453125 3.09375 -3.078125 C 3.09375 -2.660156 2.953125 -2.269531 2.671875 -1.90625 C 2.390625 -1.550781 2.023438 -1.207031 1.578125 -0.875 L 3.15625 -0.875 L 3.15625 -0.0625 L 0.234375 -0.0625 Z M 0.234375 -0.796875 "/></g></g></g><g fill="#000000" fill-opacity="1"><g transform="translate(126.033722, 229.633201)"><g><path d="M 0.265625 -2.1875 C 0.265625 -2.863281 0.394531 -3.394531 0.65625 -3.78125 C 0.914062 -4.164062 1.332031 -4.359375 1.90625 -4.359375 C 2.476562 -4.359375 2.894531 -4.164062 3.15625 -3.78125 C 3.414062 -3.394531 3.546875 -2.863281 3.546875 -2.1875 C 3.546875 -1.507812 3.414062 -0.976562 3.15625 -0.59375 C 2.894531 -0.207031 2.476562 -0.015625 1.90625 -0.015625 C 1.332031 -0.015625 0.914062 -0.207031 0.65625 -0.59375 C 0.394531 -0.976562 0.265625 -1.507812 0.265625 -2.1875 Z M 2.5625 -2.1875 C 2.5625 -2.582031 2.519531 -2.882812 2.4375 -3.09375 C 2.351562 -3.3125 2.175781 -3.421875 1.90625 -3.421875 C 1.632812 -3.421875 1.457031 -3.3125 1.375 -3.09375 C 1.289062 -2.882812 1.25 -2.582031 1.25 -2.1875 C 1.25 -1.925781 1.265625 -1.707031 1.296875 -1.53125 C 1.328125 -1.363281 1.390625 -1.222656 1.484375 -1.109375 C 1.578125 -1.003906 1.71875 -0.953125 1.90625 -0.953125 C 2.09375 -0.953125 2.234375 -1.003906 2.328125 -1.109375 C 2.421875 -1.222656 2.484375 -1.363281 2.515625 -1.53125 C 2.546875 -1.707031 2.5625 -1.925781 2.5625 -2.1875 Z M 2.5625 -2.1875 "/></g></g></g><g fill="#000000" fill-opacity="1"><g transform="translate(129.847363, 229.633201)"><g><path d="M 0.234375 -0.796875 C 0.359375 -0.898438 0.414062 -0.953125 0.40625 -0.953125 C 0.789062 -1.265625 1.09375 -1.519531 1.3125 -1.71875 C 1.53125 -1.925781 1.710938 -2.140625 1.859375 -2.359375 C 2.015625 -2.578125 2.09375 -2.796875 2.09375 -3.015625 C 2.09375 -3.171875 2.054688 -3.289062 1.984375 -3.375 C 1.910156 -3.46875 1.800781 -3.515625 1.65625 -3.515625 C 1.507812 -3.515625 1.394531 -3.457031 1.3125 -3.34375 C 1.226562 -3.238281 1.1875 -3.082031 1.1875 -2.875 L 0.21875 -2.875 C 0.226562 -3.207031 0.296875 -3.484375 0.421875 -3.703125 C 0.554688 -3.929688 0.734375 -4.097656 0.953125 -4.203125 C 1.179688 -4.304688 1.425781 -4.359375 1.6875 -4.359375 C 2.15625 -4.359375 2.503906 -4.238281 2.734375 -4 C 2.972656 -3.757812 3.09375 -3.453125 3.09375 -3.078125 C 3.09375 -2.660156 2.953125 -2.269531 2.671875 -1.90625 C 2.390625 -1.550781 2.023438 -1.207031 1.578125 -0.875 L 3.15625 -0.875 L 3.15625 -0.0625 L 0.234375 -0.0625 Z M 0.234375 -0.796875 "/></g></g></g><g fill="#000000" fill-opacity="1"><g transform="translate(133.187222, 229.633201)"><g><path d="M 0.28125 -0.765625 L 0.28125 -1.5625 L 2.140625 -4.203125 L 3.25 -4.203125 L 3.25 -1.625 L 3.734375 -1.625 L 3.734375 -0.765625 L 3.25 -0.765625 L 3.25 0 L 2.25 0 L 2.25 -0.765625 Z M 2.3125 -3.109375 L 1.34375 -1.625 L 2.3125 -1.625 Z M 2.3125 -3.109375 "/></g></g></g><g fill="#000000" fill-opacity="1"><g transform="translate(157.272834, 229.764332)"><g><path d="M 1.359375 -0.765625 L 2.671875 -0.765625 L 2.671875 0 L 0.359375 0 L 0.359375 -4.109375 L 1.359375 -4.109375 Z M 1.359375 -0.765625 "/></g></g></g><g fill="#000000" fill-opacity="1"><g transform="translate(160.062876, 229.764332)"><g><path d="M 2.921875 -0.71875 L 1.390625 -0.71875 L 1.140625 0 L 0.09375 0 L 1.578125 -4.109375 L 2.734375 -4.109375 L 4.21875 0 L 3.15625 0 Z M 2.65625 -1.5 L 2.15625 -3 L 1.640625 -1.5 Z M 2.65625 -1.5 "/></g></g></g><g fill="#000000" fill-opacity="1"><g transform="translate(164.373695, 229.764332)"><g><path d="M 1.34375 -4.109375 L 1.34375 -1.640625 C 1.34375 -1.398438 1.398438 -1.210938 1.515625 -1.078125 C 1.640625 -0.941406 1.820312 -0.875 2.0625 -0.875 C 2.289062 -0.875 2.46875 -0.941406 2.59375 -1.078125 C 2.71875 -1.210938 2.78125 -1.398438 2.78125 -1.640625 L 2.78125 -4.109375 L 3.78125 -4.109375 L 3.78125 -1.65625 C 3.78125 -1.289062 3.703125 -0.976562 3.546875 -0.71875 C 3.390625 -0.46875 3.179688 -0.273438 2.921875 -0.140625 C 2.660156 -0.015625 2.367188 0.046875 2.046875 0.046875 C 1.710938 0.046875 1.414062 -0.015625 1.15625 -0.140625 C 0.90625 -0.273438 0.707031 -0.46875 0.5625 -0.71875 C 0.414062 -0.976562 0.34375 -1.289062 0.34375 -1.65625 L 0.34375 -4.109375 Z M 1.34375 -4.109375 "/></g></g></g><g fill="#000000" fill-opacity="1"><g transform="translate(168.497341, 229.764332)"><g><path d="M 1.84375 0.046875 C 1.539062 0.046875 1.269531 0 1.03125 -0.09375 C 0.800781 -0.195312 0.613281 -0.34375 0.46875 -0.53125 C 0.320312 -0.726562 0.25 -0.960938 0.25 -1.234375 L 1.3125 -1.234375 C 1.320312 -1.078125 1.367188 -0.957031 1.453125 -0.875 C 1.546875 -0.800781 1.664062 -0.765625 1.8125 -0.765625 C 1.96875 -0.765625 2.085938 -0.796875 2.171875 -0.859375 C 2.253906 -0.929688 2.296875 -1.023438 2.296875 -1.140625 C 2.296875 -1.242188 2.257812 -1.328125 2.1875 -1.390625 C 2.125 -1.460938 2.039062 -1.519531 1.9375 -1.5625 C 1.84375 -1.601562 1.703125 -1.648438 1.515625 -1.703125 C 1.253906 -1.785156 1.039062 -1.867188 0.875 -1.953125 C 0.707031 -2.035156 0.5625 -2.15625 0.4375 -2.3125 C 0.3125 -2.46875 0.25 -2.675781 0.25 -2.9375 C 0.25 -3.320312 0.390625 -3.617188 0.671875 -3.828125 C 0.953125 -4.046875 1.3125 -4.15625 1.75 -4.15625 C 2.207031 -4.15625 2.570312 -4.046875 2.84375 -3.828125 C 3.125 -3.617188 3.273438 -3.320312 3.296875 -2.9375 L 2.203125 -2.9375 C 2.203125 -3.0625 2.15625 -3.160156 2.0625 -3.234375 C 1.96875 -3.316406 1.851562 -3.359375 1.71875 -3.359375 C 1.59375 -3.359375 1.492188 -3.328125 1.421875 -3.265625 C 1.347656 -3.203125 1.3125 -3.109375 1.3125 -2.984375 C 1.3125 -2.847656 1.375 -2.742188 1.5 -2.671875 C 1.625 -2.597656 1.820312 -2.519531 2.09375 -2.4375 C 2.351562 -2.34375 2.566406 -2.253906 2.734375 -2.171875 C 2.898438 -2.097656 3.039062 -1.984375 3.15625 -1.828125 C 3.28125 -1.671875 3.34375 -1.46875 3.34375 -1.21875 C 3.34375 -0.988281 3.28125 -0.773438 3.15625 -0.578125 C 3.039062 -0.390625 2.867188 -0.238281 2.640625 -0.125 C 2.421875 -0.0078125 2.15625 0.046875 1.84375 0.046875 Z M 1.84375 0.046875 "/></g></g></g><g fill="#000000" fill-opacity="1"><g transform="translate(172.094566, 229.764332)"><g/></g></g><g fill="#000000" fill-opacity="1"><g transform="translate(173.334586, 229.764332)"><g><path d="M 1.359375 -3.296875 L 1.359375 -2.46875 L 2.703125 -2.46875 L 2.703125 -1.703125 L 1.359375 -1.703125 L 1.359375 -0.796875 L 2.875 -0.796875 L 2.875 0 L 0.359375 0 L 0.359375 -4.109375 L 2.875 -4.109375 L 2.875 -3.296875 Z M 1.359375 -3.296875 "/></g></g></g><g fill="#000000" fill-opacity="1"><g transform="translate(176.498974, 229.764332)"><g><path d="M 4.21875 -4.109375 L 2.765625 0 L 1.5 0 L 0.046875 -4.109375 L 1.109375 -4.109375 L 2.140625 -1 L 3.15625 -4.109375 Z M 4.21875 -4.109375 "/></g></g></g><g fill="#000000" fill-opacity="1"><g transform="translate(180.76885, 229.764332)"><g><path d="M 1.359375 -3.296875 L 1.359375 -2.46875 L 2.703125 -2.46875 L 2.703125 -1.703125 L 1.359375 -1.703125 L 1.359375 -0.796875 L 2.875 -0.796875 L 2.875 0 L 0.359375 0 L 0.359375 -4.109375 L 2.875 -4.109375 L 2.875 -3.296875 Z M 1.359375 -3.296875 "/></g></g></g><g fill="#000000" fill-opacity="1"><g transform="translate(183.933238, 229.764332)"><g><path d="M 4.03125 0 L 3.03125 0 L 1.359375 -2.53125 L 1.359375 0 L 0.359375 0 L 0.359375 -4.109375 L 1.359375 -4.109375 L 3.03125 -1.5625 L 3.03125 -4.109375 L 4.03125 -4.109375 Z M 4.03125 0 "/></g></g></g><g fill="#000000" fill-opacity="1"><g transform="translate(188.331795, 229.764332)"><g><path d="M 3.3125 -4.109375 L 3.3125 -3.296875 L 2.21875 -3.296875 L 2.21875 0 L 1.234375 0 L 1.234375 -3.296875 L 0.140625 -3.296875 L 0.140625 -4.109375 Z M 3.3125 -4.109375 "/></g></g></g><g fill="#000000" fill-opacity="1"><g transform="translate(191.78864, 229.764332)"><g/></g></g><g fill="#000000" fill-opacity="1"><g transform="translate(193.02866, 229.764332)"><g><path d="M 0.1875 -2.0625 C 0.1875 -2.46875 0.273438 -2.828125 0.453125 -3.140625 C 0.628906 -3.460938 0.875 -3.710938 1.1875 -3.890625 C 1.5 -4.066406 1.851562 -4.15625 2.25 -4.15625 C 2.738281 -4.15625 3.15625 -4.023438 3.5 -3.765625 C 3.851562 -3.503906 4.085938 -3.15625 4.203125 -2.71875 L 3.109375 -2.71875 C 3.023438 -2.882812 2.90625 -3.007812 2.75 -3.09375 C 2.601562 -3.1875 2.4375 -3.234375 2.25 -3.234375 C 1.9375 -3.234375 1.679688 -3.125 1.484375 -2.90625 C 1.296875 -2.695312 1.203125 -2.414062 1.203125 -2.0625 C 1.203125 -1.695312 1.296875 -1.40625 1.484375 -1.1875 C 1.679688 -0.976562 1.9375 -0.875 2.25 -0.875 C 2.4375 -0.875 2.601562 -0.914062 2.75 -1 C 2.90625 -1.09375 3.023438 -1.226562 3.109375 -1.40625 L 4.203125 -1.40625 C 4.085938 -0.957031 3.851562 -0.601562 3.5 -0.34375 C 3.15625 -0.09375 2.738281 0.03125 2.25 0.03125 C 1.851562 0.03125 1.5 -0.0546875 1.1875 -0.234375 C 0.875 -0.410156 0.628906 -0.65625 0.453125 -0.96875 C 0.273438 -1.289062 0.1875 -1.65625 0.1875 -2.0625 Z M 0.1875 -2.0625 "/></g></g></g><g fill="#000000" fill-opacity="1"><g transform="translate(197.485711, 229.764332)"><g><path d="M 1.359375 -3.296875 L 1.359375 -2.46875 L 2.703125 -2.46875 L 2.703125 -1.703125 L 1.359375 -1.703125 L 1.359375 -0.796875 L 2.875 -0.796875 L 2.875 0 L 0.359375 0 L 0.359375 -4.109375 L 2.875 -4.109375 L 2.875 -3.296875 Z M 1.359375 -3.296875 "/></g></g></g><g fill="#000000" fill-opacity="1"><g transform="translate(200.650099, 229.764332)"><g><path d="M 4.03125 0 L 3.03125 0 L 1.359375 -2.53125 L 1.359375 0 L 0.359375 0 L 0.359375 -4.109375 L 1.359375 -4.109375 L 3.03125 -1.5625 L 3.03125 -4.109375 L 4.03125 -4.109375 Z M 4.03125 0 "/></g></g></g><g fill="#000000" fill-opacity="1"><g transform="translate(205.048656, 229.764332)"><g><path d="M 3.3125 -4.109375 L 3.3125 -3.296875 L 2.21875 -3.296875 L 2.21875 0 L 1.234375 0 L 1.234375 -3.296875 L 0.140625 -3.296875 L 0.140625 -4.109375 Z M 3.3125 -4.109375 "/></g></g></g><g fill="#000000" fill-opacity="1"><g transform="translate(208.505504, 229.764332)"><g><path d="M 1.359375 -3.296875 L 1.359375 -2.46875 L 2.703125 -2.46875 L 2.703125 -1.703125 L 1.359375 -1.703125 L 1.359375 -0.796875 L 2.875 -0.796875 L 2.875 0 L 0.359375 0 L 0.359375 -4.109375 L 2.875 -4.109375 L 2.875 -3.296875 Z M 1.359375 -3.296875 "/></g></g></g><g fill="#000000" fill-opacity="1"><g transform="translate(211.669892, 229.764332)"><g><path d="M 2.453125 0 L 1.59375 -1.546875 L 1.359375 -1.546875 L 1.359375 0 L 0.359375 0 L 0.359375 -4.109375 L 2.046875 -4.109375 C 2.367188 -4.109375 2.640625 -4.050781 2.859375 -3.9375 C 3.085938 -3.820312 3.257812 -3.664062 3.375 -3.46875 C 3.488281 -3.269531 3.546875 -3.050781 3.546875 -2.8125 C 3.546875 -2.539062 3.46875 -2.296875 3.3125 -2.078125 C 3.15625 -1.867188 2.929688 -1.71875 2.640625 -1.625 L 3.578125 0 Z M 1.359375 -2.25 L 1.984375 -2.25 C 2.160156 -2.25 2.296875 -2.296875 2.390625 -2.390625 C 2.484375 -2.484375 2.53125 -2.609375 2.53125 -2.765625 C 2.53125 -2.921875 2.484375 -3.039062 2.390625 -3.125 C 2.296875 -3.21875 2.160156 -3.265625 1.984375 -3.265625 L 1.359375 -3.265625 Z M 1.359375 -2.25 "/></g></g></g><g fill="#000000" fill-opacity="1"><g transform="translate(236.319183, 229.633201)"><g><path d="M 0.15625 -3.34375 L 0.15625 -4.265625 L 1.78125 -4.265625 L 1.78125 0 L 0.734375 0 L 0.734375 -3.34375 Z M 0.15625 -3.34375 "/></g></g></g><g fill="#000000" fill-opacity="1"><g transform="translate(238.518462, 229.633201)"><g><path d="M 1.4375 -0.921875 L 0.78125 0.75 L 0.15625 0.75 L 0.484375 -0.921875 Z M 1.4375 -0.921875 "/></g></g></g><g fill="#000000" fill-opacity="1"><g transform="translate(240.197167, 229.633201)"><g><path d="M 3.265625 -3.390625 L 1.4375 -3.390625 L 1.4375 -2.59375 C 1.519531 -2.675781 1.628906 -2.742188 1.765625 -2.796875 C 1.910156 -2.847656 2.0625 -2.875 2.21875 -2.875 C 2.519531 -2.875 2.765625 -2.804688 2.953125 -2.671875 C 3.148438 -2.546875 3.289062 -2.378906 3.375 -2.171875 C 3.46875 -1.960938 3.515625 -1.734375 3.515625 -1.484375 C 3.515625 -1.023438 3.382812 -0.660156 3.125 -0.390625 C 2.863281 -0.128906 2.503906 0 2.046875 0 C 1.734375 0 1.457031 -0.0507812 1.21875 -0.15625 C 0.988281 -0.269531 0.8125 -0.421875 0.6875 -0.609375 C 0.570312 -0.796875 0.503906 -1.015625 0.484375 -1.265625 L 1.46875 -1.265625 C 1.488281 -1.148438 1.539062 -1.050781 1.625 -0.96875 C 1.71875 -0.882812 1.84375 -0.84375 2 -0.84375 C 2.1875 -0.84375 2.320312 -0.898438 2.40625 -1.015625 C 2.5 -1.140625 2.546875 -1.296875 2.546875 -1.484375 C 2.546875 -1.679688 2.5 -1.828125 2.40625 -1.921875 C 2.3125 -2.023438 2.175781 -2.078125 2 -2.078125 C 1.863281 -2.078125 1.753906 -2.046875 1.671875 -1.984375 C 1.585938 -1.921875 1.53125 -1.835938 1.5 -1.734375 L 0.53125 -1.734375 L 0.53125 -4.265625 L 3.265625 -4.265625 Z M 3.265625 -3.390625 "/></g></g></g><g fill="#000000" fill-opacity="1"><g transform="translate(243.999112, 229.633201)"><g><path d="M 0.265625 -2.1875 C 0.265625 -2.863281 0.394531 -3.394531 0.65625 -3.78125 C 0.914062 -4.164062 1.332031 -4.359375 1.90625 -4.359375 C 2.476562 -4.359375 2.894531 -4.164062 3.15625 -3.78125 C 3.414062 -3.394531 3.546875 -2.863281 3.546875 -2.1875 C 3.546875 -1.507812 3.414062 -0.976562 3.15625 -0.59375 C 2.894531 -0.207031 2.476562 -0.015625 1.90625 -0.015625 C 1.332031 -0.015625 0.914062 -0.207031 0.65625 -0.59375 C 0.394531 -0.976562 0.265625 -1.507812 0.265625 -2.1875 Z M 2.5625 -2.1875 C 2.5625 -2.582031 2.519531 -2.882812 2.4375 -3.09375 C 2.351562 -3.3125 2.175781 -3.421875 1.90625 -3.421875 C 1.632812 -3.421875 1.457031 -3.3125 1.375 -3.09375 C 1.289062 -2.882812 1.25 -2.582031 1.25 -2.1875 C 1.25 -1.925781 1.265625 -1.707031 1.296875 -1.53125 C 1.328125 -1.363281 1.390625 -1.222656 1.484375 -1.109375 C 1.578125 -1.003906 1.71875 -0.953125 1.90625 -0.953125 C 2.09375 -0.953125 2.234375 -1.003906 2.328125 -1.109375 C 2.421875 -1.222656 2.484375 -1.363281 2.515625 -1.53125 C 2.546875 -1.707031 2.5625 -1.925781 2.5625 -2.1875 Z M 2.5625 -2.1875 "/></g></g></g><g fill="#000000" fill-opacity="1"><g transform="translate(247.812756, 229.633201)"><g><path d="M 0.265625 -2.1875 C 0.265625 -2.863281 0.394531 -3.394531 0.65625 -3.78125 C 0.914062 -4.164062 1.332031 -4.359375 1.90625 -4.359375 C 2.476562 -4.359375 2.894531 -4.164062 3.15625 -3.78125 C 3.414062 -3.394531 3.546875 -2.863281 3.546875 -2.1875 C 3.546875 -1.507812 3.414062 -0.976562 3.15625 -0.59375 C 2.894531 -0.207031 2.476562 -0.015625 1.90625 -0.015625 C 1.332031 -0.015625 0.914062 -0.207031 0.65625 -0.59375 C 0.394531 -0.976562 0.265625 -1.507812 0.265625 -2.1875 Z M 2.5625 -2.1875 C 2.5625 -2.582031 2.519531 -2.882812 2.4375 -3.09375 C 2.351562 -3.3125 2.175781 -3.421875 1.90625 -3.421875 C 1.632812 -3.421875 1.457031 -3.3125 1.375 -3.09375 C 1.289062 -2.882812 1.25 -2.582031 1.25 -2.1875 C 1.25 -1.925781 1.265625 -1.707031 1.296875 -1.53125 C 1.328125 -1.363281 1.390625 -1.222656 1.484375 -1.109375 C 1.578125 -1.003906 1.71875 -0.953125 1.90625 -0.953125 C 2.09375 -0.953125 2.234375 -1.003906 2.328125 -1.109375 C 2.421875 -1.222656 2.484375 -1.363281 2.515625 -1.53125 C 2.546875 -1.707031 2.5625 -1.925781 2.5625 -2.1875 Z M 2.5625 -2.1875 "/></g></g></g><g fill="#000000" fill-opacity="1"><g transform="translate(251.626399, 229.633201)"><g><path d="M 3.328125 -1.59375 L 2.3125 -1.59375 L 2.3125 -0.5625 L 1.359375 -0.5625 L 1.359375 -1.59375 L 0.34375 -1.59375 L 0.34375 -2.484375 L 1.359375 -2.484375 L 1.359375 -3.53125 L 2.3125 -3.53125 L 2.3125 -2.484375 L 3.328125 -2.484375 Z M 3.328125 -1.59375 "/></g></g></g><g fill="#000000" fill-opacity="1"><g transform="translate(255.299663, 229.633201)"><g/></g></g><g fill="#000000" fill-opacity="1"><g transform="translate(256.539683, 229.633201)"><g><path d="M 3.484375 -2.78125 C 3.484375 -2.539062 3.425781 -2.320312 3.3125 -2.125 C 3.207031 -1.925781 3.039062 -1.765625 2.8125 -1.640625 C 2.59375 -1.523438 2.316406 -1.46875 1.984375 -1.46875 L 1.359375 -1.46875 L 1.359375 0 L 0.359375 0 L 0.359375 -4.109375 L 1.984375 -4.109375 C 2.304688 -4.109375 2.582031 -4.050781 2.8125 -3.9375 C 3.039062 -3.820312 3.207031 -3.664062 3.3125 -3.46875 C 3.425781 -3.269531 3.484375 -3.039062 3.484375 -2.78125 Z M 1.90625 -2.265625 C 2.09375 -2.265625 2.234375 -2.304688 2.328125 -2.390625 C 2.421875 -2.484375 2.46875 -2.613281 2.46875 -2.78125 C 2.46875 -2.945312 2.421875 -3.070312 2.328125 -3.15625 C 2.234375 -3.25 2.09375 -3.296875 1.90625 -3.296875 L 1.359375 -3.296875 L 1.359375 -2.265625 Z M 1.90625 -2.265625 "/></g></g></g><g fill="#000000" fill-opacity="1"><g transform="translate(260.18955, 229.633201)"><g><path d="M 2.921875 -0.71875 L 1.390625 -0.71875 L 1.140625 0 L 0.09375 0 L 1.578125 -4.109375 L 2.734375 -4.109375 L 4.21875 0 L 3.15625 0 Z M 2.65625 -1.5 L 2.15625 -3 L 1.640625 -1.5 Z M 2.65625 -1.5 "/></g></g></g><g fill="#000000" fill-opacity="1"><g transform="translate(264.500368, 229.633201)"><g><path d="M 2.453125 0 L 1.59375 -1.546875 L 1.359375 -1.546875 L 1.359375 0 L 0.359375 0 L 0.359375 -4.109375 L 2.046875 -4.109375 C 2.367188 -4.109375 2.640625 -4.050781 2.859375 -3.9375 C 3.085938 -3.820312 3.257812 -3.664062 3.375 -3.46875 C 3.488281 -3.269531 3.546875 -3.050781 3.546875 -2.8125 C 3.546875 -2.539062 3.46875 -2.296875 3.3125 -2.078125 C 3.15625 -1.867188 2.929688 -1.71875 2.640625 -1.625 L 3.578125 0 Z M 1.359375 -2.25 L 1.984375 -2.25 C 2.160156 -2.25 2.296875 -2.296875 2.390625 -2.390625 C 2.484375 -2.484375 2.53125 -2.609375 2.53125 -2.765625 C 2.53125 -2.921875 2.484375 -3.039062 2.390625 -3.125 C 2.296875 -3.21875 2.160156 -3.265625 1.984375 -3.265625 L 1.359375 -3.265625 Z M 1.359375 -2.25 "/></g></g></g><g fill="#000000" fill-opacity="1"><g transform="translate(268.314012, 229.633201)"><g><path d="M 3.3125 -4.109375 L 3.3125 -3.296875 L 2.21875 -3.296875 L 2.21875 0 L 1.234375 0 L 1.234375 -3.296875 L 0.140625 -3.296875 L 0.140625 -4.109375 Z M 3.3125 -4.109375 "/></g></g></g><g fill="#000000" fill-opacity="1"><g transform="translate(271.770858, 229.633201)"><g><path d="M 1.359375 -4.109375 L 1.359375 0 L 0.359375 0 L 0.359375 -4.109375 Z M 1.359375 -4.109375 "/></g></g></g><g fill="#000000" fill-opacity="1"><g transform="translate(273.496356, 229.633201)"><g><path d="M 0.1875 -2.0625 C 0.1875 -2.46875 0.273438 -2.828125 0.453125 -3.140625 C 0.628906 -3.460938 0.875 -3.710938 1.1875 -3.890625 C 1.5 -4.066406 1.851562 -4.15625 2.25 -4.15625 C 2.738281 -4.15625 3.15625 -4.023438 3.5 -3.765625 C 3.851562 -3.503906 4.085938 -3.15625 4.203125 -2.71875 L 3.109375 -2.71875 C 3.023438 -2.882812 2.90625 -3.007812 2.75 -3.09375 C 2.601562 -3.1875 2.4375 -3.234375 2.25 -3.234375 C 1.9375 -3.234375 1.679688 -3.125 1.484375 -2.90625 C 1.296875 -2.695312 1.203125 -2.414062 1.203125 -2.0625 C 1.203125 -1.695312 1.296875 -1.40625 1.484375 -1.1875 C 1.679688 -0.976562 1.9375 -0.875 2.25 -0.875 C 2.4375 -0.875 2.601562 -0.914062 2.75 -1 C 2.90625 -1.09375 3.023438 -1.226562 3.109375 -1.40625 L 4.203125 -1.40625 C 4.085938 -0.957031 3.851562 -0.601562 3.5 -0.34375 C 3.15625 -0.09375 2.738281 0.03125 2.25 0.03125 C 1.851562 0.03125 1.5 -0.0546875 1.1875 -0.234375 C 0.875 -0.410156 0.628906 -0.65625 0.453125 -0.96875 C 0.273438 -1.289062 0.1875 -1.65625 0.1875 -2.0625 Z M 0.1875 -2.0625 "/></g></g></g><g fill="#000000" fill-opacity="1"><g transform="translate(277.953407, 229.633201)"><g><path d="M 1.359375 -4.109375 L 1.359375 0 L 0.359375 0 L 0.359375 -4.109375 Z M 1.359375 -4.109375 "/></g></g></g><g fill="#000000" fill-opacity="1"><g transform="translate(279.678906, 229.633201)"><g><path d="M 3.484375 -2.78125 C 3.484375 -2.539062 3.425781 -2.320312 3.3125 -2.125 C 3.207031 -1.925781 3.039062 -1.765625 2.8125 -1.640625 C 2.59375 -1.523438 2.316406 -1.46875 1.984375 -1.46875 L 1.359375 -1.46875 L 1.359375 0 L 0.359375 0 L 0.359375 -4.109375 L 1.984375 -4.109375 C 2.304688 -4.109375 2.582031 -4.050781 2.8125 -3.9375 C 3.039062 -3.820312 3.207031 -3.664062 3.3125 -3.46875 C 3.425781 -3.269531 3.484375 -3.039062 3.484375 -2.78125 Z M 1.90625 -2.265625 C 2.09375 -2.265625 2.234375 -2.304688 2.328125 -2.390625 C 2.421875 -2.484375 2.46875 -2.613281 2.46875 -2.78125 C 2.46875 -2.945312 2.421875 -3.070312 2.328125 -3.15625 C 2.234375 -3.25 2.09375 -3.296875 1.90625 -3.296875 L 1.359375 -3.296875 L 1.359375 -2.265625 Z M 1.90625 -2.265625 "/></g></g></g><g fill="#000000" fill-opacity="1"><g transform="translate(283.328772, 229.633201)"><g><path d="M 2.921875 -0.71875 L 1.390625 -0.71875 L 1.140625 0 L 0.09375 0 L 1.578125 -4.109375 L 2.734375 -4.109375 L 4.21875 0 L 3.15625 0 Z M 2.65625 -1.5 L 2.15625 -3 L 1.640625 -1.5 Z M 2.65625 -1.5 "/></g></g></g><g fill="#000000" fill-opacity="1"><g transform="translate(287.639589, 229.633201)"><g><path d="M 4.03125 0 L 3.03125 0 L 1.359375 -2.53125 L 1.359375 0 L 0.359375 0 L 0.359375 -4.109375 L 1.359375 -4.109375 L 3.03125 -1.5625 L 3.03125 -4.109375 L 4.03125 -4.109375 Z M 4.03125 0 "/></g></g></g><g fill="#000000" fill-opacity="1"><g transform="translate(292.038146, 229.633201)"><g><path d="M 3.3125 -4.109375 L 3.3125 -3.296875 L 2.21875 -3.296875 L 2.21875 0 L 1.234375 0 L 1.234375 -3.296875 L 0.140625 -3.296875 L 0.140625 -4.109375 Z M 3.3125 -4.109375 "/></g></g></g><g fill="#000000" fill-opacity="1"><g transform="translate(295.494994, 229.633201)"><g><path d="M 1.84375 0.046875 C 1.539062 0.046875 1.269531 0 1.03125 -0.09375 C 0.800781 -0.195312 0.613281 -0.34375 0.46875 -0.53125 C 0.320312 -0.726562 0.25 -0.960938 0.25 -1.234375 L 1.3125 -1.234375 C 1.320312 -1.078125 1.367188 -0.957031 1.453125 -0.875 C 1.546875 -0.800781 1.664062 -0.765625 1.8125 -0.765625 C 1.96875 -0.765625 2.085938 -0.796875 2.171875 -0.859375 C 2.253906 -0.929688 2.296875 -1.023438 2.296875 -1.140625 C 2.296875 -1.242188 2.257812 -1.328125 2.1875 -1.390625 C 2.125 -1.460938 2.039062 -1.519531 1.9375 -1.5625 C 1.84375 -1.601562 1.703125 -1.648438 1.515625 -1.703125 C 1.253906 -1.785156 1.039062 -1.867188 0.875 -1.953125 C 0.707031 -2.035156 0.5625 -2.15625 0.4375 -2.3125 C 0.3125 -2.46875 0.25 -2.675781 0.25 -2.9375 C 0.25 -3.320312 0.390625 -3.617188 0.671875 -3.828125 C 0.953125 -4.046875 1.3125 -4.15625 1.75 -4.15625 C 2.207031 -4.15625 2.570312 -4.046875 2.84375 -3.828125 C 3.125 -3.617188 3.273438 -3.320312 3.296875 -2.9375 L 2.203125 -2.9375 C 2.203125 -3.0625 2.15625 -3.160156 2.0625 -3.234375 C 1.96875 -3.316406 1.851562 -3.359375 1.71875 -3.359375 C 1.59375 -3.359375 1.492188 -3.328125 1.421875 -3.265625 C 1.347656 -3.203125 1.3125 -3.109375 1.3125 -2.984375 C 1.3125 -2.847656 1.375 -2.742188 1.5 -2.671875 C 1.625 -2.597656 1.820312 -2.519531 2.09375 -2.4375 C 2.351562 -2.34375 2.566406 -2.253906 2.734375 -2.171875 C 2.898438 -2.097656 3.039062 -1.984375 3.15625 -1.828125 C 3.28125 -1.671875 3.34375 -1.46875 3.34375 -1.21875 C 3.34375 -0.988281 3.28125 -0.773438 3.15625 -0.578125 C 3.039062 -0.390625 2.867188 -0.238281 2.640625 -0.125 C 2.421875 -0.0078125 2.15625 0.046875 1.84375 0.046875 Z M 1.84375 0.046875 "/></g></g></g><g clip-path="url(#62331a2964)"><path fill="#eeba2b" d="M 119.214844 161.625 L 117.0625 161.625 L 117.0625 158.414062 C 117.0625 157.640625 116.433594 157.019531 115.667969 157.019531 C 114.894531 157.019531 114.273438 157.648438 114.273438 158.414062 L 114.273438 161.632812 L 95.097656 161.632812 L 95.097656 158.414062 C 95.097656 157.640625 94.46875 157.019531 93.699219 157.019531 C 92.929688 157.019531 92.304688 157.648438 92.304688 158.414062 L 92.304688 161.632812 L 90.949219 161.632812 C 86.539062 161.632812 82.964844 165.207031 82.964844 169.617188 L 82.964844 195.300781 C 82.964844 199.710938 86.539062 203.285156 90.949219 203.285156 L 119.214844 203.285156 C 123.625 203.285156 127.199219 199.710938 127.199219 195.300781 L 127.199219 169.617188 C 127.203125 165.207031 123.625 161.625 119.214844 161.625 Z M 114.265625 163.101562 L 114.265625 166 C 114.265625 166.773438 114.894531 167.398438 115.660156 167.398438 C 116.433594 167.398438 117.058594 166.769531 117.058594 166 L 117.058594 163.210938 C 117.949219 163.730469 118.554688 164.699219 118.554688 165.804688 C 118.554688 167.460938 117.210938 168.804688 115.558594 168.804688 C 113.902344 168.804688 112.558594 167.460938 112.558594 165.804688 C 112.570312 164.613281 113.261719 163.585938 114.265625 163.101562 Z M 92.300781 163.152344 L 92.300781 166 C 92.300781 166.773438 92.929688 167.398438 93.695312 167.398438 C 94.46875 167.398438 95.089844 166.769531 95.089844 166 L 95.089844 163.152344 C 96.042969 163.65625 96.6875 164.652344 96.6875 165.800781 C 96.6875 167.453125 95.34375 168.796875 93.6875 168.796875 C 92.035156 168.796875 90.691406 167.453125 90.691406 165.800781 C 90.703125 164.652344 91.355469 163.65625 92.300781 163.152344 Z M 124.40625 195.296875 C 124.40625 198.160156 122.078125 200.484375 119.21875 200.484375 L 90.949219 200.484375 C 88.085938 200.484375 85.761719 198.15625 85.761719 195.296875 L 85.761719 174.019531 L 124.40625 174.019531 Z M 124.40625 195.296875 " fill-opacity="1" fill-rule="nonzero"/></g><path fill="#eeba2b" d="M 95.136719 182.074219 L 91.269531 182.074219 C 90.957031 182.074219 90.703125 181.820312 90.703125 181.511719 L 90.703125 177.640625 C 90.703125 177.332031 90.957031 177.078125 91.269531 177.078125 L 95.136719 177.078125 C 95.449219 177.078125 95.703125 177.332031 95.703125 177.640625 L 95.703125 181.511719 C 95.695312 181.820312 95.449219 182.074219 95.136719 182.074219 Z M 95.136719 182.074219 " fill-opacity="1" fill-rule="nonzero"/><path fill="#eeba2b" d="M 95.136719 190.007812 L 91.269531 190.007812 C 90.957031 190.007812 90.703125 189.753906 90.703125 189.445312 L 90.703125 185.574219 C 90.703125 185.265625 90.957031 185.011719 91.269531 185.011719 L 95.136719 185.011719 C 95.449219 185.011719 95.703125 185.265625 95.703125 185.574219 L 95.703125 189.445312 C 95.695312 189.761719 95.449219 190.007812 95.136719 190.007812 Z M 95.136719 190.007812 " fill-opacity="1" fill-rule="nonzero"/><path fill="#eeba2b" d="M 95.136719 197.949219 L 91.269531 197.949219 C 90.957031 197.949219 90.703125 197.695312 90.703125 197.382812 L 90.703125 193.515625 C 90.703125 193.203125 90.957031 192.949219 91.269531 192.949219 L 95.136719 192.949219 C 95.449219 192.949219 95.703125 193.203125 95.703125 193.515625 L 95.703125 197.390625 C 95.695312 197.695312 95.449219 197.949219 95.136719 197.949219 Z M 95.136719 197.949219 " fill-opacity="1" fill-rule="nonzero"/><path fill="#eeba2b" d="M 103.070312 182.074219 L 99.199219 182.074219 C 98.890625 182.074219 98.636719 181.820312 98.636719 181.511719 L 98.636719 177.640625 C 98.636719 177.332031 98.890625 177.078125 99.199219 177.078125 L 103.070312 177.078125 C 103.382812 177.078125 103.632812 177.332031 103.632812 177.640625 L 103.632812 181.511719 C 103.632812 181.820312 103.382812 182.074219 103.070312 182.074219 Z M 103.070312 182.074219 " fill-opacity="1" fill-rule="nonzero"/><path fill="#eeba2b" d="M 103.070312 190.007812 L 99.199219 190.007812 C 98.890625 190.007812 98.636719 189.753906 98.636719 189.445312 L 98.636719 185.574219 C 98.636719 185.265625 98.890625 185.011719 99.199219 185.011719 L 103.070312 185.011719 C 103.382812 185.011719 103.632812 185.265625 103.632812 185.574219 L 103.632812 189.445312 C 103.632812 189.761719 103.382812 190.007812 103.070312 190.007812 Z M 103.070312 190.007812 " fill-opacity="1" fill-rule="nonzero"/><path fill="#eeba2b" d="M 103.070312 197.949219 L 99.199219 197.949219 C 98.890625 197.949219 98.636719 197.695312 98.636719 197.382812 L 98.636719 193.515625 C 98.636719 193.203125 98.890625 192.949219 99.199219 192.949219 L 103.070312 192.949219 C 103.382812 192.949219 103.632812 193.203125 103.632812 193.515625 L 103.632812 197.390625 C 103.632812 197.695312 103.382812 197.949219 103.070312 197.949219 Z M 103.070312 197.949219 " fill-opacity="1" fill-rule="nonzero"/><path fill="#eeba2b" d="M 111.007812 182.074219 L 107.140625 182.074219 C 106.828125 182.074219 106.574219 181.820312 106.574219 181.511719 L 106.574219 177.640625 C 106.574219 177.332031 106.828125 177.078125 107.140625 177.078125 L 111.007812 177.078125 C 111.320312 177.078125 111.574219 177.332031 111.574219 177.640625 L 111.574219 181.511719 C 111.566406 181.820312 111.320312 182.074219 111.007812 182.074219 Z M 111.007812 182.074219 " fill-opacity="1" fill-rule="nonzero"/><path fill="#eeba2b" d="M 111.007812 190.007812 L 107.140625 190.007812 C 106.828125 190.007812 106.574219 189.753906 106.574219 189.445312 L 106.574219 185.574219 C 106.574219 185.265625 106.828125 185.011719 107.140625 185.011719 L 111.007812 185.011719 C 111.320312 185.011719 111.574219 185.265625 111.574219 185.574219 L 111.574219 189.445312 C 111.566406 189.761719 111.320312 190.007812 111.007812 190.007812 Z M 111.007812 190.007812 " fill-opacity="1" fill-rule="nonzero"/><path fill="#eeba2b" d="M 111.007812 197.949219 L 107.140625 197.949219 C 106.828125 197.949219 106.574219 197.695312 106.574219 197.382812 L 106.574219 193.515625 C 106.574219 193.203125 106.828125 192.949219 107.140625 192.949219 L 111.007812 192.949219 C 111.320312 192.949219 111.574219 193.203125 111.574219 193.515625 L 111.574219 197.390625 C 111.566406 197.695312 111.320312 197.949219 111.007812 197.949219 Z M 111.007812 197.949219 " fill-opacity="1" fill-rule="nonzero"/><path fill="#eeba2b" d="M 118.949219 182.074219 L 115.078125 182.074219 C 114.769531 182.074219 114.515625 181.820312 114.515625 181.511719 L 114.515625 177.640625 C 114.515625 177.332031 114.769531 177.078125 115.078125 177.078125 L 118.949219 177.078125 C 119.257812 177.078125 119.511719 177.332031 119.511719 177.640625 L 119.511719 181.511719 C 119.507812 181.820312 119.253906 182.074219 118.949219 182.074219 Z M 118.949219 182.074219 " fill-opacity="1" fill-rule="nonzero"/><path fill="#eeba2b" d="M 118.949219 190.007812 L 115.078125 190.007812 C 114.769531 190.007812 114.515625 189.753906 114.515625 189.445312 L 114.515625 185.574219 C 114.515625 185.265625 114.769531 185.011719 115.078125 185.011719 L 118.949219 185.011719 C 119.257812 185.011719 119.511719 185.265625 119.511719 185.574219 L 119.511719 189.445312 C 119.507812 189.761719 119.253906 190.007812 118.949219 190.007812 Z M 118.949219 190.007812 " fill-opacity="1" fill-rule="nonzero"/><path fill="#eeba2b" d="M 186.367188 164.859375 C 182.746094 164.859375 179.808594 167.796875 179.808594 171.417969 C 179.808594 175.042969 182.746094 177.980469 186.367188 177.980469 C 189.992188 177.980469 192.925781 175.042969 192.925781 171.417969 C 192.925781 167.796875 189.992188 164.859375 186.367188 164.859375 " fill-opacity="1" fill-rule="nonzero"/><g clip-path="url(#c9b30011d9)"><path fill="#eeba2b" d="M 186.367188 196.890625 C 186.367188 196.890625 174.058594 180.140625 174.058594 173.339844 C 174.058594 166.542969 179.570312 161.03125 186.367188 161.03125 C 193.167969 161.03125 198.679688 166.542969 198.679688 173.339844 C 198.679688 180.140625 186.367188 196.890625 186.367188 196.890625 Z M 186.367188 152.84375 C 171.28125 152.84375 159.046875 165.074219 159.046875 180.160156 C 159.046875 195.25 171.28125 207.480469 186.367188 207.480469 C 201.457031 207.480469 213.6875 195.25 213.6875 180.160156 C 213.6875 165.074219 201.457031 152.84375 186.367188 152.84375 " fill-opacity="1" fill-rule="nonzero"/></g><g clip-path="url(#2dd8ef4f93)"><path fill="#eeba2b" d="M 267.644531 205.296875 C 253.78125 205.296875 242.503906 194.019531 242.503906 180.15625 C 242.503906 166.296875 253.78125 155.019531 267.644531 155.019531 C 281.503906 155.019531 292.78125 166.296875 292.78125 180.15625 C 292.78125 194.019531 281.503906 205.296875 267.644531 205.296875 Z M 267.644531 152.839844 C 252.582031 152.839844 240.328125 165.09375 240.328125 180.15625 C 240.328125 195.21875 252.582031 207.472656 267.644531 207.472656 C 282.707031 207.472656 294.960938 195.21875 294.960938 180.15625 C 294.960938 165.09375 282.707031 152.839844 267.644531 152.839844 " fill-opacity="1" fill-rule="nonzero"/></g><path fill="#eeba2b" d="M 267.640625 179.386719 C 270.824219 179.386719 273.40625 176.621094 273.40625 173.210938 C 273.40625 169.804688 270.824219 167.039062 267.640625 167.039062 C 264.460938 167.039062 261.878906 169.804688 261.878906 173.210938 C 261.878906 176.621094 264.460938 179.386719 267.640625 179.386719 " fill-opacity="1" fill-rule="nonzero"/><path fill="#eeba2b" d="M 271.128906 181.8125 L 264.15625 181.8125 C 260.296875 181.8125 257.171875 184.941406 257.171875 188.796875 L 257.171875 191.101562 C 257.171875 193.03125 258.738281 194.597656 260.667969 194.597656 L 274.617188 194.597656 C 276.546875 194.597656 278.113281 193.03125 278.113281 191.101562 L 278.113281 188.796875 C 278.113281 184.941406 274.984375 181.8125 271.128906 181.8125 " fill-opacity="1" fill-rule="nonzero"/><path fill="#eeba2b" d="M 278.59375 179.730469 C 281.007812 179.730469 282.96875 177.628906 282.96875 175.039062 C 282.96875 172.453125 281.007812 170.351562 278.59375 170.351562 C 276.175781 170.351562 274.214844 172.453125 274.214844 175.039062 C 274.214844 177.628906 276.175781 179.730469 278.59375 179.730469 " fill-opacity="1" fill-rule="nonzero"/><path fill="#eeba2b" d="M 256.691406 179.730469 C 259.109375 179.730469 261.070312 177.628906 261.070312 175.039062 C 261.070312 172.453125 259.109375 170.351562 256.691406 170.351562 C 254.273438 170.351562 252.316406 172.453125 252.316406 175.039062 C 252.316406 177.628906 254.273438 179.730469 256.691406 179.730469 " fill-opacity="1" fill-rule="nonzero"/><path fill="#eeba2b" d="M 260.480469 181.699219 C 260.113281 181.617188 259.734375 181.574219 259.34375 181.574219 L 254.042969 181.574219 C 251.113281 181.574219 248.738281 183.949219 248.738281 186.878906 L 248.738281 188.628906 C 248.738281 190.09375 249.929688 191.285156 251.394531 191.285156 L 256.007812 191.285156 L 256.007812 188.882812 C 256.007812 185.730469 257.832031 183.003906 260.480469 181.699219 " fill-opacity="1" fill-rule="nonzero"/><path fill="#eeba2b" d="M 281.242188 181.574219 L 275.941406 181.574219 C 275.550781 181.574219 275.171875 181.617188 274.804688 181.699219 C 277.453125 183.003906 279.277344 185.730469 279.277344 188.882812 L 279.277344 191.285156 L 283.890625 191.285156 C 285.355469 191.285156 286.546875 190.09375 286.546875 188.628906 L 286.546875 186.878906 C 286.546875 183.949219 284.171875 181.574219 281.242188 181.574219 " fill-opacity="1" fill-rule="nonzero"/></svg>