<svg xmlns="http://www.w3.org/2000/svg" xmlns:xlink="http://www.w3.org/1999/xlink" width="200" viewBox="0 0 375 374.999991" height="500" preserveAspectRatio="xMidYMid meet" version="1.0"><path fill="#eeba2b" d="M 191.582031 250.222656 L 191.582031 269.890625 L 208.261719 276.003906 L 208.261719 256.339844 Z M 191.582031 211.835938 L 191.582031 231.503906 L 208.261719 237.617188 L 208.261719 217.953125 Z M 274.882812 188.992188 L 238.246094 212.808594 L 238.246094 311.117188 C 250.699219 312.519531 262.9375 314.417969 274.882812 316.796875 Z M 191.582031 173.476562 L 191.582031 193.113281 L 208.261719 199.234375 L 208.261719 179.589844 Z M 87.570312 167.960938 L 50.914062 191.777344 L 50.914062 328.101562 C 62.632812 324.339844 74.894531 321.085938 87.570312 318.371094 Z M 224.769531 147.28125 L 224.769531 166.921875 L 241.453125 173.042969 L 241.453125 153.402344 Z M 191.582031 135.09375 L 191.582031 154.761719 L 208.261719 160.878906 L 208.261719 141.214844 Z M 224.769531 108.894531 L 224.769531 128.566406 L 241.453125 134.660156 L 241.453125 115.019531 Z M 191.582031 96.714844 L 191.582031 116.378906 L 208.261719 122.492188 L 208.261719 102.828125 Z M 224.769531 70.515625 L 224.769531 90.183594 L 241.453125 96.300781 L 241.453125 76.632812 Z M 191.582031 58.328125 L 191.582031 77.996094 L 208.261719 84.109375 L 208.261719 64.445312 Z M 169.441406 39.492188 L 132.78125 63.304688 L 132.78125 310.988281 C 144.871094 309.703125 157.109375 308.851562 169.441406 308.492188 Z M 177.109375 25.304688 L 255.671875 54.121094 L 255.671875 175.617188 L 219.285156 199.28125 L 219.285156 309.460938 C 223.019531 309.679688 226.785156 309.96875 230.523438 310.289062 L 230.523438 208.628906 L 282.578125 174.8125 L 326.910156 203.636719 L 326.910156 330.605469 C 342.472656 336 356.945312 342.234375 370.046875 349.25 L 0.0742188 349.25 C 13.183594 342.289062 27.65625 336.074219 43.195312 330.730469 L 43.195312 187.609375 L 95.25 153.785156 L 125.082031 173.160156 L 125.082031 59.152344 Z M 177.109375 25.304688 " fill-opacity="1" fill-rule="evenodd"/></svg>