<svg xmlns="http://www.w3.org/2000/svg" xmlns:xlink="http://www.w3.org/1999/xlink" width="64" zoomAndPan="magnify" viewBox="0 0 48 48" height="64" preserveAspectRatio="xMidYMid meet" version="1.0"><defs><clipPath id="86a6dfd5ea"><path d="M 46 4 L 47.507812 4 L 47.507812 44 L 46 44 Z M 46 4 " clip-rule="nonzero"/></clipPath><clipPath id="0dfab2bb9e"><path d="M 3.199219 5.792969 L 44.664062 5.792969 L 44.664062 42.320312 L 3.199219 42.320312 Z M 3.199219 5.792969 " clip-rule="nonzero"/></clipPath></defs><g clip-path="url(#86a6dfd5ea)"><path stroke-linecap="butt" transform="matrix(0, -0.246817, 0.246817, 0, 46.767854, 43.527507)" fill="none" stroke-linejoin="miter" d="M 0.000661645 1.494488 L 157.316019 1.494488 " stroke="#ffffff" stroke-width="3" stroke-opacity="1" stroke-miterlimit="4"/></g><g clip-path="url(#0dfab2bb9e)"><path fill="#eeba2b" d="M 24.601562 31.121094 L 24.601562 33.320312 L 26.464844 34.003906 L 26.464844 31.804688 Z M 24.601562 26.835938 L 24.601562 29.03125 L 26.464844 29.714844 L 26.464844 27.515625 Z M 33.90625 24.28125 L 29.8125 26.941406 L 29.8125 37.925781 C 31.203125 38.082031 32.570312 38.292969 33.90625 38.558594 Z M 24.601562 22.550781 L 24.601562 24.742188 L 26.464844 25.425781 L 26.464844 23.230469 Z M 12.980469 21.933594 L 8.886719 24.59375 L 8.886719 39.820312 C 10.195312 39.402344 11.566406 39.039062 12.980469 38.734375 Z M 28.308594 19.625 L 28.308594 21.816406 L 30.171875 22.5 L 30.171875 20.308594 Z M 24.601562 18.261719 L 24.601562 20.457031 L 26.464844 21.140625 L 26.464844 18.945312 Z M 28.308594 15.335938 L 28.308594 17.53125 L 30.171875 18.214844 L 30.171875 16.019531 Z M 24.601562 13.972656 L 24.601562 16.171875 L 26.464844 16.855469 L 26.464844 14.65625 Z M 28.308594 11.046875 L 28.308594 13.246094 L 30.171875 13.929688 L 30.171875 11.730469 Z M 24.601562 9.6875 L 24.601562 11.882812 L 26.464844 12.566406 L 26.464844 10.371094 Z M 22.128906 7.582031 L 18.03125 10.242188 L 18.03125 37.910156 C 19.382812 37.765625 20.75 37.671875 22.128906 37.632812 Z M 22.984375 5.996094 L 31.761719 9.214844 L 31.761719 22.789062 L 27.695312 25.433594 L 27.695312 37.738281 C 28.113281 37.765625 28.535156 37.796875 28.953125 37.832031 L 28.953125 26.476562 L 34.765625 22.699219 L 39.71875 25.917969 L 39.71875 40.101562 C 41.457031 40.703125 43.074219 41.402344 44.539062 42.183594 L 3.207031 42.183594 C 4.671875 41.40625 6.289062 40.710938 8.023438 40.117188 L 8.023438 24.128906 L 13.839844 20.347656 L 17.171875 22.515625 L 17.171875 9.777344 Z M 22.984375 5.996094 " fill-opacity="1" fill-rule="evenodd"/></g></svg>