<svg xmlns="http://www.w3.org/2000/svg" xmlns:xlink="http://www.w3.org/1999/xlink" width="64" zoomAndPan="magnify" viewBox="0 0 48 48" height="64" preserveAspectRatio="xMidYMid meet" version="1.0"><defs><clipPath id="6e5d45d8b2"><path d="M 0.710938 6 L 47.476562 6 L 47.476562 47 L 0.710938 47 Z M 0.710938 6 " clip-rule="nonzero"/></clipPath></defs><g clip-path="url(#6e5d45d8b2)"><path fill="#003262" d="M 24.847656 34.496094 L 24.847656 36.976562 L 26.949219 37.746094 L 26.949219 35.269531 Z M 24.847656 29.660156 L 24.847656 32.140625 L 26.949219 32.910156 L 26.949219 30.433594 Z M 35.339844 26.785156 L 30.726562 29.785156 L 30.726562 42.167969 C 32.296875 42.347656 33.835938 42.585938 35.339844 42.886719 Z M 24.847656 24.828125 L 24.847656 27.304688 L 26.949219 28.074219 L 26.949219 25.601562 Z M 11.746094 24.132812 L 7.125 27.132812 L 7.125 44.308594 C 8.601562 43.835938 10.148438 43.425781 11.746094 43.082031 Z M 29.027344 21.53125 L 29.027344 24.003906 L 31.128906 24.773438 L 31.128906 22.300781 Z M 24.847656 19.992188 L 24.847656 22.472656 L 26.949219 23.242188 L 26.949219 20.765625 Z M 29.027344 16.695312 L 29.027344 19.171875 L 31.128906 19.9375 L 31.128906 17.464844 Z M 24.847656 15.160156 L 24.847656 17.636719 L 26.949219 18.40625 L 26.949219 15.929688 Z M 29.027344 11.859375 L 29.027344 14.335938 L 31.128906 15.105469 L 31.128906 12.628906 Z M 24.847656 10.324219 L 24.847656 12.800781 L 26.949219 13.570312 L 26.949219 11.09375 Z M 22.058594 7.949219 L 17.441406 10.949219 L 17.441406 42.152344 C 18.960938 41.992188 20.503906 41.882812 22.058594 41.839844 Z M 23.023438 6.164062 L 32.921875 9.792969 L 32.921875 25.097656 L 28.335938 28.082031 L 28.335938 41.960938 C 28.808594 41.988281 29.28125 42.023438 29.753906 42.066406 L 29.753906 29.257812 L 36.3125 24.996094 L 41.894531 28.628906 L 41.894531 44.625 C 43.855469 45.304688 45.679688 46.089844 47.332031 46.972656 L 0.722656 46.972656 C 2.371094 46.097656 4.195312 45.3125 6.152344 44.640625 L 6.152344 26.609375 L 12.710938 22.347656 L 16.46875 24.789062 L 16.46875 10.425781 Z M 23.023438 6.164062 " fill-opacity="1" fill-rule="evenodd"/></g></svg>