<svg xmlns="http://www.w3.org/2000/svg" xmlns:xlink="http://www.w3.org/1999/xlink" width="940" zoomAndPan="magnify" viewBox="0 0 705 591.000005" height="788" preserveAspectRatio="xMidYMid meet" version="1.0"><defs><g/><clipPath id="0c051073ad"><path d="M 57.5 175 L 300 175 L 300 388 L 57.5 388 Z M 57.5 175 " clip-rule="nonzero"/></clipPath></defs><path stroke-linecap="butt" transform="matrix(0, -1.447374, 1.447374, 0, 312.988696, 395.23191)" fill="none" stroke-linejoin="miter" d="M 0.000995863 1.500276 L 157.311758 1.500276 " stroke="#ffffff" stroke-width="3" stroke-opacity="1" stroke-miterlimit="4"/><g clip-path="url(#0c051073ad)"><path fill="#eeba2b" d="M 183 322.484375 L 183 335.371094 L 193.925781 339.375 L 193.925781 326.492188 Z M 183 297.339844 L 183 310.222656 L 193.925781 314.230469 L 193.925781 301.347656 Z M 237.566406 282.375 L 213.566406 297.976562 L 213.566406 362.375 C 221.726562 363.292969 229.742188 364.539062 237.566406 366.097656 Z M 183 272.210938 L 183 285.078125 L 193.925781 289.085938 L 193.925781 276.21875 Z M 114.863281 268.597656 L 90.851562 284.199219 L 90.851562 373.503906 C 98.527344 371.039062 106.5625 368.90625 114.863281 367.128906 Z M 204.738281 255.054688 L 204.738281 267.917969 L 215.667969 271.925781 L 215.667969 259.0625 Z M 183 247.066406 L 183 259.949219 L 193.925781 263.960938 L 193.925781 251.078125 Z M 204.738281 229.90625 L 204.738281 242.792969 L 215.667969 246.785156 L 215.667969 233.917969 Z M 183 221.925781 L 183 234.808594 L 193.925781 238.8125 L 193.925781 225.929688 Z M 204.738281 204.765625 L 204.738281 217.648438 L 215.667969 221.65625 L 215.667969 208.773438 Z M 183 196.78125 L 183 209.664062 L 193.925781 213.671875 L 193.925781 200.785156 Z M 168.496094 184.441406 L 144.480469 200.042969 L 144.480469 362.292969 C 152.398438 361.449219 160.417969 360.890625 168.496094 360.65625 Z M 173.519531 175.148438 L 224.984375 194.027344 L 224.984375 273.613281 L 201.148438 289.117188 L 201.148438 361.292969 C 203.59375 361.433594 206.0625 361.625 208.511719 361.835938 L 208.511719 295.238281 L 242.609375 273.085938 L 271.648438 291.96875 L 271.648438 375.144531 C 281.84375 378.675781 291.324219 382.761719 299.90625 387.355469 L 57.546875 387.355469 C 66.136719 382.796875 75.617188 378.726562 85.792969 375.226562 L 85.792969 281.46875 L 119.894531 259.3125 L 139.4375 272.003906 L 139.4375 197.320312 Z M 173.519531 175.148438 " fill-opacity="1" fill-rule="evenodd"/></g><g fill="#ffffff" fill-opacity="1"><g transform="translate(331.088881, 214.068571)"><g><path d="M 18.828125 -37.765625 C 21.378906 -37.765625 23.65625 -37.195312 25.65625 -36.0625 C 27.65625 -34.9375 29.242188 -33.390625 30.421875 -31.421875 C 31.609375 -29.460938 32.203125 -27.242188 32.203125 -24.765625 C 32.203125 -22.285156 31.617188 -20.0625 30.453125 -18.09375 C 29.285156 -16.132812 27.691406 -14.597656 25.671875 -13.484375 C 23.660156 -12.367188 21.378906 -11.8125 18.828125 -11.8125 L 12.515625 -11.8125 L 12.515625 0 L 4.3125 0 L 4.3125 -37.765625 Z M 18.5 -19.375 C 20.125 -19.375 21.429688 -19.882812 22.421875 -20.90625 C 23.410156 -21.925781 23.90625 -23.210938 23.90625 -24.765625 C 23.90625 -26.347656 23.410156 -27.648438 22.421875 -28.671875 C 21.429688 -29.703125 20.125 -30.21875 18.5 -30.21875 L 12.515625 -30.21875 L 12.515625 -19.375 Z M 18.5 -19.375 "/></g></g></g><g fill="#ffffff" fill-opacity="1"><g transform="translate(364.641917, 214.068571)"><g><path d="M 27.5625 -29.1875 L 33.453125 -29.1875 L 33.453125 -0.046875 L 27.25 -0.046875 L 26.59375 -2.640625 C 25.332031 -1.566406 23.898438 -0.722656 22.296875 -0.109375 C 20.703125 0.503906 18.988281 0.8125 17.15625 0.8125 C 14.238281 0.8125 11.628906 0.140625 9.328125 -1.203125 C 7.023438 -2.554688 5.207031 -4.394531 3.875 -6.71875 C 2.550781 -9.039062 1.890625 -11.675781 1.890625 -14.625 C 1.890625 -17.53125 2.550781 -20.144531 3.875 -22.46875 C 5.207031 -24.789062 7.023438 -26.613281 9.328125 -27.9375 C 11.628906 -29.269531 14.238281 -29.9375 17.15625 -29.9375 C 19.03125 -29.9375 20.773438 -29.625 22.390625 -29 C 24.003906 -28.375 25.441406 -27.503906 26.703125 -26.390625 Z M 17.796875 -6.640625 C 19.316406 -6.640625 20.675781 -6.976562 21.875 -7.65625 C 23.082031 -8.34375 24.023438 -9.285156 24.703125 -10.484375 C 25.390625 -11.691406 25.734375 -13.070312 25.734375 -14.625 C 25.734375 -16.132812 25.390625 -17.488281 24.703125 -18.6875 C 24.023438 -19.894531 23.082031 -20.847656 21.875 -21.546875 C 20.675781 -22.253906 19.316406 -22.609375 17.796875 -22.609375 C 16.253906 -22.609375 14.890625 -22.253906 13.703125 -21.546875 C 12.515625 -20.847656 11.578125 -19.894531 10.890625 -18.6875 C 10.210938 -17.488281 9.875 -16.132812 9.875 -14.625 C 9.875 -13.070312 10.210938 -11.703125 10.890625 -10.515625 C 11.578125 -9.328125 12.515625 -8.382812 13.703125 -7.6875 C 14.890625 -6.988281 16.253906 -6.640625 17.796875 -6.640625 Z M 17.796875 -6.640625 "/></g></g></g><g fill="#ffffff" fill-opacity="1"><g transform="translate(401.863134, 214.068571)"><g><path d="M 36.90625 -29.84375 C 38.914062 -29.84375 40.691406 -29.347656 42.234375 -28.359375 C 43.785156 -27.367188 45 -26.007812 45.875 -24.28125 C 46.757812 -22.550781 47.203125 -20.554688 47.203125 -18.296875 L 47.203125 0 L 39.328125 0 L 39.328125 -17 C 39.328125 -20.957031 37.851562 -22.9375 34.90625 -22.9375 C 33.175781 -22.9375 31.816406 -22.304688 30.828125 -21.046875 C 29.835938 -19.785156 29.34375 -18.019531 29.34375 -15.75 L 29.34375 0 L 21.640625 0 L 21.640625 -17 C 21.640625 -20.957031 20.21875 -22.9375 17.375 -22.9375 C 15.570312 -22.9375 14.164062 -22.304688 13.15625 -21.046875 C 12.15625 -19.785156 11.65625 -18.019531 11.65625 -15.75 L 11.65625 0 L 3.78125 0 L 3.78125 -29.140625 L 9.28125 -29.140625 L 10.734375 -25.515625 C 11.773438 -26.816406 13.0625 -27.863281 14.59375 -28.65625 C 16.125 -29.445312 17.753906 -29.84375 19.484375 -29.84375 C 21.316406 -29.84375 22.96875 -29.425781 24.4375 -28.59375 C 25.914062 -27.769531 27.066406 -26.617188 27.890625 -25.140625 C 28.898438 -26.578125 30.195312 -27.71875 31.78125 -28.5625 C 33.363281 -29.414062 35.070312 -29.84375 36.90625 -29.84375 Z M 36.90625 -29.84375 "/></g></g></g><g fill="#ffffff" fill-opacity="1"><g transform="translate(452.462415, 214.068571)"><g><path d="M 19.6875 -29.9375 C 22.601562 -29.9375 25.210938 -29.269531 27.515625 -27.9375 C 29.816406 -26.613281 31.632812 -24.789062 32.96875 -22.46875 C 34.300781 -20.144531 34.96875 -17.507812 34.96875 -14.5625 C 34.96875 -11.613281 34.300781 -8.976562 32.96875 -6.65625 C 31.632812 -4.34375 29.816406 -2.507812 27.515625 -1.15625 C 25.210938 0.1875 22.601562 0.859375 19.6875 0.859375 C 18.175781 0.859375 16.738281 0.640625 15.375 0.203125 C 14.007812 -0.222656 12.769531 -0.8125 11.65625 -1.5625 L 11.65625 10.515625 L 3.78125 10.515625 L 3.78125 -29.140625 L 9.015625 -29.140625 L 10.359375 -26.484375 C 11.578125 -27.566406 12.976562 -28.410156 14.5625 -29.015625 C 16.144531 -29.628906 17.851562 -29.9375 19.6875 -29.9375 Z M 19.046875 -6.578125 C 20.554688 -6.578125 21.910156 -6.925781 23.109375 -7.625 C 24.316406 -8.332031 25.265625 -9.285156 25.953125 -10.484375 C 26.640625 -11.691406 26.984375 -13.050781 26.984375 -14.5625 C 26.984375 -16.070312 26.640625 -17.429688 25.953125 -18.640625 C 25.265625 -19.847656 24.316406 -20.800781 23.109375 -21.5 C 21.910156 -22.195312 20.554688 -22.546875 19.046875 -22.546875 C 17.492188 -22.546875 16.125 -22.195312 14.9375 -21.5 C 13.757812 -20.800781 12.828125 -19.847656 12.140625 -18.640625 C 11.453125 -17.429688 11.109375 -16.070312 11.109375 -14.5625 C 11.109375 -13.050781 11.453125 -11.691406 12.140625 -10.484375 C 12.828125 -9.285156 13.757812 -8.332031 14.9375 -7.625 C 16.125 -6.925781 17.492188 -6.578125 19.046875 -6.578125 Z M 19.046875 -6.578125 "/></g></g></g><g fill="#ffffff" fill-opacity="1"><g transform="translate(489.252085, 214.068571)"><g><path d="M 27.5625 -29.1875 L 33.453125 -29.1875 L 33.453125 -0.046875 L 27.25 -0.046875 L 26.59375 -2.640625 C 25.332031 -1.566406 23.898438 -0.722656 22.296875 -0.109375 C 20.703125 0.503906 18.988281 0.8125 17.15625 0.8125 C 14.238281 0.8125 11.628906 0.140625 9.328125 -1.203125 C 7.023438 -2.554688 5.207031 -4.394531 3.875 -6.71875 C 2.550781 -9.039062 1.890625 -11.675781 1.890625 -14.625 C 1.890625 -17.53125 2.550781 -20.144531 3.875 -22.46875 C 5.207031 -24.789062 7.023438 -26.613281 9.328125 -27.9375 C 11.628906 -29.269531 14.238281 -29.9375 17.15625 -29.9375 C 19.03125 -29.9375 20.773438 -29.625 22.390625 -29 C 24.003906 -28.375 25.441406 -27.503906 26.703125 -26.390625 Z M 17.796875 -6.640625 C 19.316406 -6.640625 20.675781 -6.976562 21.875 -7.65625 C 23.082031 -8.34375 24.023438 -9.285156 24.703125 -10.484375 C 25.390625 -11.691406 25.734375 -13.070312 25.734375 -14.625 C 25.734375 -16.132812 25.390625 -17.488281 24.703125 -18.6875 C 24.023438 -19.894531 23.082031 -20.847656 21.875 -21.546875 C 20.675781 -22.253906 19.316406 -22.609375 17.796875 -22.609375 C 16.253906 -22.609375 14.890625 -22.253906 13.703125 -21.546875 C 12.515625 -20.847656 11.578125 -19.894531 10.890625 -18.6875 C 10.210938 -17.488281 9.875 -16.132812 9.875 -14.625 C 9.875 -13.070312 10.210938 -11.703125 10.890625 -10.515625 C 11.578125 -9.328125 12.515625 -8.382812 13.703125 -7.6875 C 14.890625 -6.988281 16.253906 -6.640625 17.796875 -6.640625 Z M 17.796875 -6.640625 "/></g></g></g><g fill="#ffffff" fill-opacity="1"><g transform="translate(526.473302, 214.068571)"><g><path d="M 20.390625 -29.84375 C 23.703125 -29.84375 26.316406 -28.734375 28.234375 -26.515625 C 30.160156 -24.304688 31.125 -21.347656 31.125 -17.640625 L 31.125 0 L 23.25 0 L 23.25 -16.40625 C 23.25 -20.757812 21.5625 -22.9375 18.1875 -22.9375 C 16.164062 -22.9375 14.570312 -22.25 13.40625 -20.875 C 12.238281 -19.507812 11.65625 -17.660156 11.65625 -15.328125 L 11.65625 0 L 3.78125 0 L 3.78125 -29.140625 L 9.171875 -29.140625 L 10.734375 -25.515625 C 11.816406 -26.847656 13.203125 -27.898438 14.890625 -28.671875 C 16.578125 -29.453125 18.410156 -29.84375 20.390625 -29.84375 Z M 20.390625 -29.84375 "/></g></g></g><g fill="#ffffff" fill-opacity="1"><g transform="translate(561.051276, 214.068571)"><g><path d="M 27.296875 -29.140625 L 32.421875 -29.140625 L 32.421875 -3.40625 C 32.421875 -0.34375 31.816406 2.28125 30.609375 4.46875 C 29.410156 6.664062 27.695312 8.359375 25.46875 9.546875 C 23.238281 10.734375 20.59375 11.328125 17.53125 11.328125 C 13.570312 11.328125 10.269531 10.375 7.625 8.46875 C 4.988281 6.5625 3.347656 3.953125 2.703125 0.640625 L 10.515625 0.640625 C 10.953125 1.941406 11.84375 2.925781 13.1875 3.59375 C 14.539062 4.257812 15.9375 4.59375 17.375 4.59375 C 19.382812 4.59375 21.097656 3.988281 22.515625 2.78125 C 23.941406 1.570312 24.65625 -0.109375 24.65625 -2.265625 L 24.65625 -3.34375 C 23.507812 -2.519531 22.234375 -1.878906 20.828125 -1.421875 C 19.421875 -0.972656 17.925781 -0.75 16.34375 -0.75 C 13.644531 -0.75 11.195312 -1.394531 9 -2.6875 C 6.8125 -3.988281 5.078125 -5.734375 3.796875 -7.921875 C 2.523438 -10.117188 1.890625 -12.585938 1.890625 -15.328125 C 1.890625 -18.054688 2.523438 -20.523438 3.796875 -22.734375 C 5.078125 -24.953125 6.8125 -26.707031 9 -28 C 11.195312 -29.289062 13.644531 -29.9375 16.34375 -29.9375 C 18.25 -29.9375 20.03125 -29.613281 21.6875 -28.96875 C 23.34375 -28.320312 24.800781 -27.40625 26.0625 -26.21875 Z M 17.265625 -7.765625 C 19.421875 -7.765625 21.195312 -8.472656 22.59375 -9.890625 C 24 -11.316406 24.703125 -13.128906 24.703125 -15.328125 C 24.703125 -17.484375 24.007812 -19.269531 22.625 -20.6875 C 21.25 -22.113281 19.460938 -22.828125 17.265625 -22.828125 C 15.140625 -22.828125 13.375 -22.113281 11.96875 -20.6875 C 10.570312 -19.269531 9.875 -17.484375 9.875 -15.328125 C 9.875 -13.128906 10.566406 -11.316406 11.953125 -9.890625 C 13.335938 -8.472656 15.109375 -7.765625 17.265625 -7.765625 Z M 17.265625 -7.765625 "/></g></g></g><g fill="#ffffff" fill-opacity="1"><g transform="translate(597.247543, 214.068571)"><g><path d="M 27.5625 -29.1875 L 33.453125 -29.1875 L 33.453125 -0.046875 L 27.25 -0.046875 L 26.59375 -2.640625 C 25.332031 -1.566406 23.898438 -0.722656 22.296875 -0.109375 C 20.703125 0.503906 18.988281 0.8125 17.15625 0.8125 C 14.238281 0.8125 11.628906 0.140625 9.328125 -1.203125 C 7.023438 -2.554688 5.207031 -4.394531 3.875 -6.71875 C 2.550781 -9.039062 1.890625 -11.675781 1.890625 -14.625 C 1.890625 -17.53125 2.550781 -20.144531 3.875 -22.46875 C 5.207031 -24.789062 7.023438 -26.613281 9.328125 -27.9375 C 11.628906 -29.269531 14.238281 -29.9375 17.15625 -29.9375 C 19.03125 -29.9375 20.773438 -29.625 22.390625 -29 C 24.003906 -28.375 25.441406 -27.503906 26.703125 -26.390625 Z M 17.796875 -6.640625 C 19.316406 -6.640625 20.675781 -6.976562 21.875 -7.65625 C 23.082031 -8.34375 24.023438 -9.285156 24.703125 -10.484375 C 25.390625 -11.691406 25.734375 -13.070312 25.734375 -14.625 C 25.734375 -16.132812 25.390625 -17.488281 24.703125 -18.6875 C 24.023438 -19.894531 23.082031 -20.847656 21.875 -21.546875 C 20.675781 -22.253906 19.316406 -22.609375 17.796875 -22.609375 C 16.253906 -22.609375 14.890625 -22.253906 13.703125 -21.546875 C 12.515625 -20.847656 11.578125 -19.894531 10.890625 -18.6875 C 10.210938 -17.488281 9.875 -16.132812 9.875 -14.625 C 9.875 -13.070312 10.210938 -11.703125 10.890625 -10.515625 C 11.578125 -9.328125 12.515625 -8.382812 13.703125 -7.6875 C 14.890625 -6.988281 16.253906 -6.640625 17.796875 -6.640625 Z M 17.796875 -6.640625 "/></g></g></g><g fill="#ffffff" fill-opacity="1"><g transform="translate(331.088881, 269.474819)"><g><path d="M 27.03125 -19.90625 C 28.6875 -19.039062 29.972656 -17.828125 30.890625 -16.265625 C 31.804688 -14.703125 32.265625 -12.914062 32.265625 -10.90625 C 32.265625 -8.882812 31.734375 -7.046875 30.671875 -5.390625 C 29.609375 -3.734375 28.164062 -2.421875 26.34375 -1.453125 C 24.53125 -0.484375 22.546875 0 20.390625 0 L 4.3125 0 L 4.3125 -37.765625 L 19.96875 -37.765625 C 22.125 -37.765625 24.054688 -37.34375 25.765625 -36.5 C 27.472656 -35.65625 28.820312 -34.492188 29.8125 -33.015625 C 30.800781 -31.546875 31.296875 -29.894531 31.296875 -28.0625 C 31.296875 -26.4375 30.914062 -24.90625 30.15625 -23.46875 C 29.40625 -22.03125 28.363281 -20.84375 27.03125 -19.90625 Z M 23.359375 -26.765625 C 23.359375 -27.953125 22.976562 -28.921875 22.21875 -29.671875 C 21.46875 -30.429688 20.445312 -30.8125 19.15625 -30.8125 L 12.359375 -30.8125 L 12.359375 -22.765625 L 19.15625 -22.765625 C 20.445312 -22.765625 21.46875 -23.140625 22.21875 -23.890625 C 22.976562 -24.648438 23.359375 -25.609375 23.359375 -26.765625 Z M 19.578125 -7.5 C 20.953125 -7.5 22.039062 -7.894531 22.84375 -8.6875 C 23.65625 -9.476562 24.0625 -10.503906 24.0625 -11.765625 C 24.0625 -12.984375 23.65625 -13.988281 22.84375 -14.78125 C 22.039062 -15.570312 20.953125 -15.96875 19.578125 -15.96875 L 12.359375 -15.96875 L 12.359375 -7.5 Z M 19.578125 -7.5 "/></g></g></g><g fill="#ffffff" fill-opacity="1"><g transform="translate(365.720791, 269.474819)"><g><path d="M 17.109375 0.8125 C 14.367188 0.8125 11.960938 0.265625 9.890625 -0.828125 C 7.828125 -1.929688 6.226562 -3.460938 5.09375 -5.421875 C 3.96875 -7.378906 3.40625 -9.671875 3.40625 -12.296875 L 3.40625 -29.140625 L 11.28125 -29.140625 L 11.28125 -13.21875 C 11.28125 -11.132812 11.789062 -9.503906 12.8125 -8.328125 C 13.832031 -7.160156 15.265625 -6.578125 17.109375 -6.578125 C 18.941406 -6.578125 20.359375 -7.171875 21.359375 -8.359375 C 22.367188 -9.546875 22.875 -11.164062 22.875 -13.21875 L 22.875 -29.140625 L 30.75 -29.140625 L 30.75 -12.296875 C 30.75 -9.671875 30.179688 -7.378906 29.046875 -5.421875 C 27.921875 -3.460938 26.332031 -1.929688 24.28125 -0.828125 C 22.226562 0.265625 19.835938 0.8125 17.109375 0.8125 Z M 17.109375 0.8125 "/></g></g></g><g fill="#ffffff" fill-opacity="1"><g transform="translate(399.867206, 269.474819)"><g><path d="M 14.140625 0.8125 C 11.691406 0.8125 9.550781 0.378906 7.71875 -0.484375 C 5.882812 -1.347656 4.453125 -2.5625 3.421875 -4.125 C 2.398438 -5.6875 1.890625 -7.515625 1.890625 -9.609375 L 9.546875 -9.609375 C 9.585938 -8.304688 10.054688 -7.332031 10.953125 -6.6875 C 11.847656 -6.039062 13 -5.71875 14.40625 -5.71875 C 15.519531 -5.71875 16.488281 -5.957031 17.3125 -6.4375 C 18.144531 -6.925781 18.5625 -7.65625 18.5625 -8.625 C 18.5625 -9.632812 18.007812 -10.347656 16.90625 -10.765625 C 15.8125 -11.179688 14.492188 -11.515625 12.953125 -11.765625 C 11.796875 -11.941406 10.597656 -12.191406 9.359375 -12.515625 C 8.117188 -12.835938 6.976562 -13.304688 5.9375 -13.921875 C 4.894531 -14.535156 4.039062 -15.378906 3.375 -16.453125 C 2.707031 -17.535156 2.375 -18.941406 2.375 -20.671875 C 2.375 -22.503906 2.867188 -24.117188 3.859375 -25.515625 C 4.847656 -26.921875 6.210938 -28.007812 7.953125 -28.78125 C 9.703125 -29.550781 11.765625 -29.9375 14.140625 -29.9375 C 16.472656 -29.9375 18.507812 -29.53125 20.25 -28.71875 C 22 -27.914062 23.359375 -26.785156 24.328125 -25.328125 C 25.304688 -23.867188 25.796875 -22.171875 25.796875 -20.234375 L 18.296875 -20.234375 C 18.296875 -21.378906 17.90625 -22.238281 17.125 -22.8125 C 16.351562 -23.394531 15.285156 -23.6875 13.921875 -23.6875 C 12.691406 -23.6875 11.734375 -23.425781 11.046875 -22.90625 C 10.367188 -22.382812 10.03125 -21.707031 10.03125 -20.875 C 10.03125 -19.90625 10.566406 -19.238281 11.640625 -18.875 C 12.722656 -18.519531 14.019531 -18.21875 15.53125 -17.96875 C 16.71875 -17.75 17.941406 -17.484375 19.203125 -17.171875 C 20.460938 -16.867188 21.628906 -16.410156 22.703125 -15.796875 C 23.785156 -15.191406 24.660156 -14.347656 25.328125 -13.265625 C 25.992188 -12.191406 26.328125 -10.773438 26.328125 -9.015625 C 26.328125 -7.035156 25.820312 -5.304688 24.8125 -3.828125 C 23.8125 -2.359375 22.390625 -1.21875 20.546875 -0.40625 C 18.710938 0.40625 16.578125 0.8125 14.140625 0.8125 Z M 14.140625 0.8125 "/></g></g></g><g fill="#ffffff" fill-opacity="1"><g transform="translate(428.187701, 269.474819)"><g><path d="M 3.78125 -33.015625 L 3.78125 -40.359375 L 11.65625 -40.359375 L 11.65625 -33.015625 Z M 3.78125 0 L 3.78125 -29.140625 L 11.65625 -29.140625 L 11.65625 0 Z M 3.78125 0 "/></g></g></g><g fill="#ffffff" fill-opacity="1"><g transform="translate(443.615628, 269.474819)"><g><path d="M 20.390625 -29.84375 C 23.703125 -29.84375 26.316406 -28.734375 28.234375 -26.515625 C 30.160156 -24.304688 31.125 -21.347656 31.125 -17.640625 L 31.125 0 L 23.25 0 L 23.25 -16.40625 C 23.25 -20.757812 21.5625 -22.9375 18.1875 -22.9375 C 16.164062 -22.9375 14.570312 -22.25 13.40625 -20.875 C 12.238281 -19.507812 11.65625 -17.660156 11.65625 -15.328125 L 11.65625 0 L 3.78125 0 L 3.78125 -29.140625 L 9.171875 -29.140625 L 10.734375 -25.515625 C 11.816406 -26.847656 13.203125 -27.898438 14.890625 -28.671875 C 16.578125 -29.453125 18.410156 -29.84375 20.390625 -29.84375 Z M 20.390625 -29.84375 "/></g></g></g><g fill="#ffffff" fill-opacity="1"><g transform="translate(478.193601, 269.474819)"><g><path d="M 32.046875 -14.671875 C 32.046875 -13.921875 31.992188 -13.148438 31.890625 -12.359375 L 9.875 -12.359375 C 10.195312 -10.378906 10.988281 -8.859375 12.25 -7.796875 C 13.507812 -6.734375 15.09375 -6.203125 17 -6.203125 C 18.363281 -6.203125 19.582031 -6.5 20.65625 -7.09375 C 21.738281 -7.6875 22.566406 -8.503906 23.140625 -9.546875 L 31.453125 -9.546875 C 30.378906 -6.378906 28.546875 -3.859375 25.953125 -1.984375 C 23.359375 -0.117188 20.375 0.8125 17 0.8125 C 14.113281 0.8125 11.53125 0.140625 9.25 -1.203125 C 6.96875 -2.554688 5.171875 -4.394531 3.859375 -6.71875 C 2.546875 -9.039062 1.890625 -11.65625 1.890625 -14.5625 C 1.890625 -17.476562 2.546875 -20.09375 3.859375 -22.40625 C 5.171875 -24.726562 6.96875 -26.5625 9.25 -27.90625 C 11.53125 -29.257812 14.113281 -29.9375 17 -29.9375 C 19.976562 -29.9375 22.597656 -29.242188 24.859375 -27.859375 C 27.128906 -26.484375 28.894531 -24.644531 30.15625 -22.34375 C 31.414062 -20.039062 32.046875 -17.484375 32.046875 -14.671875 Z M 17 -23.25 C 15.226562 -23.25 13.738281 -22.765625 12.53125 -21.796875 C 11.332031 -20.828125 10.519531 -19.476562 10.09375 -17.75 L 24.171875 -17.75 C 23.015625 -21.414062 20.625 -23.25 17 -23.25 Z M 17 -23.25 "/></g></g></g><g fill="#ffffff" fill-opacity="1"><g transform="translate(512.0703, 269.474819)"><g><path d="M 14.140625 0.8125 C 11.691406 0.8125 9.550781 0.378906 7.71875 -0.484375 C 5.882812 -1.347656 4.453125 -2.5625 3.421875 -4.125 C 2.398438 -5.6875 1.890625 -7.515625 1.890625 -9.609375 L 9.546875 -9.609375 C 9.585938 -8.304688 10.054688 -7.332031 10.953125 -6.6875 C 11.847656 -6.039062 13 -5.71875 14.40625 -5.71875 C 15.519531 -5.71875 16.488281 -5.957031 17.3125 -6.4375 C 18.144531 -6.925781 18.5625 -7.65625 18.5625 -8.625 C 18.5625 -9.632812 18.007812 -10.347656 16.90625 -10.765625 C 15.8125 -11.179688 14.492188 -11.515625 12.953125 -11.765625 C 11.796875 -11.941406 10.597656 -12.191406 9.359375 -12.515625 C 8.117188 -12.835938 6.976562 -13.304688 5.9375 -13.921875 C 4.894531 -14.535156 4.039062 -15.378906 3.375 -16.453125 C 2.707031 -17.535156 2.375 -18.941406 2.375 -20.671875 C 2.375 -22.503906 2.867188 -24.117188 3.859375 -25.515625 C 4.847656 -26.921875 6.210938 -28.007812 7.953125 -28.78125 C 9.703125 -29.550781 11.765625 -29.9375 14.140625 -29.9375 C 16.472656 -29.9375 18.507812 -29.53125 20.25 -28.71875 C 22 -27.914062 23.359375 -26.785156 24.328125 -25.328125 C 25.304688 -23.867188 25.796875 -22.171875 25.796875 -20.234375 L 18.296875 -20.234375 C 18.296875 -21.378906 17.90625 -22.238281 17.125 -22.8125 C 16.351562 -23.394531 15.285156 -23.6875 13.921875 -23.6875 C 12.691406 -23.6875 11.734375 -23.425781 11.046875 -22.90625 C 10.367188 -22.382812 10.03125 -21.707031 10.03125 -20.875 C 10.03125 -19.90625 10.566406 -19.238281 11.640625 -18.875 C 12.722656 -18.519531 14.019531 -18.21875 15.53125 -17.96875 C 16.71875 -17.75 17.941406 -17.484375 19.203125 -17.171875 C 20.460938 -16.867188 21.628906 -16.410156 22.703125 -15.796875 C 23.785156 -15.191406 24.660156 -14.347656 25.328125 -13.265625 C 25.992188 -12.191406 26.328125 -10.773438 26.328125 -9.015625 C 26.328125 -7.035156 25.820312 -5.304688 24.8125 -3.828125 C 23.8125 -2.359375 22.390625 -1.21875 20.546875 -0.40625 C 18.710938 0.40625 16.578125 0.8125 14.140625 0.8125 Z M 14.140625 0.8125 "/></g></g></g><g fill="#ffffff" fill-opacity="1"><g transform="translate(540.390807, 269.474819)"><g><path d="M 14.140625 0.8125 C 11.691406 0.8125 9.550781 0.378906 7.71875 -0.484375 C 5.882812 -1.347656 4.453125 -2.5625 3.421875 -4.125 C 2.398438 -5.6875 1.890625 -7.515625 1.890625 -9.609375 L 9.546875 -9.609375 C 9.585938 -8.304688 10.054688 -7.332031 10.953125 -6.6875 C 11.847656 -6.039062 13 -5.71875 14.40625 -5.71875 C 15.519531 -5.71875 16.488281 -5.957031 17.3125 -6.4375 C 18.144531 -6.925781 18.5625 -7.65625 18.5625 -8.625 C 18.5625 -9.632812 18.007812 -10.347656 16.90625 -10.765625 C 15.8125 -11.179688 14.492188 -11.515625 12.953125 -11.765625 C 11.796875 -11.941406 10.597656 -12.191406 9.359375 -12.515625 C 8.117188 -12.835938 6.976562 -13.304688 5.9375 -13.921875 C 4.894531 -14.535156 4.039062 -15.378906 3.375 -16.453125 C 2.707031 -17.535156 2.375 -18.941406 2.375 -20.671875 C 2.375 -22.503906 2.867188 -24.117188 3.859375 -25.515625 C 4.847656 -26.921875 6.210938 -28.007812 7.953125 -28.78125 C 9.703125 -29.550781 11.765625 -29.9375 14.140625 -29.9375 C 16.472656 -29.9375 18.507812 -29.53125 20.25 -28.71875 C 22 -27.914062 23.359375 -26.785156 24.328125 -25.328125 C 25.304688 -23.867188 25.796875 -22.171875 25.796875 -20.234375 L 18.296875 -20.234375 C 18.296875 -21.378906 17.90625 -22.238281 17.125 -22.8125 C 16.351562 -23.394531 15.285156 -23.6875 13.921875 -23.6875 C 12.691406 -23.6875 11.734375 -23.425781 11.046875 -22.90625 C 10.367188 -22.382812 10.03125 -21.707031 10.03125 -20.875 C 10.03125 -19.90625 10.566406 -19.238281 11.640625 -18.875 C 12.722656 -18.519531 14.019531 -18.21875 15.53125 -17.96875 C 16.71875 -17.75 17.941406 -17.484375 19.203125 -17.171875 C 20.460938 -16.867188 21.628906 -16.410156 22.703125 -15.796875 C 23.785156 -15.191406 24.660156 -14.347656 25.328125 -13.265625 C 25.992188 -12.191406 26.328125 -10.773438 26.328125 -9.015625 C 26.328125 -7.035156 25.820312 -5.304688 24.8125 -3.828125 C 23.8125 -2.359375 22.390625 -1.21875 20.546875 -0.40625 C 18.710938 0.40625 16.578125 0.8125 14.140625 0.8125 Z M 14.140625 0.8125 "/></g></g></g><g fill="#ffffff" fill-opacity="1"><g transform="translate(568.711302, 269.474819)"><g/></g></g><g fill="#ffffff" fill-opacity="1"><g transform="translate(581.603869, 269.474819)"><g><path d="M 27.5625 -21.640625 L 27.5625 -14.34375 L 18.609375 -14.34375 L 18.609375 -4.859375 L 10.90625 -4.859375 L 10.90625 -14.34375 L 1.890625 -14.34375 L 1.890625 -21.640625 L 10.90625 -21.640625 L 10.90625 -30.859375 L 18.609375 -30.859375 L 18.609375 -21.640625 Z M 27.5625 -21.640625 "/></g></g></g><g fill="#ffffff" fill-opacity="1"><g transform="translate(331.088881, 324.881067)"><g><path d="M 4.3125 0 L 4.3125 -37.765625 L 12.515625 -37.765625 L 12.515625 0 Z M 4.3125 0 "/></g></g></g><g fill="#ffffff" fill-opacity="1"><g transform="translate(347.919347, 324.881067)"><g><path d="M 20.390625 -29.84375 C 23.703125 -29.84375 26.316406 -28.734375 28.234375 -26.515625 C 30.160156 -24.304688 31.125 -21.347656 31.125 -17.640625 L 31.125 0 L 23.25 0 L 23.25 -16.40625 C 23.25 -20.757812 21.5625 -22.9375 18.1875 -22.9375 C 16.164062 -22.9375 14.570312 -22.25 13.40625 -20.875 C 12.238281 -19.507812 11.65625 -17.660156 11.65625 -15.328125 L 11.65625 0 L 3.78125 0 L 3.78125 -29.140625 L 9.171875 -29.140625 L 10.734375 -25.515625 C 11.816406 -26.847656 13.203125 -27.898438 14.890625 -28.671875 C 16.578125 -29.453125 18.410156 -29.84375 20.390625 -29.84375 Z M 20.390625 -29.84375 "/></g></g></g><g fill="#ffffff" fill-opacity="1"><g transform="translate(382.49732, 324.881067)"><g><path d="M 20.390625 -29.84375 C 23.703125 -29.84375 26.316406 -28.734375 28.234375 -26.515625 C 30.160156 -24.304688 31.125 -21.347656 31.125 -17.640625 L 31.125 0 L 23.25 0 L 23.25 -16.40625 C 23.25 -20.757812 21.5625 -22.9375 18.1875 -22.9375 C 16.164062 -22.9375 14.570312 -22.25 13.40625 -20.875 C 12.238281 -19.507812 11.65625 -17.660156 11.65625 -15.328125 L 11.65625 0 L 3.78125 0 L 3.78125 -29.140625 L 9.171875 -29.140625 L 10.734375 -25.515625 C 11.816406 -26.847656 13.203125 -27.898438 14.890625 -28.671875 C 16.578125 -29.453125 18.410156 -29.84375 20.390625 -29.84375 Z M 20.390625 -29.84375 "/></g></g></g><g fill="#ffffff" fill-opacity="1"><g transform="translate(417.075293, 324.881067)"><g><path d="M 17.640625 0.8125 C 14.617188 0.8125 11.921875 0.140625 9.546875 -1.203125 C 7.171875 -2.554688 5.300781 -4.394531 3.9375 -6.71875 C 2.570312 -9.039062 1.890625 -11.65625 1.890625 -14.5625 C 1.890625 -17.507812 2.570312 -20.144531 3.9375 -22.46875 C 5.300781 -24.789062 7.171875 -26.613281 9.546875 -27.9375 C 11.921875 -29.269531 14.617188 -29.9375 17.640625 -29.9375 C 20.628906 -29.9375 23.3125 -29.269531 25.6875 -27.9375 C 28.0625 -26.613281 29.929688 -24.789062 31.296875 -22.46875 C 32.660156 -20.144531 33.34375 -17.507812 33.34375 -14.5625 C 33.34375 -11.65625 32.660156 -9.039062 31.296875 -6.71875 C 29.929688 -4.394531 28.0625 -2.554688 25.6875 -1.203125 C 23.3125 0.140625 20.628906 0.8125 17.640625 0.8125 Z M 17.640625 -6.578125 C 19.910156 -6.578125 21.765625 -7.3125 23.203125 -8.78125 C 24.640625 -10.257812 25.359375 -12.1875 25.359375 -14.5625 C 25.359375 -16.9375 24.640625 -18.859375 23.203125 -20.328125 C 21.765625 -21.804688 19.910156 -22.546875 17.640625 -22.546875 C 15.335938 -22.546875 13.46875 -21.804688 12.03125 -20.328125 C 10.59375 -18.859375 9.875 -16.9375 9.875 -14.5625 C 9.875 -12.1875 10.59375 -10.257812 12.03125 -8.78125 C 13.46875 -7.3125 15.335938 -6.578125 17.640625 -6.578125 Z M 17.640625 -6.578125 "/></g></g></g><g fill="#ffffff" fill-opacity="1"><g transform="translate(452.300593, 324.881067)"><g><path d="M 22.875 -29.140625 L 31.078125 -29.140625 L 19.484375 0 L 12.1875 0 L 0.375 -29.140625 L 8.734375 -29.140625 L 15.921875 -9.609375 Z M 22.875 -29.140625 "/></g></g></g><g fill="#ffffff" fill-opacity="1"><g transform="translate(483.803764, 324.881067)"><g><path d="M 27.5625 -29.1875 L 33.453125 -29.1875 L 33.453125 -0.046875 L 27.25 -0.046875 L 26.59375 -2.640625 C 25.332031 -1.566406 23.898438 -0.722656 22.296875 -0.109375 C 20.703125 0.503906 18.988281 0.8125 17.15625 0.8125 C 14.238281 0.8125 11.628906 0.140625 9.328125 -1.203125 C 7.023438 -2.554688 5.207031 -4.394531 3.875 -6.71875 C 2.550781 -9.039062 1.890625 -11.675781 1.890625 -14.625 C 1.890625 -17.53125 2.550781 -20.144531 3.875 -22.46875 C 5.207031 -24.789062 7.023438 -26.613281 9.328125 -27.9375 C 11.628906 -29.269531 14.238281 -29.9375 17.15625 -29.9375 C 19.03125 -29.9375 20.773438 -29.625 22.390625 -29 C 24.003906 -28.375 25.441406 -27.503906 26.703125 -26.390625 Z M 17.796875 -6.640625 C 19.316406 -6.640625 20.675781 -6.976562 21.875 -7.65625 C 23.082031 -8.34375 24.023438 -9.285156 24.703125 -10.484375 C 25.390625 -11.691406 25.734375 -13.070312 25.734375 -14.625 C 25.734375 -16.132812 25.390625 -17.488281 24.703125 -18.6875 C 24.023438 -19.894531 23.082031 -20.847656 21.875 -21.546875 C 20.675781 -22.253906 19.316406 -22.609375 17.796875 -22.609375 C 16.253906 -22.609375 14.890625 -22.253906 13.703125 -21.546875 C 12.515625 -20.847656 11.578125 -19.894531 10.890625 -18.6875 C 10.210938 -17.488281 9.875 -16.132812 9.875 -14.625 C 9.875 -13.070312 10.210938 -11.703125 10.890625 -10.515625 C 11.578125 -9.328125 12.515625 -8.382812 13.703125 -7.6875 C 14.890625 -6.988281 16.253906 -6.640625 17.796875 -6.640625 Z M 17.796875 -6.640625 "/></g></g></g><g fill="#ffffff" fill-opacity="1"><g transform="translate(521.024981, 324.881067)"><g><path d="M 18.015625 -7.015625 L 21.578125 -7.015625 L 21.578125 0 L 16.03125 0 C 12.820312 0 10.289062 -0.925781 8.4375 -2.78125 C 6.59375 -4.632812 5.671875 -7.175781 5.671875 -10.40625 L 5.671875 -22.828125 L 0.375 -22.828125 L 0.375 -24.5 L 11.921875 -36.734375 L 13.375 -36.734375 L 13.375 -29.140625 L 21.421875 -29.140625 L 21.421875 -22.828125 L 13.546875 -22.828125 L 13.546875 -11.4375 C 13.546875 -10.03125 13.929688 -8.941406 14.703125 -8.171875 C 15.472656 -7.398438 16.578125 -7.015625 18.015625 -7.015625 Z M 18.015625 -7.015625 "/></g></g></g><g fill="#ffffff" fill-opacity="1"><g transform="translate(544.220797, 324.881067)"><g><path d="M 3.78125 -33.015625 L 3.78125 -40.359375 L 11.65625 -40.359375 L 11.65625 -33.015625 Z M 3.78125 0 L 3.78125 -29.140625 L 11.65625 -29.140625 L 11.65625 0 Z M 3.78125 0 "/></g></g></g><g fill="#ffffff" fill-opacity="1"><g transform="translate(559.648725, 324.881067)"><g><path d="M 17.640625 0.8125 C 14.617188 0.8125 11.921875 0.140625 9.546875 -1.203125 C 7.171875 -2.554688 5.300781 -4.394531 3.9375 -6.71875 C 2.570312 -9.039062 1.890625 -11.65625 1.890625 -14.5625 C 1.890625 -17.507812 2.570312 -20.144531 3.9375 -22.46875 C 5.300781 -24.789062 7.171875 -26.613281 9.546875 -27.9375 C 11.921875 -29.269531 14.617188 -29.9375 17.640625 -29.9375 C 20.628906 -29.9375 23.3125 -29.269531 25.6875 -27.9375 C 28.0625 -26.613281 29.929688 -24.789062 31.296875 -22.46875 C 32.660156 -20.144531 33.34375 -17.507812 33.34375 -14.5625 C 33.34375 -11.65625 32.660156 -9.039062 31.296875 -6.71875 C 29.929688 -4.394531 28.0625 -2.554688 25.6875 -1.203125 C 23.3125 0.140625 20.628906 0.8125 17.640625 0.8125 Z M 17.640625 -6.578125 C 19.910156 -6.578125 21.765625 -7.3125 23.203125 -8.78125 C 24.640625 -10.257812 25.359375 -12.1875 25.359375 -14.5625 C 25.359375 -16.9375 24.640625 -18.859375 23.203125 -20.328125 C 21.765625 -21.804688 19.910156 -22.546875 17.640625 -22.546875 C 15.335938 -22.546875 13.46875 -21.804688 12.03125 -20.328125 C 10.59375 -18.859375 9.875 -16.9375 9.875 -14.5625 C 9.875 -12.1875 10.59375 -10.257812 12.03125 -8.78125 C 13.46875 -7.3125 15.335938 -6.578125 17.640625 -6.578125 Z M 17.640625 -6.578125 "/></g></g></g><g fill="#ffffff" fill-opacity="1"><g transform="translate(594.874025, 324.881067)"><g><path d="M 20.390625 -29.84375 C 23.703125 -29.84375 26.316406 -28.734375 28.234375 -26.515625 C 30.160156 -24.304688 31.125 -21.347656 31.125 -17.640625 L 31.125 0 L 23.25 0 L 23.25 -16.40625 C 23.25 -20.757812 21.5625 -22.9375 18.1875 -22.9375 C 16.164062 -22.9375 14.570312 -22.25 13.40625 -20.875 C 12.238281 -19.507812 11.65625 -17.660156 11.65625 -15.328125 L 11.65625 0 L 3.78125 0 L 3.78125 -29.140625 L 9.171875 -29.140625 L 10.734375 -25.515625 C 11.816406 -26.847656 13.203125 -27.898438 14.890625 -28.671875 C 16.578125 -29.453125 18.410156 -29.84375 20.390625 -29.84375 Z M 20.390625 -29.84375 "/></g></g></g><g fill="#ffffff" fill-opacity="1"><g transform="translate(331.088881, 380.287315)"><g><path d="M 16.828125 0.75 C 13.953125 0.75 11.414062 0.226562 9.21875 -0.8125 C 7.03125 -1.851562 5.316406 -3.34375 4.078125 -5.28125 C 2.835938 -7.226562 2.21875 -9.550781 2.21875 -12.25 L 10.46875 -12.25 C 10.46875 -10.414062 11.101562 -9.054688 12.375 -8.171875 C 13.65625 -7.296875 15.125 -6.859375 16.78125 -6.859375 C 17.820312 -6.859375 18.800781 -7.023438 19.71875 -7.359375 C 20.632812 -7.703125 21.390625 -8.207031 21.984375 -8.875 C 22.578125 -9.539062 22.875 -10.34375 22.875 -11.28125 C 22.875 -12.25 22.53125 -13.007812 21.84375 -13.5625 C 21.164062 -14.125 20.25 -14.582031 19.09375 -14.9375 C 17.945312 -15.300781 16.691406 -15.644531 15.328125 -15.96875 C 13.921875 -16.289062 12.476562 -16.6875 11 -17.15625 C 9.53125 -17.625 8.164062 -18.242188 6.90625 -19.015625 C 5.644531 -19.785156 4.632812 -20.828125 3.875 -22.140625 C 3.125 -23.453125 2.75 -25.117188 2.75 -27.140625 C 2.75 -30.773438 3.976562 -33.570312 6.4375 -35.53125 C 8.90625 -37.488281 12.242188 -38.46875 16.453125 -38.46875 C 20.773438 -38.46875 24.117188 -37.378906 26.484375 -35.203125 C 28.859375 -33.023438 30.046875 -30.066406 30.046875 -26.328125 L 21.953125 -26.328125 C 21.953125 -27.941406 21.375 -29.132812 20.21875 -29.90625 C 19.070312 -30.6875 17.742188 -31.078125 16.234375 -31.078125 C 14.910156 -31.078125 13.691406 -30.785156 12.578125 -30.203125 C 11.460938 -29.628906 10.90625 -28.734375 10.90625 -27.515625 C 10.90625 -26.617188 11.234375 -25.910156 11.890625 -25.390625 C 12.554688 -24.867188 13.4375 -24.4375 14.53125 -24.09375 C 15.632812 -23.75 16.851562 -23.414062 18.1875 -23.09375 C 19.625 -22.726562 21.097656 -22.300781 22.609375 -21.8125 C 24.117188 -21.332031 25.519531 -20.675781 26.8125 -19.84375 C 28.101562 -19.019531 29.15625 -17.925781 29.96875 -16.5625 C 30.78125 -15.195312 31.1875 -13.472656 31.1875 -11.390625 C 31.1875 -8.648438 30.53125 -6.378906 29.21875 -4.578125 C 27.90625 -2.785156 26.164062 -1.445312 24 -0.5625 C 21.84375 0.3125 19.453125 0.75 16.828125 0.75 Z M 16.828125 0.75 "/></g></g></g><g fill="#ffffff" fill-opacity="1"><g transform="translate(364.480085, 380.287315)"><g><path d="M 17.109375 0.8125 C 14.367188 0.8125 11.960938 0.265625 9.890625 -0.828125 C 7.828125 -1.929688 6.226562 -3.460938 5.09375 -5.421875 C 3.96875 -7.378906 3.40625 -9.671875 3.40625 -12.296875 L 3.40625 -29.140625 L 11.28125 -29.140625 L 11.28125 -13.21875 C 11.28125 -11.132812 11.789062 -9.503906 12.8125 -8.328125 C 13.832031 -7.160156 15.265625 -6.578125 17.109375 -6.578125 C 18.941406 -6.578125 20.359375 -7.171875 21.359375 -8.359375 C 22.367188 -9.546875 22.875 -11.164062 22.875 -13.21875 L 22.875 -29.140625 L 30.75 -29.140625 L 30.75 -12.296875 C 30.75 -9.671875 30.179688 -7.378906 29.046875 -5.421875 C 27.921875 -3.460938 26.332031 -1.929688 24.28125 -0.828125 C 22.226562 0.265625 19.835938 0.8125 17.109375 0.8125 Z M 17.109375 0.8125 "/></g></g></g><g fill="#ffffff" fill-opacity="1"><g transform="translate(398.626499, 380.287315)"><g><path d="M 36.90625 -29.84375 C 38.914062 -29.84375 40.691406 -29.347656 42.234375 -28.359375 C 43.785156 -27.367188 45 -26.007812 45.875 -24.28125 C 46.757812 -22.550781 47.203125 -20.554688 47.203125 -18.296875 L 47.203125 0 L 39.328125 0 L 39.328125 -17 C 39.328125 -20.957031 37.851562 -22.9375 34.90625 -22.9375 C 33.175781 -22.9375 31.816406 -22.304688 30.828125 -21.046875 C 29.835938 -19.785156 29.34375 -18.019531 29.34375 -15.75 L 29.34375 0 L 21.640625 0 L 21.640625 -17 C 21.640625 -20.957031 20.21875 -22.9375 17.375 -22.9375 C 15.570312 -22.9375 14.164062 -22.304688 13.15625 -21.046875 C 12.15625 -19.785156 11.65625 -18.019531 11.65625 -15.75 L 11.65625 0 L 3.78125 0 L 3.78125 -29.140625 L 9.28125 -29.140625 L 10.734375 -25.515625 C 11.773438 -26.816406 13.0625 -27.863281 14.59375 -28.65625 C 16.125 -29.445312 17.753906 -29.84375 19.484375 -29.84375 C 21.316406 -29.84375 22.96875 -29.425781 24.4375 -28.59375 C 25.914062 -27.769531 27.066406 -26.617188 27.890625 -25.140625 C 28.898438 -26.578125 30.195312 -27.71875 31.78125 -28.5625 C 33.363281 -29.414062 35.070312 -29.84375 36.90625 -29.84375 Z M 36.90625 -29.84375 "/></g></g></g><g fill="#ffffff" fill-opacity="1"><g transform="translate(449.22578, 380.287315)"><g><path d="M 36.90625 -29.84375 C 38.914062 -29.84375 40.691406 -29.347656 42.234375 -28.359375 C 43.785156 -27.367188 45 -26.007812 45.875 -24.28125 C 46.757812 -22.550781 47.203125 -20.554688 47.203125 -18.296875 L 47.203125 0 L 39.328125 0 L 39.328125 -17 C 39.328125 -20.957031 37.851562 -22.9375 34.90625 -22.9375 C 33.175781 -22.9375 31.816406 -22.304688 30.828125 -21.046875 C 29.835938 -19.785156 29.34375 -18.019531 29.34375 -15.75 L 29.34375 0 L 21.640625 0 L 21.640625 -17 C 21.640625 -20.957031 20.21875 -22.9375 17.375 -22.9375 C 15.570312 -22.9375 14.164062 -22.304688 13.15625 -21.046875 C 12.15625 -19.785156 11.65625 -18.019531 11.65625 -15.75 L 11.65625 0 L 3.78125 0 L 3.78125 -29.140625 L 9.28125 -29.140625 L 10.734375 -25.515625 C 11.773438 -26.816406 13.0625 -27.863281 14.59375 -28.65625 C 16.125 -29.445312 17.753906 -29.84375 19.484375 -29.84375 C 21.316406 -29.84375 22.96875 -29.425781 24.4375 -28.59375 C 25.914062 -27.769531 27.066406 -26.617188 27.890625 -25.140625 C 28.898438 -26.578125 30.195312 -27.71875 31.78125 -28.5625 C 33.363281 -29.414062 35.070312 -29.84375 36.90625 -29.84375 Z M 36.90625 -29.84375 "/></g></g></g><g fill="#ffffff" fill-opacity="1"><g transform="translate(499.825061, 380.287315)"><g><path d="M 3.78125 -33.015625 L 3.78125 -40.359375 L 11.65625 -40.359375 L 11.65625 -33.015625 Z M 3.78125 0 L 3.78125 -29.140625 L 11.65625 -29.140625 L 11.65625 0 Z M 3.78125 0 "/></g></g></g><g fill="#ffffff" fill-opacity="1"><g transform="translate(515.252988, 380.287315)"><g><path d="M 18.015625 -7.015625 L 21.578125 -7.015625 L 21.578125 0 L 16.03125 0 C 12.820312 0 10.289062 -0.925781 8.4375 -2.78125 C 6.59375 -4.632812 5.671875 -7.175781 5.671875 -10.40625 L 5.671875 -22.828125 L 0.375 -22.828125 L 0.375 -24.5 L 11.921875 -36.734375 L 13.375 -36.734375 L 13.375 -29.140625 L 21.421875 -29.140625 L 21.421875 -22.828125 L 13.546875 -22.828125 L 13.546875 -11.4375 C 13.546875 -10.03125 13.929688 -8.941406 14.703125 -8.171875 C 15.472656 -7.398438 16.578125 -7.015625 18.015625 -7.015625 Z M 18.015625 -7.015625 "/></g></g></g></svg>