<svg xmlns="http://www.w3.org/2000/svg" xmlns:xlink="http://www.w3.org/1999/xlink" width="128" zoomAndPan="magnify" viewBox="0 0 96 48" height="64" preserveAspectRatio="xMidYMid meet" version="1.0"><defs><g/><clipPath id="34d3e1a2d5"><path d="M 5.679688 8.097656 L 40.5625 8.097656 L 40.5625 38.824219 L 5.679688 38.824219 Z M 5.679688 8.097656 " clip-rule="nonzero"/></clipPath></defs><path stroke-linecap="butt" transform="matrix(0, -0.207628, 0.207628, 0, 42.332036, 39.839842)" fill="none" stroke-linejoin="miter" d="M -0.00000684325 1.505071 L 157.319956 1.505071 " stroke="#ffffff" stroke-width="3" stroke-opacity="1" stroke-miterlimit="4"/><g clip-path="url(#34d3e1a2d5)"><path fill="#003262" d="M 23.683594 29.40625 L 23.683594 31.253906 L 25.253906 31.828125 L 25.253906 29.980469 Z M 23.683594 25.796875 L 23.683594 27.644531 L 25.253906 28.21875 L 25.253906 26.371094 Z M 31.511719 23.652344 L 28.070312 25.886719 L 28.070312 35.125 C 29.242188 35.257812 30.390625 35.4375 31.511719 35.660156 Z M 23.683594 22.191406 L 23.683594 24.039062 L 25.253906 24.613281 L 25.253906 22.765625 Z M 13.910156 21.675781 L 10.464844 23.914062 L 10.464844 36.722656 C 11.566406 36.371094 12.71875 36.0625 13.910156 35.808594 Z M 26.804688 19.730469 L 26.804688 21.578125 L 28.371094 22.152344 L 28.371094 20.304688 Z M 23.683594 18.585938 L 23.683594 20.433594 L 25.253906 21.007812 L 25.253906 19.160156 Z M 26.804688 16.125 L 26.804688 17.972656 L 28.371094 18.542969 L 28.371094 16.699219 Z M 23.683594 14.980469 L 23.683594 16.828125 L 25.253906 17.402344 L 25.253906 15.554688 Z M 26.804688 12.515625 L 26.804688 14.367188 L 28.371094 14.941406 L 28.371094 13.09375 Z M 23.683594 11.371094 L 23.683594 13.21875 L 25.253906 13.792969 L 25.253906 11.945312 Z M 21.605469 9.601562 L 18.160156 11.839844 L 18.160156 35.113281 C 19.296875 34.992188 20.445312 34.914062 21.605469 34.878906 Z M 22.324219 8.269531 L 29.707031 10.976562 L 29.707031 22.394531 L 26.289062 24.617188 L 26.289062 34.972656 C 26.640625 34.992188 26.992188 35.019531 27.34375 35.050781 L 27.34375 25.496094 L 32.234375 22.316406 L 36.402344 25.027344 L 36.402344 36.957031 C 37.863281 37.464844 39.222656 38.050781 40.457031 38.710938 L 5.6875 38.710938 C 6.921875 38.054688 8.28125 37.472656 9.742188 36.96875 L 9.742188 23.519531 L 14.632812 20.34375 L 17.4375 22.164062 L 17.4375 11.449219 Z M 22.324219 8.269531 " fill-opacity="1" fill-rule="evenodd"/></g><g fill="#000000" fill-opacity="1"><g transform="translate(44.92854, 12.996808)"><g><path d="M 2.703125 -5.40625 C 3.066406 -5.40625 3.390625 -5.320312 3.671875 -5.15625 C 3.960938 -5 4.191406 -4.78125 4.359375 -4.5 C 4.535156 -4.21875 4.625 -3.898438 4.625 -3.546875 C 4.625 -3.191406 4.535156 -2.875 4.359375 -2.59375 C 4.191406 -2.3125 3.960938 -2.085938 3.671875 -1.921875 C 3.390625 -1.765625 3.066406 -1.6875 2.703125 -1.6875 L 1.796875 -1.6875 L 1.796875 0 L 0.625 0 L 0.625 -5.40625 Z M 2.65625 -2.78125 C 2.882812 -2.78125 3.066406 -2.851562 3.203125 -3 C 3.347656 -3.144531 3.421875 -3.328125 3.421875 -3.546875 C 3.421875 -3.773438 3.347656 -3.960938 3.203125 -4.109375 C 3.066406 -4.253906 2.882812 -4.328125 2.65625 -4.328125 L 1.796875 -4.328125 L 1.796875 -2.78125 Z M 2.65625 -2.78125 "/></g></g></g><g fill="#000000" fill-opacity="1"><g transform="translate(49.742801, 12.996808)"><g><path d="M 3.953125 -4.1875 L 4.796875 -4.1875 L 4.796875 0 L 3.90625 0 L 3.8125 -0.375 C 3.632812 -0.21875 3.429688 -0.0976562 3.203125 -0.015625 C 2.972656 0.0664062 2.722656 0.109375 2.453125 0.109375 C 2.035156 0.109375 1.660156 0.015625 1.328125 -0.171875 C 1.003906 -0.367188 0.742188 -0.632812 0.546875 -0.96875 C 0.359375 -1.300781 0.265625 -1.675781 0.265625 -2.09375 C 0.265625 -2.507812 0.359375 -2.882812 0.546875 -3.21875 C 0.742188 -3.550781 1.003906 -3.8125 1.328125 -4 C 1.660156 -4.195312 2.035156 -4.296875 2.453125 -4.296875 C 2.722656 -4.296875 2.972656 -4.25 3.203125 -4.15625 C 3.441406 -4.0625 3.648438 -3.9375 3.828125 -3.78125 Z M 2.546875 -0.953125 C 2.765625 -0.953125 2.957031 -1 3.125 -1.09375 C 3.300781 -1.195312 3.4375 -1.332031 3.53125 -1.5 C 3.632812 -1.675781 3.6875 -1.875 3.6875 -2.09375 C 3.6875 -2.3125 3.632812 -2.503906 3.53125 -2.671875 C 3.4375 -2.847656 3.300781 -2.984375 3.125 -3.078125 C 2.957031 -3.179688 2.765625 -3.234375 2.546875 -3.234375 C 2.328125 -3.234375 2.128906 -3.179688 1.953125 -3.078125 C 1.785156 -2.984375 1.65625 -2.847656 1.5625 -2.671875 C 1.46875 -2.503906 1.421875 -2.3125 1.421875 -2.09375 C 1.421875 -1.875 1.46875 -1.675781 1.5625 -1.5 C 1.65625 -1.332031 1.785156 -1.195312 1.953125 -1.09375 C 2.128906 -1 2.328125 -0.953125 2.546875 -0.953125 Z M 2.546875 -0.953125 "/></g></g></g><g fill="#000000" fill-opacity="1"><g transform="translate(55.083381, 12.996808)"><g><path d="M 5.296875 -4.28125 C 5.578125 -4.28125 5.828125 -4.207031 6.046875 -4.0625 C 6.273438 -3.925781 6.453125 -3.734375 6.578125 -3.484375 C 6.703125 -3.234375 6.765625 -2.945312 6.765625 -2.625 L 6.765625 0 L 5.640625 0 L 5.640625 -2.4375 C 5.640625 -3 5.425781 -3.28125 5 -3.28125 C 4.757812 -3.28125 4.566406 -3.191406 4.421875 -3.015625 C 4.273438 -2.835938 4.203125 -2.585938 4.203125 -2.265625 L 4.203125 0 L 3.09375 0 L 3.09375 -2.4375 C 3.09375 -3 2.890625 -3.28125 2.484375 -3.28125 C 2.234375 -3.28125 2.035156 -3.191406 1.890625 -3.015625 C 1.742188 -2.835938 1.671875 -2.585938 1.671875 -2.265625 L 1.671875 0 L 0.546875 0 L 0.546875 -4.171875 L 1.328125 -4.171875 L 1.546875 -3.65625 C 1.691406 -3.84375 1.875 -3.992188 2.09375 -4.109375 C 2.3125 -4.222656 2.546875 -4.28125 2.796875 -4.28125 C 3.054688 -4.28125 3.289062 -4.21875 3.5 -4.09375 C 3.71875 -3.976562 3.882812 -3.816406 4 -3.609375 C 4.144531 -3.804688 4.328125 -3.96875 4.546875 -4.09375 C 4.773438 -4.21875 5.023438 -4.28125 5.296875 -4.28125 Z M 5.296875 -4.28125 "/></g></g></g><g fill="#000000" fill-opacity="1"><g transform="translate(62.34347, 12.996808)"><g><path d="M 2.828125 -4.296875 C 3.242188 -4.296875 3.613281 -4.195312 3.9375 -4 C 4.269531 -3.8125 4.53125 -3.550781 4.71875 -3.21875 C 4.914062 -2.882812 5.015625 -2.507812 5.015625 -2.09375 C 5.015625 -1.664062 4.914062 -1.285156 4.71875 -0.953125 C 4.53125 -0.617188 4.269531 -0.351562 3.9375 -0.15625 C 3.613281 0.03125 3.242188 0.125 2.828125 0.125 C 2.609375 0.125 2.398438 0.09375 2.203125 0.03125 C 2.003906 -0.03125 1.828125 -0.113281 1.671875 -0.21875 L 1.671875 1.515625 L 0.546875 1.515625 L 0.546875 -4.171875 L 1.296875 -4.171875 L 1.484375 -3.796875 C 1.660156 -3.953125 1.859375 -4.070312 2.078125 -4.15625 C 2.304688 -4.25 2.554688 -4.296875 2.828125 -4.296875 Z M 2.734375 -0.9375 C 2.953125 -0.9375 3.144531 -0.988281 3.3125 -1.09375 C 3.488281 -1.195312 3.625 -1.332031 3.71875 -1.5 C 3.8125 -1.675781 3.859375 -1.875 3.859375 -2.09375 C 3.859375 -2.300781 3.8125 -2.492188 3.71875 -2.671875 C 3.625 -2.847656 3.488281 -2.984375 3.3125 -3.078125 C 3.144531 -3.179688 2.953125 -3.234375 2.734375 -3.234375 C 2.503906 -3.234375 2.304688 -3.179688 2.140625 -3.078125 C 1.972656 -2.984375 1.835938 -2.847656 1.734375 -2.671875 C 1.640625 -2.492188 1.59375 -2.300781 1.59375 -2.09375 C 1.59375 -1.875 1.640625 -1.675781 1.734375 -1.5 C 1.835938 -1.332031 1.972656 -1.195312 2.140625 -1.09375 C 2.304688 -0.988281 2.503906 -0.9375 2.734375 -0.9375 Z M 2.734375 -0.9375 "/></g></g></g><g fill="#000000" fill-opacity="1"><g transform="translate(67.622125, 12.996808)"><g><path d="M 3.953125 -4.1875 L 4.796875 -4.1875 L 4.796875 0 L 3.90625 0 L 3.8125 -0.375 C 3.632812 -0.21875 3.429688 -0.0976562 3.203125 -0.015625 C 2.972656 0.0664062 2.722656 0.109375 2.453125 0.109375 C 2.035156 0.109375 1.660156 0.015625 1.328125 -0.171875 C 1.003906 -0.367188 0.742188 -0.632812 0.546875 -0.96875 C 0.359375 -1.300781 0.265625 -1.675781 0.265625 -2.09375 C 0.265625 -2.507812 0.359375 -2.882812 0.546875 -3.21875 C 0.742188 -3.550781 1.003906 -3.8125 1.328125 -4 C 1.660156 -4.195312 2.035156 -4.296875 2.453125 -4.296875 C 2.722656 -4.296875 2.972656 -4.25 3.203125 -4.15625 C 3.441406 -4.0625 3.648438 -3.9375 3.828125 -3.78125 Z M 2.546875 -0.953125 C 2.765625 -0.953125 2.957031 -1 3.125 -1.09375 C 3.300781 -1.195312 3.4375 -1.332031 3.53125 -1.5 C 3.632812 -1.675781 3.6875 -1.875 3.6875 -2.09375 C 3.6875 -2.3125 3.632812 -2.503906 3.53125 -2.671875 C 3.4375 -2.847656 3.300781 -2.984375 3.125 -3.078125 C 2.957031 -3.179688 2.765625 -3.234375 2.546875 -3.234375 C 2.328125 -3.234375 2.128906 -3.179688 1.953125 -3.078125 C 1.785156 -2.984375 1.65625 -2.847656 1.5625 -2.671875 C 1.46875 -2.503906 1.421875 -2.3125 1.421875 -2.09375 C 1.421875 -1.875 1.46875 -1.675781 1.5625 -1.5 C 1.65625 -1.332031 1.785156 -1.195312 1.953125 -1.09375 C 2.128906 -1 2.328125 -0.953125 2.546875 -0.953125 Z M 2.546875 -0.953125 "/></g></g></g><g fill="#000000" fill-opacity="1"><g transform="translate(72.962706, 12.996808)"><g><path d="M 2.921875 -4.28125 C 3.398438 -4.28125 3.773438 -4.117188 4.046875 -3.796875 C 4.328125 -3.484375 4.46875 -3.0625 4.46875 -2.53125 L 4.46875 0 L 3.328125 0 L 3.328125 -2.34375 C 3.328125 -2.96875 3.085938 -3.28125 2.609375 -3.28125 C 2.316406 -3.28125 2.085938 -3.179688 1.921875 -2.984375 C 1.753906 -2.796875 1.671875 -2.535156 1.671875 -2.203125 L 1.671875 0 L 0.546875 0 L 0.546875 -4.171875 L 1.3125 -4.171875 L 1.546875 -3.65625 C 1.691406 -3.84375 1.882812 -3.992188 2.125 -4.109375 C 2.375 -4.222656 2.640625 -4.28125 2.921875 -4.28125 Z M 2.921875 -4.28125 "/></g></g></g><g fill="#000000" fill-opacity="1"><g transform="translate(77.924023, 12.996808)"><g><path d="M 3.90625 -4.171875 L 4.640625 -4.171875 L 4.640625 -0.484375 C 4.640625 -0.046875 4.550781 0.328125 4.375 0.640625 C 4.207031 0.953125 3.960938 1.191406 3.640625 1.359375 C 3.328125 1.535156 2.953125 1.625 2.515625 1.625 C 1.941406 1.625 1.46875 1.484375 1.09375 1.203125 C 0.71875 0.929688 0.484375 0.5625 0.390625 0.09375 L 1.515625 0.09375 C 1.566406 0.28125 1.691406 0.421875 1.890625 0.515625 C 2.085938 0.609375 2.285156 0.65625 2.484375 0.65625 C 2.773438 0.65625 3.019531 0.566406 3.21875 0.390625 C 3.425781 0.222656 3.53125 -0.015625 3.53125 -0.328125 L 3.53125 -0.484375 C 3.363281 -0.359375 3.179688 -0.265625 2.984375 -0.203125 C 2.785156 -0.140625 2.570312 -0.109375 2.34375 -0.109375 C 1.957031 -0.109375 1.601562 -0.203125 1.28125 -0.390625 C 0.96875 -0.578125 0.71875 -0.828125 0.53125 -1.140625 C 0.351562 -1.453125 0.265625 -1.804688 0.265625 -2.203125 C 0.265625 -2.585938 0.351562 -2.9375 0.53125 -3.25 C 0.71875 -3.570312 0.96875 -3.828125 1.28125 -4.015625 C 1.601562 -4.203125 1.957031 -4.296875 2.34375 -4.296875 C 2.613281 -4.296875 2.867188 -4.25 3.109375 -4.15625 C 3.347656 -4.0625 3.554688 -3.929688 3.734375 -3.765625 Z M 2.46875 -1.109375 C 2.78125 -1.109375 3.035156 -1.207031 3.234375 -1.40625 C 3.441406 -1.613281 3.546875 -1.878906 3.546875 -2.203125 C 3.546875 -2.503906 3.445312 -2.753906 3.25 -2.953125 C 3.050781 -3.160156 2.789062 -3.265625 2.46875 -3.265625 C 2.164062 -3.265625 1.914062 -3.160156 1.71875 -2.953125 C 1.519531 -2.753906 1.421875 -2.503906 1.421875 -2.203125 C 1.421875 -1.878906 1.519531 -1.613281 1.71875 -1.40625 C 1.914062 -1.207031 2.164062 -1.109375 2.46875 -1.109375 Z M 2.46875 -1.109375 "/></g></g></g><g fill="#000000" fill-opacity="1"><g transform="translate(83.117547, 12.996808)"><g><path d="M 3.953125 -4.1875 L 4.796875 -4.1875 L 4.796875 0 L 3.90625 0 L 3.8125 -0.375 C 3.632812 -0.21875 3.429688 -0.0976562 3.203125 -0.015625 C 2.972656 0.0664062 2.722656 0.109375 2.453125 0.109375 C 2.035156 0.109375 1.660156 0.015625 1.328125 -0.171875 C 1.003906 -0.367188 0.742188 -0.632812 0.546875 -0.96875 C 0.359375 -1.300781 0.265625 -1.675781 0.265625 -2.09375 C 0.265625 -2.507812 0.359375 -2.882812 0.546875 -3.21875 C 0.742188 -3.550781 1.003906 -3.8125 1.328125 -4 C 1.660156 -4.195312 2.035156 -4.296875 2.453125 -4.296875 C 2.722656 -4.296875 2.972656 -4.25 3.203125 -4.15625 C 3.441406 -4.0625 3.648438 -3.9375 3.828125 -3.78125 Z M 2.546875 -0.953125 C 2.765625 -0.953125 2.957031 -1 3.125 -1.09375 C 3.300781 -1.195312 3.4375 -1.332031 3.53125 -1.5 C 3.632812 -1.675781 3.6875 -1.875 3.6875 -2.09375 C 3.6875 -2.3125 3.632812 -2.503906 3.53125 -2.671875 C 3.4375 -2.847656 3.300781 -2.984375 3.125 -3.078125 C 2.957031 -3.179688 2.765625 -3.234375 2.546875 -3.234375 C 2.328125 -3.234375 2.128906 -3.179688 1.953125 -3.078125 C 1.785156 -2.984375 1.65625 -2.847656 1.5625 -2.671875 C 1.46875 -2.503906 1.421875 -2.3125 1.421875 -2.09375 C 1.421875 -1.875 1.46875 -1.675781 1.5625 -1.5 C 1.65625 -1.332031 1.785156 -1.195312 1.953125 -1.09375 C 2.128906 -1 2.328125 -0.953125 2.546875 -0.953125 Z M 2.546875 -0.953125 "/></g></g></g><g fill="#000000" fill-opacity="1"><g transform="translate(44.92854, 20.736724)"><g><path d="M 3.875 -2.859375 C 4.113281 -2.734375 4.296875 -2.554688 4.421875 -2.328125 C 4.554688 -2.109375 4.625 -1.851562 4.625 -1.5625 C 4.625 -1.269531 4.546875 -1.003906 4.390625 -0.765625 C 4.242188 -0.535156 4.039062 -0.347656 3.78125 -0.203125 C 3.519531 -0.0664062 3.234375 0 2.921875 0 L 0.625 0 L 0.625 -5.40625 L 2.859375 -5.40625 C 3.171875 -5.40625 3.445312 -5.34375 3.6875 -5.21875 C 3.9375 -5.101562 4.128906 -4.941406 4.265625 -4.734375 C 4.410156 -4.523438 4.484375 -4.285156 4.484375 -4.015625 C 4.484375 -3.785156 4.425781 -3.566406 4.3125 -3.359375 C 4.207031 -3.160156 4.0625 -2.992188 3.875 -2.859375 Z M 3.34375 -3.84375 C 3.34375 -4.007812 3.289062 -4.144531 3.1875 -4.25 C 3.082031 -4.363281 2.9375 -4.421875 2.75 -4.421875 L 1.765625 -4.421875 L 1.765625 -3.265625 L 2.75 -3.265625 C 2.9375 -3.265625 3.082031 -3.316406 3.1875 -3.421875 C 3.289062 -3.535156 3.34375 -3.675781 3.34375 -3.84375 Z M 2.8125 -1.078125 C 3 -1.078125 3.148438 -1.132812 3.265625 -1.25 C 3.390625 -1.363281 3.453125 -1.507812 3.453125 -1.6875 C 3.453125 -1.863281 3.390625 -2.007812 3.265625 -2.125 C 3.148438 -2.238281 3 -2.296875 2.8125 -2.296875 L 1.765625 -2.296875 L 1.765625 -1.078125 Z M 2.8125 -1.078125 "/></g></g></g><g fill="#000000" fill-opacity="1"><g transform="translate(49.897603, 20.736724)"><g><path d="M 2.453125 0.109375 C 2.054688 0.109375 1.707031 0.03125 1.40625 -0.125 C 1.113281 -0.28125 0.882812 -0.5 0.71875 -0.78125 C 0.5625 -1.0625 0.484375 -1.390625 0.484375 -1.765625 L 0.484375 -4.171875 L 1.609375 -4.171875 L 1.609375 -1.890625 C 1.609375 -1.597656 1.679688 -1.363281 1.828125 -1.1875 C 1.984375 -1.019531 2.191406 -0.9375 2.453125 -0.9375 C 2.710938 -0.9375 2.914062 -1.019531 3.0625 -1.1875 C 3.207031 -1.363281 3.28125 -1.597656 3.28125 -1.890625 L 3.28125 -4.171875 L 4.40625 -4.171875 L 4.40625 -1.765625 C 4.40625 -1.390625 4.320312 -1.0625 4.15625 -0.78125 C 4 -0.5 3.773438 -0.28125 3.484375 -0.125 C 3.191406 0.03125 2.847656 0.109375 2.453125 0.109375 Z M 2.453125 0.109375 "/></g></g></g><g fill="#000000" fill-opacity="1"><g transform="translate(54.797004, 20.736724)"><g><path d="M 2.03125 0.109375 C 1.675781 0.109375 1.367188 0.0507812 1.109375 -0.0625 C 0.847656 -0.1875 0.640625 -0.359375 0.484375 -0.578125 C 0.335938 -0.804688 0.265625 -1.070312 0.265625 -1.375 L 1.375 -1.375 C 1.375 -1.1875 1.4375 -1.046875 1.5625 -0.953125 C 1.695312 -0.859375 1.863281 -0.8125 2.0625 -0.8125 C 2.226562 -0.8125 2.367188 -0.847656 2.484375 -0.921875 C 2.597656 -0.992188 2.65625 -1.097656 2.65625 -1.234375 C 2.65625 -1.378906 2.578125 -1.476562 2.421875 -1.53125 C 2.265625 -1.59375 2.078125 -1.644531 1.859375 -1.6875 C 1.691406 -1.707031 1.519531 -1.738281 1.34375 -1.78125 C 1.164062 -1.832031 1 -1.898438 0.84375 -1.984375 C 0.695312 -2.078125 0.578125 -2.203125 0.484375 -2.359375 C 0.390625 -2.515625 0.34375 -2.71875 0.34375 -2.96875 C 0.34375 -3.226562 0.410156 -3.457031 0.546875 -3.65625 C 0.691406 -3.851562 0.890625 -4.007812 1.140625 -4.125 C 1.390625 -4.238281 1.6875 -4.296875 2.03125 -4.296875 C 2.363281 -4.296875 2.65625 -4.234375 2.90625 -4.109375 C 3.15625 -3.992188 3.347656 -3.832031 3.484375 -3.625 C 3.628906 -3.414062 3.703125 -3.175781 3.703125 -2.90625 L 2.625 -2.90625 C 2.625 -3.0625 2.566406 -3.179688 2.453125 -3.265625 C 2.347656 -3.347656 2.195312 -3.390625 2 -3.390625 C 1.820312 -3.390625 1.679688 -3.351562 1.578125 -3.28125 C 1.484375 -3.207031 1.4375 -3.113281 1.4375 -3 C 1.4375 -2.851562 1.515625 -2.753906 1.671875 -2.703125 C 1.828125 -2.648438 2.015625 -2.609375 2.234375 -2.578125 C 2.398438 -2.546875 2.570312 -2.503906 2.75 -2.453125 C 2.9375 -2.410156 3.101562 -2.347656 3.25 -2.265625 C 3.40625 -2.179688 3.53125 -2.0625 3.625 -1.90625 C 3.726562 -1.75 3.78125 -1.546875 3.78125 -1.296875 C 3.78125 -1.003906 3.707031 -0.753906 3.5625 -0.546875 C 3.414062 -0.335938 3.207031 -0.175781 2.9375 -0.0625 C 2.675781 0.0507812 2.375 0.109375 2.03125 0.109375 Z M 2.03125 0.109375 "/></g></g></g><g fill="#000000" fill-opacity="1"><g transform="translate(58.860492, 20.736724)"><g><path d="M 0.546875 -4.734375 L 0.546875 -5.78125 L 1.671875 -5.78125 L 1.671875 -4.734375 Z M 0.546875 0 L 0.546875 -4.171875 L 1.671875 -4.171875 L 1.671875 0 Z M 0.546875 0 "/></g></g></g><g fill="#000000" fill-opacity="1"><g transform="translate(61.074122, 20.736724)"><g><path d="M 2.921875 -4.28125 C 3.398438 -4.28125 3.773438 -4.117188 4.046875 -3.796875 C 4.328125 -3.484375 4.46875 -3.0625 4.46875 -2.53125 L 4.46875 0 L 3.328125 0 L 3.328125 -2.34375 C 3.328125 -2.96875 3.085938 -3.28125 2.609375 -3.28125 C 2.316406 -3.28125 2.085938 -3.179688 1.921875 -2.984375 C 1.753906 -2.796875 1.671875 -2.535156 1.671875 -2.203125 L 1.671875 0 L 0.546875 0 L 0.546875 -4.171875 L 1.3125 -4.171875 L 1.546875 -3.65625 C 1.691406 -3.84375 1.882812 -3.992188 2.125 -4.109375 C 2.375 -4.222656 2.640625 -4.28125 2.921875 -4.28125 Z M 2.921875 -4.28125 "/></g></g></g><g fill="#000000" fill-opacity="1"><g transform="translate(66.035438, 20.736724)"><g><path d="M 4.59375 -2.109375 C 4.59375 -1.992188 4.585938 -1.878906 4.578125 -1.765625 L 1.421875 -1.765625 C 1.460938 -1.484375 1.570312 -1.265625 1.75 -1.109375 C 1.9375 -0.960938 2.164062 -0.890625 2.4375 -0.890625 C 2.632812 -0.890625 2.804688 -0.929688 2.953125 -1.015625 C 3.109375 -1.097656 3.226562 -1.21875 3.3125 -1.375 L 4.515625 -1.375 C 4.359375 -0.914062 4.09375 -0.550781 3.71875 -0.28125 C 3.34375 -0.0195312 2.914062 0.109375 2.4375 0.109375 C 2.019531 0.109375 1.644531 0.015625 1.3125 -0.171875 C 0.988281 -0.367188 0.734375 -0.632812 0.546875 -0.96875 C 0.359375 -1.300781 0.265625 -1.675781 0.265625 -2.09375 C 0.265625 -2.507812 0.359375 -2.882812 0.546875 -3.21875 C 0.734375 -3.550781 0.988281 -3.8125 1.3125 -4 C 1.644531 -4.195312 2.019531 -4.296875 2.4375 -4.296875 C 2.863281 -4.296875 3.238281 -4.195312 3.5625 -4 C 3.882812 -3.800781 4.132812 -3.535156 4.3125 -3.203125 C 4.5 -2.867188 4.59375 -2.503906 4.59375 -2.109375 Z M 2.4375 -3.328125 C 2.1875 -3.328125 1.972656 -3.257812 1.796875 -3.125 C 1.628906 -2.988281 1.515625 -2.796875 1.453125 -2.546875 L 3.46875 -2.546875 C 3.300781 -3.066406 2.957031 -3.328125 2.4375 -3.328125 Z M 2.4375 -3.328125 "/></g></g></g><g fill="#000000" fill-opacity="1"><g transform="translate(70.896142, 20.736724)"><g><path d="M 2.03125 0.109375 C 1.675781 0.109375 1.367188 0.0507812 1.109375 -0.0625 C 0.847656 -0.1875 0.640625 -0.359375 0.484375 -0.578125 C 0.335938 -0.804688 0.265625 -1.070312 0.265625 -1.375 L 1.375 -1.375 C 1.375 -1.1875 1.4375 -1.046875 1.5625 -0.953125 C 1.695312 -0.859375 1.863281 -0.8125 2.0625 -0.8125 C 2.226562 -0.8125 2.367188 -0.847656 2.484375 -0.921875 C 2.597656 -0.992188 2.65625 -1.097656 2.65625 -1.234375 C 2.65625 -1.378906 2.578125 -1.476562 2.421875 -1.53125 C 2.265625 -1.59375 2.078125 -1.644531 1.859375 -1.6875 C 1.691406 -1.707031 1.519531 -1.738281 1.34375 -1.78125 C 1.164062 -1.832031 1 -1.898438 0.84375 -1.984375 C 0.695312 -2.078125 0.578125 -2.203125 0.484375 -2.359375 C 0.390625 -2.515625 0.34375 -2.71875 0.34375 -2.96875 C 0.34375 -3.226562 0.410156 -3.457031 0.546875 -3.65625 C 0.691406 -3.851562 0.890625 -4.007812 1.140625 -4.125 C 1.390625 -4.238281 1.6875 -4.296875 2.03125 -4.296875 C 2.363281 -4.296875 2.65625 -4.234375 2.90625 -4.109375 C 3.15625 -3.992188 3.347656 -3.832031 3.484375 -3.625 C 3.628906 -3.414062 3.703125 -3.175781 3.703125 -2.90625 L 2.625 -2.90625 C 2.625 -3.0625 2.566406 -3.179688 2.453125 -3.265625 C 2.347656 -3.347656 2.195312 -3.390625 2 -3.390625 C 1.820312 -3.390625 1.679688 -3.351562 1.578125 -3.28125 C 1.484375 -3.207031 1.4375 -3.113281 1.4375 -3 C 1.4375 -2.851562 1.515625 -2.753906 1.671875 -2.703125 C 1.828125 -2.648438 2.015625 -2.609375 2.234375 -2.578125 C 2.398438 -2.546875 2.570312 -2.503906 2.75 -2.453125 C 2.9375 -2.410156 3.101562 -2.347656 3.25 -2.265625 C 3.40625 -2.179688 3.53125 -2.0625 3.625 -1.90625 C 3.726562 -1.75 3.78125 -1.546875 3.78125 -1.296875 C 3.78125 -1.003906 3.707031 -0.753906 3.5625 -0.546875 C 3.414062 -0.335938 3.207031 -0.175781 2.9375 -0.0625 C 2.675781 0.0507812 2.375 0.109375 2.03125 0.109375 Z M 2.03125 0.109375 "/></g></g></g><g fill="#000000" fill-opacity="1"><g transform="translate(74.959629, 20.736724)"><g><path d="M 2.03125 0.109375 C 1.675781 0.109375 1.367188 0.0507812 1.109375 -0.0625 C 0.847656 -0.1875 0.640625 -0.359375 0.484375 -0.578125 C 0.335938 -0.804688 0.265625 -1.070312 0.265625 -1.375 L 1.375 -1.375 C 1.375 -1.1875 1.4375 -1.046875 1.5625 -0.953125 C 1.695312 -0.859375 1.863281 -0.8125 2.0625 -0.8125 C 2.226562 -0.8125 2.367188 -0.847656 2.484375 -0.921875 C 2.597656 -0.992188 2.65625 -1.097656 2.65625 -1.234375 C 2.65625 -1.378906 2.578125 -1.476562 2.421875 -1.53125 C 2.265625 -1.59375 2.078125 -1.644531 1.859375 -1.6875 C 1.691406 -1.707031 1.519531 -1.738281 1.34375 -1.78125 C 1.164062 -1.832031 1 -1.898438 0.84375 -1.984375 C 0.695312 -2.078125 0.578125 -2.203125 0.484375 -2.359375 C 0.390625 -2.515625 0.34375 -2.71875 0.34375 -2.96875 C 0.34375 -3.226562 0.410156 -3.457031 0.546875 -3.65625 C 0.691406 -3.851562 0.890625 -4.007812 1.140625 -4.125 C 1.390625 -4.238281 1.6875 -4.296875 2.03125 -4.296875 C 2.363281 -4.296875 2.65625 -4.234375 2.90625 -4.109375 C 3.15625 -3.992188 3.347656 -3.832031 3.484375 -3.625 C 3.628906 -3.414062 3.703125 -3.175781 3.703125 -2.90625 L 2.625 -2.90625 C 2.625 -3.0625 2.566406 -3.179688 2.453125 -3.265625 C 2.347656 -3.347656 2.195312 -3.390625 2 -3.390625 C 1.820312 -3.390625 1.679688 -3.351562 1.578125 -3.28125 C 1.484375 -3.207031 1.4375 -3.113281 1.4375 -3 C 1.4375 -2.851562 1.515625 -2.753906 1.671875 -2.703125 C 1.828125 -2.648438 2.015625 -2.609375 2.234375 -2.578125 C 2.398438 -2.546875 2.570312 -2.503906 2.75 -2.453125 C 2.9375 -2.410156 3.101562 -2.347656 3.25 -2.265625 C 3.40625 -2.179688 3.53125 -2.0625 3.625 -1.90625 C 3.726562 -1.75 3.78125 -1.546875 3.78125 -1.296875 C 3.78125 -1.003906 3.707031 -0.753906 3.5625 -0.546875 C 3.414062 -0.335938 3.207031 -0.175781 2.9375 -0.0625 C 2.675781 0.0507812 2.375 0.109375 2.03125 0.109375 Z M 2.03125 0.109375 "/></g></g></g><g fill="#000000" fill-opacity="1"><g transform="translate(79.023117, 20.736724)"><g/></g></g><g fill="#000000" fill-opacity="1"><g transform="translate(80.872974, 20.736724)"><g><path d="M 3.953125 -3.09375 L 3.953125 -2.0625 L 2.671875 -2.0625 L 2.671875 -0.703125 L 1.5625 -0.703125 L 1.5625 -2.0625 L 0.265625 -2.0625 L 0.265625 -3.09375 L 1.5625 -3.09375 L 1.5625 -4.421875 L 2.671875 -4.421875 L 2.671875 -3.09375 Z M 3.953125 -3.09375 "/></g></g></g><g fill="#000000" fill-opacity="1"><g transform="translate(44.92854, 28.47664)"><g><path d="M 0.625 0 L 0.625 -5.40625 L 1.796875 -5.40625 L 1.796875 0 Z M 0.625 0 "/></g></g></g><g fill="#000000" fill-opacity="1"><g transform="translate(47.343416, 28.47664)"><g><path d="M 2.921875 -4.28125 C 3.398438 -4.28125 3.773438 -4.117188 4.046875 -3.796875 C 4.328125 -3.484375 4.46875 -3.0625 4.46875 -2.53125 L 4.46875 0 L 3.328125 0 L 3.328125 -2.34375 C 3.328125 -2.96875 3.085938 -3.28125 2.609375 -3.28125 C 2.316406 -3.28125 2.085938 -3.179688 1.921875 -2.984375 C 1.753906 -2.796875 1.671875 -2.535156 1.671875 -2.203125 L 1.671875 0 L 0.546875 0 L 0.546875 -4.171875 L 1.3125 -4.171875 L 1.546875 -3.65625 C 1.691406 -3.84375 1.882812 -3.992188 2.125 -4.109375 C 2.375 -4.222656 2.640625 -4.28125 2.921875 -4.28125 Z M 2.921875 -4.28125 "/></g></g></g><g fill="#000000" fill-opacity="1"><g transform="translate(52.304733, 28.47664)"><g><path d="M 2.921875 -4.28125 C 3.398438 -4.28125 3.773438 -4.117188 4.046875 -3.796875 C 4.328125 -3.484375 4.46875 -3.0625 4.46875 -2.53125 L 4.46875 0 L 3.328125 0 L 3.328125 -2.34375 C 3.328125 -2.96875 3.085938 -3.28125 2.609375 -3.28125 C 2.316406 -3.28125 2.085938 -3.179688 1.921875 -2.984375 C 1.753906 -2.796875 1.671875 -2.535156 1.671875 -2.203125 L 1.671875 0 L 0.546875 0 L 0.546875 -4.171875 L 1.3125 -4.171875 L 1.546875 -3.65625 C 1.691406 -3.84375 1.882812 -3.992188 2.125 -4.109375 C 2.375 -4.222656 2.640625 -4.28125 2.921875 -4.28125 Z M 2.921875 -4.28125 "/></g></g></g><g fill="#000000" fill-opacity="1"><g transform="translate(57.266049, 28.47664)"><g><path d="M 2.53125 0.109375 C 2.09375 0.109375 1.703125 0.015625 1.359375 -0.171875 C 1.023438 -0.367188 0.757812 -0.632812 0.5625 -0.96875 C 0.363281 -1.300781 0.265625 -1.675781 0.265625 -2.09375 C 0.265625 -2.507812 0.363281 -2.882812 0.5625 -3.21875 C 0.757812 -3.550781 1.023438 -3.8125 1.359375 -4 C 1.703125 -4.195312 2.09375 -4.296875 2.53125 -4.296875 C 2.957031 -4.296875 3.335938 -4.195312 3.671875 -4 C 4.015625 -3.8125 4.285156 -3.550781 4.484375 -3.21875 C 4.679688 -2.882812 4.78125 -2.507812 4.78125 -2.09375 C 4.78125 -1.675781 4.679688 -1.300781 4.484375 -0.96875 C 4.285156 -0.632812 4.015625 -0.367188 3.671875 -0.171875 C 3.335938 0.015625 2.957031 0.109375 2.53125 0.109375 Z M 2.53125 -0.9375 C 2.851562 -0.9375 3.117188 -1.039062 3.328125 -1.25 C 3.535156 -1.46875 3.640625 -1.75 3.640625 -2.09375 C 3.640625 -2.425781 3.535156 -2.695312 3.328125 -2.90625 C 3.117188 -3.125 2.851562 -3.234375 2.53125 -3.234375 C 2.195312 -3.234375 1.925781 -3.125 1.71875 -2.90625 C 1.519531 -2.695312 1.421875 -2.425781 1.421875 -2.09375 C 1.421875 -1.75 1.519531 -1.46875 1.71875 -1.25 C 1.925781 -1.039062 2.195312 -0.9375 2.53125 -0.9375 Z M 2.53125 -0.9375 "/></g></g></g><g fill="#000000" fill-opacity="1"><g transform="translate(62.320253, 28.47664)"><g><path d="M 3.28125 -4.171875 L 4.453125 -4.171875 L 2.796875 0 L 1.75 0 L 0.046875 -4.171875 L 1.25 -4.171875 L 2.28125 -1.375 Z M 3.28125 -4.171875 "/></g></g></g><g fill="#000000" fill-opacity="1"><g transform="translate(66.8404, 28.47664)"><g><path d="M 3.953125 -4.1875 L 4.796875 -4.1875 L 4.796875 0 L 3.90625 0 L 3.8125 -0.375 C 3.632812 -0.21875 3.429688 -0.0976562 3.203125 -0.015625 C 2.972656 0.0664062 2.722656 0.109375 2.453125 0.109375 C 2.035156 0.109375 1.660156 0.015625 1.328125 -0.171875 C 1.003906 -0.367188 0.742188 -0.632812 0.546875 -0.96875 C 0.359375 -1.300781 0.265625 -1.675781 0.265625 -2.09375 C 0.265625 -2.507812 0.359375 -2.882812 0.546875 -3.21875 C 0.742188 -3.550781 1.003906 -3.8125 1.328125 -4 C 1.660156 -4.195312 2.035156 -4.296875 2.453125 -4.296875 C 2.722656 -4.296875 2.972656 -4.25 3.203125 -4.15625 C 3.441406 -4.0625 3.648438 -3.9375 3.828125 -3.78125 Z M 2.546875 -0.953125 C 2.765625 -0.953125 2.957031 -1 3.125 -1.09375 C 3.300781 -1.195312 3.4375 -1.332031 3.53125 -1.5 C 3.632812 -1.675781 3.6875 -1.875 3.6875 -2.09375 C 3.6875 -2.3125 3.632812 -2.503906 3.53125 -2.671875 C 3.4375 -2.847656 3.300781 -2.984375 3.125 -3.078125 C 2.957031 -3.179688 2.765625 -3.234375 2.546875 -3.234375 C 2.328125 -3.234375 2.128906 -3.179688 1.953125 -3.078125 C 1.785156 -2.984375 1.65625 -2.847656 1.5625 -2.671875 C 1.46875 -2.503906 1.421875 -2.3125 1.421875 -2.09375 C 1.421875 -1.875 1.46875 -1.675781 1.5625 -1.5 C 1.65625 -1.332031 1.785156 -1.195312 1.953125 -1.09375 C 2.128906 -1 2.328125 -0.953125 2.546875 -0.953125 Z M 2.546875 -0.953125 "/></g></g></g><g fill="#000000" fill-opacity="1"><g transform="translate(72.180981, 28.47664)"><g><path d="M 2.578125 -1 L 3.09375 -1 L 3.09375 0 L 2.296875 0 C 1.835938 0 1.472656 -0.128906 1.203125 -0.390625 C 0.941406 -0.660156 0.8125 -1.03125 0.8125 -1.5 L 0.8125 -3.265625 L 0.046875 -3.265625 L 0.046875 -3.515625 L 1.703125 -5.265625 L 1.921875 -5.265625 L 1.921875 -4.171875 L 3.078125 -4.171875 L 3.078125 -3.265625 L 1.9375 -3.265625 L 1.9375 -1.640625 C 1.9375 -1.441406 1.992188 -1.285156 2.109375 -1.171875 C 2.222656 -1.054688 2.378906 -1 2.578125 -1 Z M 2.578125 -1 "/></g></g></g><g fill="#000000" fill-opacity="1"><g transform="translate(75.509167, 28.47664)"><g><path d="M 0.546875 -4.734375 L 0.546875 -5.78125 L 1.671875 -5.78125 L 1.671875 -4.734375 Z M 0.546875 0 L 0.546875 -4.171875 L 1.671875 -4.171875 L 1.671875 0 Z M 0.546875 0 "/></g></g></g><g fill="#000000" fill-opacity="1"><g transform="translate(77.722797, 28.47664)"><g><path d="M 2.53125 0.109375 C 2.09375 0.109375 1.703125 0.015625 1.359375 -0.171875 C 1.023438 -0.367188 0.757812 -0.632812 0.5625 -0.96875 C 0.363281 -1.300781 0.265625 -1.675781 0.265625 -2.09375 C 0.265625 -2.507812 0.363281 -2.882812 0.5625 -3.21875 C 0.757812 -3.550781 1.023438 -3.8125 1.359375 -4 C 1.703125 -4.195312 2.09375 -4.296875 2.53125 -4.296875 C 2.957031 -4.296875 3.335938 -4.195312 3.671875 -4 C 4.015625 -3.8125 4.285156 -3.550781 4.484375 -3.21875 C 4.679688 -2.882812 4.78125 -2.507812 4.78125 -2.09375 C 4.78125 -1.675781 4.679688 -1.300781 4.484375 -0.96875 C 4.285156 -0.632812 4.015625 -0.367188 3.671875 -0.171875 C 3.335938 0.015625 2.957031 0.109375 2.53125 0.109375 Z M 2.53125 -0.9375 C 2.851562 -0.9375 3.117188 -1.039062 3.328125 -1.25 C 3.535156 -1.46875 3.640625 -1.75 3.640625 -2.09375 C 3.640625 -2.425781 3.535156 -2.695312 3.328125 -2.90625 C 3.117188 -3.125 2.851562 -3.234375 2.53125 -3.234375 C 2.195312 -3.234375 1.925781 -3.125 1.71875 -2.90625 C 1.519531 -2.695312 1.421875 -2.425781 1.421875 -2.09375 C 1.421875 -1.75 1.519531 -1.46875 1.71875 -1.25 C 1.925781 -1.039062 2.195312 -0.9375 2.53125 -0.9375 Z M 2.53125 -0.9375 "/></g></g></g><g fill="#000000" fill-opacity="1"><g transform="translate(82.777001, 28.47664)"><g><path d="M 2.921875 -4.28125 C 3.398438 -4.28125 3.773438 -4.117188 4.046875 -3.796875 C 4.328125 -3.484375 4.46875 -3.0625 4.46875 -2.53125 L 4.46875 0 L 3.328125 0 L 3.328125 -2.34375 C 3.328125 -2.96875 3.085938 -3.28125 2.609375 -3.28125 C 2.316406 -3.28125 2.085938 -3.179688 1.921875 -2.984375 C 1.753906 -2.796875 1.671875 -2.535156 1.671875 -2.203125 L 1.671875 0 L 0.546875 0 L 0.546875 -4.171875 L 1.3125 -4.171875 L 1.546875 -3.65625 C 1.691406 -3.84375 1.882812 -3.992188 2.125 -4.109375 C 2.375 -4.222656 2.640625 -4.28125 2.921875 -4.28125 Z M 2.921875 -4.28125 "/></g></g></g><g fill="#000000" fill-opacity="1"><g transform="translate(44.92854, 36.216556)"><g><path d="M 2.40625 0.109375 C 2 0.109375 1.632812 0.0351562 1.3125 -0.109375 C 1 -0.265625 0.753906 -0.476562 0.578125 -0.75 C 0.398438 -1.03125 0.3125 -1.363281 0.3125 -1.75 L 1.5 -1.75 C 1.5 -1.488281 1.585938 -1.296875 1.765625 -1.171875 C 1.953125 -1.046875 2.164062 -0.984375 2.40625 -0.984375 C 2.550781 -0.984375 2.691406 -1.003906 2.828125 -1.046875 C 2.960938 -1.097656 3.070312 -1.171875 3.15625 -1.265625 C 3.238281 -1.367188 3.28125 -1.484375 3.28125 -1.609375 C 3.28125 -1.753906 3.226562 -1.863281 3.125 -1.9375 C 3.03125 -2.019531 2.898438 -2.085938 2.734375 -2.140625 C 2.566406 -2.191406 2.390625 -2.242188 2.203125 -2.296875 C 1.992188 -2.335938 1.785156 -2.390625 1.578125 -2.453125 C 1.367188 -2.523438 1.171875 -2.613281 0.984375 -2.71875 C 0.804688 -2.832031 0.660156 -2.984375 0.546875 -3.171875 C 0.441406 -3.359375 0.390625 -3.597656 0.390625 -3.890625 C 0.390625 -4.410156 0.566406 -4.8125 0.921875 -5.09375 C 1.273438 -5.375 1.753906 -5.515625 2.359375 -5.515625 C 2.972656 -5.515625 3.453125 -5.359375 3.796875 -5.046875 C 4.140625 -4.734375 4.3125 -4.3125 4.3125 -3.78125 L 3.140625 -3.78125 C 3.140625 -4.007812 3.054688 -4.175781 2.890625 -4.28125 C 2.734375 -4.394531 2.546875 -4.453125 2.328125 -4.453125 C 2.140625 -4.453125 1.960938 -4.410156 1.796875 -4.328125 C 1.640625 -4.242188 1.5625 -4.113281 1.5625 -3.9375 C 1.5625 -3.8125 1.609375 -3.710938 1.703125 -3.640625 C 1.796875 -3.566406 1.921875 -3.503906 2.078125 -3.453125 C 2.234375 -3.398438 2.410156 -3.351562 2.609375 -3.3125 C 2.816406 -3.257812 3.023438 -3.195312 3.234375 -3.125 C 3.453125 -3.0625 3.65625 -2.96875 3.84375 -2.84375 C 4.03125 -2.726562 4.179688 -2.570312 4.296875 -2.375 C 4.410156 -2.175781 4.46875 -1.925781 4.46875 -1.625 C 4.46875 -1.238281 4.375 -0.914062 4.1875 -0.65625 C 4 -0.394531 3.75 -0.203125 3.4375 -0.078125 C 3.132812 0.046875 2.789062 0.109375 2.40625 0.109375 Z M 2.40625 0.109375 "/></g></g></g><g fill="#000000" fill-opacity="1"><g transform="translate(49.719584, 36.216556)"><g><path d="M 2.453125 0.109375 C 2.054688 0.109375 1.707031 0.03125 1.40625 -0.125 C 1.113281 -0.28125 0.882812 -0.5 0.71875 -0.78125 C 0.5625 -1.0625 0.484375 -1.390625 0.484375 -1.765625 L 0.484375 -4.171875 L 1.609375 -4.171875 L 1.609375 -1.890625 C 1.609375 -1.597656 1.679688 -1.363281 1.828125 -1.1875 C 1.984375 -1.019531 2.191406 -0.9375 2.453125 -0.9375 C 2.710938 -0.9375 2.914062 -1.019531 3.0625 -1.1875 C 3.207031 -1.363281 3.28125 -1.597656 3.28125 -1.890625 L 3.28125 -4.171875 L 4.40625 -4.171875 L 4.40625 -1.765625 C 4.40625 -1.390625 4.320312 -1.0625 4.15625 -0.78125 C 4 -0.5 3.773438 -0.28125 3.484375 -0.125 C 3.191406 0.03125 2.847656 0.109375 2.453125 0.109375 Z M 2.453125 0.109375 "/></g></g></g><g fill="#000000" fill-opacity="1"><g transform="translate(54.618986, 36.216556)"><g><path d="M 5.296875 -4.28125 C 5.578125 -4.28125 5.828125 -4.207031 6.046875 -4.0625 C 6.273438 -3.925781 6.453125 -3.734375 6.578125 -3.484375 C 6.703125 -3.234375 6.765625 -2.945312 6.765625 -2.625 L 6.765625 0 L 5.640625 0 L 5.640625 -2.4375 C 5.640625 -3 5.425781 -3.28125 5 -3.28125 C 4.757812 -3.28125 4.566406 -3.191406 4.421875 -3.015625 C 4.273438 -2.835938 4.203125 -2.585938 4.203125 -2.265625 L 4.203125 0 L 3.09375 0 L 3.09375 -2.4375 C 3.09375 -3 2.890625 -3.28125 2.484375 -3.28125 C 2.234375 -3.28125 2.035156 -3.191406 1.890625 -3.015625 C 1.742188 -2.835938 1.671875 -2.585938 1.671875 -2.265625 L 1.671875 0 L 0.546875 0 L 0.546875 -4.171875 L 1.328125 -4.171875 L 1.546875 -3.65625 C 1.691406 -3.84375 1.875 -3.992188 2.09375 -4.109375 C 2.3125 -4.222656 2.546875 -4.28125 2.796875 -4.28125 C 3.054688 -4.28125 3.289062 -4.21875 3.5 -4.09375 C 3.71875 -3.976562 3.882812 -3.816406 4 -3.609375 C 4.144531 -3.804688 4.328125 -3.96875 4.546875 -4.09375 C 4.773438 -4.21875 5.023438 -4.28125 5.296875 -4.28125 Z M 5.296875 -4.28125 "/></g></g></g><g fill="#000000" fill-opacity="1"><g transform="translate(61.879074, 36.216556)"><g><path d="M 5.296875 -4.28125 C 5.578125 -4.28125 5.828125 -4.207031 6.046875 -4.0625 C 6.273438 -3.925781 6.453125 -3.734375 6.578125 -3.484375 C 6.703125 -3.234375 6.765625 -2.945312 6.765625 -2.625 L 6.765625 0 L 5.640625 0 L 5.640625 -2.4375 C 5.640625 -3 5.425781 -3.28125 5 -3.28125 C 4.757812 -3.28125 4.566406 -3.191406 4.421875 -3.015625 C 4.273438 -2.835938 4.203125 -2.585938 4.203125 -2.265625 L 4.203125 0 L 3.09375 0 L 3.09375 -2.4375 C 3.09375 -3 2.890625 -3.28125 2.484375 -3.28125 C 2.234375 -3.28125 2.035156 -3.191406 1.890625 -3.015625 C 1.742188 -2.835938 1.671875 -2.585938 1.671875 -2.265625 L 1.671875 0 L 0.546875 0 L 0.546875 -4.171875 L 1.328125 -4.171875 L 1.546875 -3.65625 C 1.691406 -3.84375 1.875 -3.992188 2.09375 -4.109375 C 2.3125 -4.222656 2.546875 -4.28125 2.796875 -4.28125 C 3.054688 -4.28125 3.289062 -4.21875 3.5 -4.09375 C 3.71875 -3.976562 3.882812 -3.816406 4 -3.609375 C 4.144531 -3.804688 4.328125 -3.96875 4.546875 -4.09375 C 4.773438 -4.21875 5.023438 -4.28125 5.296875 -4.28125 Z M 5.296875 -4.28125 "/></g></g></g><g fill="#000000" fill-opacity="1"><g transform="translate(69.139162, 36.216556)"><g><path d="M 0.546875 -4.734375 L 0.546875 -5.78125 L 1.671875 -5.78125 L 1.671875 -4.734375 Z M 0.546875 0 L 0.546875 -4.171875 L 1.671875 -4.171875 L 1.671875 0 Z M 0.546875 0 "/></g></g></g><g fill="#000000" fill-opacity="1"><g transform="translate(71.352792, 36.216556)"><g><path d="M 2.578125 -1 L 3.09375 -1 L 3.09375 0 L 2.296875 0 C 1.835938 0 1.472656 -0.128906 1.203125 -0.390625 C 0.941406 -0.660156 0.8125 -1.03125 0.8125 -1.5 L 0.8125 -3.265625 L 0.046875 -3.265625 L 0.046875 -3.515625 L 1.703125 -5.265625 L 1.921875 -5.265625 L 1.921875 -4.171875 L 3.078125 -4.171875 L 3.078125 -3.265625 L 1.9375 -3.265625 L 1.9375 -1.640625 C 1.9375 -1.441406 1.992188 -1.285156 2.109375 -1.171875 C 2.222656 -1.054688 2.378906 -1 2.578125 -1 Z M 2.578125 -1 "/></g></g></g></svg>