<svg xmlns="http://www.w3.org/2000/svg" xmlns:xlink="http://www.w3.org/1999/xlink" width="1140" zoomAndPan="magnify" viewBox="0 0 854.88 159.000002" height="212" preserveAspectRatio="xMidYMid meet" version="1.0"><defs><g/><clipPath id="538ea4d3af"><path d="M 215.027344 0 L 640 0 L 640 128.941406 L 215.027344 128.941406 Z M 215.027344 0 " clip-rule="nonzero"/></clipPath><clipPath id="abbc8b3924"><path d="M 574.65625 -1.453125 C 610.664062 -1.453125 639.855469 27.738281 639.855469 63.746094 C 639.855469 99.753906 610.664062 128.941406 574.65625 128.941406 L 280.222656 128.941406 C 244.214844 128.941406 215.027344 99.753906 215.027344 63.746094 C 215.027344 27.738281 244.214844 -1.453125 280.222656 -1.453125 Z M 574.65625 -1.453125 " clip-rule="nonzero"/></clipPath><clipPath id="f1128b0e41"><path d="M 222.015625 2.488281 L 344.53125 2.488281 L 344.53125 125 L 222.015625 125 Z M 222.015625 2.488281 " clip-rule="nonzero"/></clipPath><clipPath id="fdc38583ce"><path d="M 283.273438 2.488281 C 249.441406 2.488281 222.015625 29.914062 222.015625 63.746094 C 222.015625 97.574219 249.441406 125 283.273438 125 C 317.105469 125 344.53125 97.574219 344.53125 63.746094 C 344.53125 29.914062 317.105469 2.488281 283.273438 2.488281 Z M 283.273438 2.488281 " clip-rule="nonzero"/></clipPath><clipPath id="f1127697e1"><path d="M 366.183594 2.488281 L 488.699219 2.488281 L 488.699219 125 L 366.183594 125 Z M 366.183594 2.488281 " clip-rule="nonzero"/></clipPath><clipPath id="271d09813f"><path d="M 427.441406 2.488281 C 393.609375 2.488281 366.183594 29.914062 366.183594 63.746094 C 366.183594 97.574219 393.609375 125 427.441406 125 C 461.273438 125 488.699219 97.574219 488.699219 63.746094 C 488.699219 29.914062 461.273438 2.488281 427.441406 2.488281 Z M 427.441406 2.488281 " clip-rule="nonzero"/></clipPath><clipPath id="ce71773ab3"><path d="M 510.296875 2.488281 L 632.8125 2.488281 L 632.8125 125 L 510.296875 125 Z M 510.296875 2.488281 " clip-rule="nonzero"/></clipPath><clipPath id="ea2aaa380d"><path d="M 571.554688 2.488281 C 537.722656 2.488281 510.296875 29.914062 510.296875 63.746094 C 510.296875 97.574219 537.722656 125 571.554688 125 C 605.386719 125 632.8125 97.574219 632.8125 63.746094 C 632.8125 29.914062 605.386719 2.488281 571.554688 2.488281 Z M 571.554688 2.488281 " clip-rule="nonzero"/></clipPath><clipPath id="472b6f7273"><path d="M 222.015625 136.992188 L 344.535156 136.992188 L 344.535156 158.007812 L 222.015625 158.007812 Z M 222.015625 136.992188 " clip-rule="nonzero"/></clipPath><clipPath id="01116849b5"><path d="M 229.46875 136.992188 L 337.078125 136.992188 C 341.195312 136.992188 344.53125 140.328125 344.53125 144.445312 L 344.53125 152.007812 C 344.53125 156.125 341.195312 159.460938 337.078125 159.460938 L 229.46875 159.460938 C 225.351562 159.460938 222.015625 156.125 222.015625 152.007812 L 222.015625 144.445312 C 222.015625 140.328125 225.351562 136.992188 229.46875 136.992188 Z M 229.46875 136.992188 " clip-rule="nonzero"/></clipPath><clipPath id="4464f21342"><path d="M 366.183594 136.992188 L 488.703125 136.992188 L 488.703125 158.007812 L 366.183594 158.007812 Z M 366.183594 136.992188 " clip-rule="nonzero"/></clipPath><clipPath id="d41f33787c"><path d="M 373.636719 136.992188 L 481.246094 136.992188 C 485.359375 136.992188 488.699219 140.328125 488.699219 144.445312 L 488.699219 152.007812 C 488.699219 156.125 485.359375 159.460938 481.246094 159.460938 L 373.636719 159.460938 C 369.519531 159.460938 366.183594 156.125 366.183594 152.007812 L 366.183594 144.445312 C 366.183594 140.328125 369.519531 136.992188 373.636719 136.992188 Z M 373.636719 136.992188 " clip-rule="nonzero"/></clipPath><clipPath id="589513b9ac"><path d="M 510.296875 136.992188 L 632.816406 136.992188 L 632.816406 158.007812 L 510.296875 158.007812 Z M 510.296875 136.992188 " clip-rule="nonzero"/></clipPath><clipPath id="b6a89fa848"><path d="M 517.75 136.992188 L 625.359375 136.992188 C 629.476562 136.992188 632.8125 140.328125 632.8125 144.445312 L 632.8125 152.007812 C 632.8125 156.125 629.476562 159.460938 625.359375 159.460938 L 517.75 159.460938 C 513.632812 159.460938 510.296875 156.125 510.296875 152.007812 L 510.296875 144.445312 C 510.296875 140.328125 513.632812 136.992188 517.75 136.992188 Z M 517.75 136.992188 " clip-rule="nonzero"/></clipPath><clipPath id="98704a521f"><path d="M 244.046875 22.667969 L 322.304688 22.667969 L 322.304688 104.652344 L 244.046875 104.652344 Z M 244.046875 22.667969 " clip-rule="nonzero"/></clipPath><clipPath id="3db0d0bb53"><path d="M 378.96875 15.296875 L 475.859375 15.296875 L 475.859375 112.1875 L 378.96875 112.1875 Z M 378.96875 15.296875 " clip-rule="nonzero"/></clipPath><clipPath id="2c0ab8f71c"><path d="M 523.109375 15.296875 L 620 15.296875 L 620 112.1875 L 523.109375 112.1875 Z M 523.109375 15.296875 " clip-rule="nonzero"/></clipPath></defs><g clip-path="url(#538ea4d3af)"><g clip-path="url(#abbc8b3924)"><path fill="#eeba2b" d="M 215.027344 -1.453125 L 639.832031 -1.453125 L 639.832031 128.941406 L 215.027344 128.941406 Z M 215.027344 -1.453125 " fill-opacity="1" fill-rule="nonzero"/></g></g><g clip-path="url(#f1128b0e41)"><g clip-path="url(#fdc38583ce)"><path fill="#212123" d="M 222.015625 2.488281 L 344.53125 2.488281 L 344.53125 125 L 222.015625 125 Z M 222.015625 2.488281 " fill-opacity="1" fill-rule="nonzero"/></g></g><g clip-path="url(#f1127697e1)"><g clip-path="url(#271d09813f)"><path fill="#212123" d="M 366.183594 2.488281 L 488.699219 2.488281 L 488.699219 125 L 366.183594 125 Z M 366.183594 2.488281 " fill-opacity="1" fill-rule="nonzero"/></g></g><g clip-path="url(#ce71773ab3)"><g clip-path="url(#ea2aaa380d)"><path fill="#212123" d="M 510.296875 2.488281 L 632.8125 2.488281 L 632.8125 125 L 510.296875 125 Z M 510.296875 2.488281 " fill-opacity="1" fill-rule="nonzero"/></g></g><g clip-path="url(#472b6f7273)"><g clip-path="url(#01116849b5)"><path fill="#eeba2b" d="M 222.015625 136.992188 L 344.535156 136.992188 L 344.535156 159.460938 L 222.015625 159.460938 Z M 222.015625 136.992188 " fill-opacity="1" fill-rule="nonzero"/></g></g><g clip-path="url(#4464f21342)"><g clip-path="url(#d41f33787c)"><path fill="#eeba2b" d="M 366.183594 136.992188 L 488.703125 136.992188 L 488.703125 159.460938 L 366.183594 159.460938 Z M 366.183594 136.992188 " fill-opacity="1" fill-rule="nonzero"/></g></g><g clip-path="url(#589513b9ac)"><g clip-path="url(#b6a89fa848)"><path fill="#eeba2b" d="M 510.296875 136.992188 L 632.816406 136.992188 L 632.816406 159.460938 L 510.296875 159.460938 Z M 510.296875 136.992188 " fill-opacity="1" fill-rule="nonzero"/></g></g><g fill="#000000" fill-opacity="1"><g transform="translate(226.610261, 151.481912)"><g><path d="M 4.09375 0.078125 C 3.40625 0.078125 2.773438 -0.078125 2.203125 -0.390625 C 1.628906 -0.710938 1.175781 -1.160156 0.84375 -1.734375 C 0.507812 -2.304688 0.34375 -2.945312 0.34375 -3.65625 C 0.34375 -4.375 0.507812 -5.015625 0.84375 -5.578125 C 1.175781 -6.148438 1.628906 -6.59375 2.203125 -6.90625 C 2.773438 -7.226562 3.40625 -7.390625 4.09375 -7.390625 C 4.769531 -7.390625 5.394531 -7.226562 5.96875 -6.90625 C 6.539062 -6.59375 6.988281 -6.148438 7.3125 -5.578125 C 7.644531 -5.015625 7.8125 -4.375 7.8125 -3.65625 C 7.8125 -2.945312 7.644531 -2.304688 7.3125 -1.734375 C 6.976562 -1.160156 6.523438 -0.710938 5.953125 -0.390625 C 5.390625 -0.078125 4.769531 0.078125 4.09375 0.078125 Z M 4.09375 -1.546875 C 4.664062 -1.546875 5.125 -1.738281 5.46875 -2.125 C 5.820312 -2.507812 6 -3.019531 6 -3.65625 C 6 -4.300781 5.820312 -4.816406 5.46875 -5.203125 C 5.125 -5.585938 4.664062 -5.78125 4.09375 -5.78125 C 3.5 -5.78125 3.023438 -5.585938 2.671875 -5.203125 C 2.328125 -4.828125 2.15625 -4.3125 2.15625 -3.65625 C 2.15625 -3.019531 2.328125 -2.507812 2.671875 -2.125 C 3.023438 -1.738281 3.5 -1.546875 4.09375 -1.546875 Z M 4.09375 -1.546875 "/></g></g></g><g fill="#000000" fill-opacity="1"><g transform="translate(234.763331, 151.481912)"><g><path d="M 0.34375 -3.65625 C 0.34375 -4.375 0.5 -5.015625 0.8125 -5.578125 C 1.125 -6.140625 1.554688 -6.578125 2.109375 -6.890625 C 2.671875 -7.203125 3.300781 -7.359375 4 -7.359375 C 4.863281 -7.359375 5.601562 -7.128906 6.21875 -6.671875 C 6.832031 -6.222656 7.242188 -5.601562 7.453125 -4.8125 L 5.515625 -4.8125 C 5.367188 -5.113281 5.160156 -5.34375 4.890625 -5.5 C 4.628906 -5.664062 4.328125 -5.75 3.984375 -5.75 C 3.441406 -5.75 3 -5.554688 2.65625 -5.171875 C 2.3125 -4.796875 2.140625 -4.289062 2.140625 -3.65625 C 2.140625 -3.019531 2.3125 -2.507812 2.65625 -2.125 C 3 -1.75 3.441406 -1.5625 3.984375 -1.5625 C 4.328125 -1.5625 4.628906 -1.640625 4.890625 -1.796875 C 5.160156 -1.953125 5.367188 -2.179688 5.515625 -2.484375 L 7.453125 -2.484375 C 7.242188 -1.703125 6.832031 -1.082031 6.21875 -0.625 C 5.601562 -0.175781 4.863281 0.046875 4 0.046875 C 3.300781 0.046875 2.671875 -0.109375 2.109375 -0.421875 C 1.554688 -0.734375 1.125 -1.171875 0.8125 -1.734375 C 0.5 -2.296875 0.34375 -2.9375 0.34375 -3.65625 Z M 0.34375 -3.65625 "/></g></g></g><g fill="#000000" fill-opacity="1"><g transform="translate(242.667453, 151.481912)"><g><path d="M 5.875 -7.28125 L 5.875 -5.859375 L 3.953125 -5.859375 L 3.953125 0 L 2.171875 0 L 2.171875 -5.859375 L 0.25 -5.859375 L 0.25 -7.28125 Z M 5.875 -7.28125 "/></g></g></g><g fill="#000000" fill-opacity="1"><g transform="translate(248.797816, 151.481912)"><g><path d="M 4.09375 0.078125 C 3.40625 0.078125 2.773438 -0.078125 2.203125 -0.390625 C 1.628906 -0.710938 1.175781 -1.160156 0.84375 -1.734375 C 0.507812 -2.304688 0.34375 -2.945312 0.34375 -3.65625 C 0.34375 -4.375 0.507812 -5.015625 0.84375 -5.578125 C 1.175781 -6.148438 1.628906 -6.59375 2.203125 -6.90625 C 2.773438 -7.226562 3.40625 -7.390625 4.09375 -7.390625 C 4.769531 -7.390625 5.394531 -7.226562 5.96875 -6.90625 C 6.539062 -6.59375 6.988281 -6.148438 7.3125 -5.578125 C 7.644531 -5.015625 7.8125 -4.375 7.8125 -3.65625 C 7.8125 -2.945312 7.644531 -2.304688 7.3125 -1.734375 C 6.976562 -1.160156 6.523438 -0.710938 5.953125 -0.390625 C 5.390625 -0.078125 4.769531 0.078125 4.09375 0.078125 Z M 4.09375 -1.546875 C 4.664062 -1.546875 5.125 -1.738281 5.46875 -2.125 C 5.820312 -2.507812 6 -3.019531 6 -3.65625 C 6 -4.300781 5.820312 -4.816406 5.46875 -5.203125 C 5.125 -5.585938 4.664062 -5.78125 4.09375 -5.78125 C 3.5 -5.78125 3.023438 -5.585938 2.671875 -5.203125 C 2.328125 -4.828125 2.15625 -4.3125 2.15625 -3.65625 C 2.15625 -3.019531 2.328125 -2.507812 2.671875 -2.125 C 3.023438 -1.738281 3.5 -1.546875 4.09375 -1.546875 Z M 4.09375 -1.546875 "/></g></g></g><g fill="#000000" fill-opacity="1"><g transform="translate(256.950886, 151.481912)"><g><path d="M 5.046875 -3.734375 C 5.472656 -3.640625 5.8125 -3.425781 6.0625 -3.09375 C 6.320312 -2.769531 6.453125 -2.398438 6.453125 -1.984375 C 6.453125 -1.367188 6.238281 -0.882812 5.8125 -0.53125 C 5.382812 -0.175781 4.789062 0 4.03125 0 L 0.640625 0 L 0.640625 -7.28125 L 3.921875 -7.28125 C 4.660156 -7.28125 5.238281 -7.109375 5.65625 -6.765625 C 6.070312 -6.429688 6.28125 -5.972656 6.28125 -5.390625 C 6.28125 -4.960938 6.164062 -4.609375 5.9375 -4.328125 C 5.71875 -4.046875 5.421875 -3.847656 5.046875 -3.734375 Z M 2.421875 -4.34375 L 3.578125 -4.34375 C 3.867188 -4.34375 4.09375 -4.40625 4.25 -4.53125 C 4.40625 -4.65625 4.484375 -4.84375 4.484375 -5.09375 C 4.484375 -5.34375 4.40625 -5.53125 4.25 -5.65625 C 4.09375 -5.789062 3.867188 -5.859375 3.578125 -5.859375 L 2.421875 -5.859375 Z M 3.71875 -1.4375 C 4.019531 -1.4375 4.25 -1.503906 4.40625 -1.640625 C 4.570312 -1.773438 4.65625 -1.96875 4.65625 -2.21875 C 4.65625 -2.476562 4.570312 -2.679688 4.40625 -2.828125 C 4.238281 -2.972656 4.003906 -3.046875 3.703125 -3.046875 L 2.421875 -3.046875 L 2.421875 -1.4375 Z M 3.71875 -1.4375 "/></g></g></g><g fill="#000000" fill-opacity="1"><g transform="translate(263.786602, 151.481912)"><g><path d="M 2.421875 -5.859375 L 2.421875 -4.390625 L 4.796875 -4.390625 L 4.796875 -3.015625 L 2.421875 -3.015625 L 2.421875 -1.421875 L 5.109375 -1.421875 L 5.109375 0 L 0.640625 0 L 0.640625 -7.28125 L 5.109375 -7.28125 L 5.109375 -5.859375 Z M 2.421875 -5.859375 "/></g></g></g><g fill="#000000" fill-opacity="1"><g transform="translate(269.39832, 151.481912)"><g><path d="M 4.359375 0 L 2.84375 -2.75 L 2.421875 -2.75 L 2.421875 0 L 0.640625 0 L 0.640625 -7.28125 L 3.625 -7.28125 C 4.195312 -7.28125 4.6875 -7.179688 5.09375 -6.984375 C 5.5 -6.785156 5.800781 -6.507812 6 -6.15625 C 6.195312 -5.8125 6.296875 -5.421875 6.296875 -4.984375 C 6.296875 -4.503906 6.160156 -4.070312 5.890625 -3.6875 C 5.617188 -3.3125 5.210938 -3.046875 4.671875 -2.890625 L 6.359375 0 Z M 2.421875 -4 L 3.515625 -4 C 3.835938 -4 4.082031 -4.078125 4.25 -4.234375 C 4.414062 -4.398438 4.5 -4.628906 4.5 -4.921875 C 4.5 -5.191406 4.414062 -5.40625 4.25 -5.5625 C 4.082031 -5.726562 3.835938 -5.8125 3.515625 -5.8125 L 2.421875 -5.8125 Z M 2.421875 -4 "/></g></g></g><g fill="#000000" fill-opacity="1"><g transform="translate(276.161428, 151.481912)"><g/></g></g><g fill="#000000" fill-opacity="1"><g transform="translate(278.360477, 151.481912)"><g><path d="M 0.40625 -1.421875 C 0.632812 -1.609375 0.738281 -1.695312 0.71875 -1.6875 C 1.40625 -2.238281 1.941406 -2.691406 2.328125 -3.046875 C 2.722656 -3.410156 3.050781 -3.789062 3.3125 -4.1875 C 3.582031 -4.582031 3.71875 -4.96875 3.71875 -5.34375 C 3.71875 -5.625 3.648438 -5.84375 3.515625 -6 C 3.390625 -6.164062 3.195312 -6.25 2.9375 -6.25 C 2.675781 -6.25 2.46875 -6.148438 2.3125 -5.953125 C 2.164062 -5.753906 2.09375 -5.472656 2.09375 -5.109375 L 0.390625 -5.109375 C 0.398438 -5.703125 0.523438 -6.191406 0.765625 -6.578125 C 1.003906 -6.972656 1.316406 -7.265625 1.703125 -7.453125 C 2.097656 -7.640625 2.535156 -7.734375 3.015625 -7.734375 C 3.835938 -7.734375 4.457031 -7.519531 4.875 -7.09375 C 5.289062 -6.675781 5.5 -6.128906 5.5 -5.453125 C 5.5 -4.710938 5.242188 -4.023438 4.734375 -3.390625 C 4.234375 -2.765625 3.59375 -2.148438 2.8125 -1.546875 L 5.609375 -1.546875 L 5.609375 -0.109375 L 0.40625 -0.109375 Z M 0.40625 -1.421875 "/></g></g></g><g fill="#000000" fill-opacity="1"><g transform="translate(284.283381, 151.481912)"><g><path d="M 1.71875 -4.0625 C 1.0625 -4.40625 0.734375 -4.953125 0.734375 -5.703125 C 0.734375 -6.066406 0.828125 -6.398438 1.015625 -6.703125 C 1.210938 -7.015625 1.507812 -7.265625 1.90625 -7.453125 C 2.300781 -7.640625 2.785156 -7.734375 3.359375 -7.734375 C 3.929688 -7.734375 4.410156 -7.640625 4.796875 -7.453125 C 5.191406 -7.265625 5.484375 -7.015625 5.671875 -6.703125 C 5.867188 -6.398438 5.96875 -6.066406 5.96875 -5.703125 C 5.96875 -5.328125 5.878906 -5 5.703125 -4.71875 C 5.535156 -4.445312 5.300781 -4.226562 5 -4.0625 C 5.375 -3.882812 5.660156 -3.640625 5.859375 -3.328125 C 6.054688 -3.015625 6.15625 -2.644531 6.15625 -2.21875 C 6.15625 -1.726562 6.03125 -1.304688 5.78125 -0.953125 C 5.539062 -0.597656 5.207031 -0.328125 4.78125 -0.140625 C 4.351562 0.046875 3.878906 0.140625 3.359375 0.140625 C 2.835938 0.140625 2.363281 0.046875 1.9375 -0.140625 C 1.519531 -0.328125 1.1875 -0.597656 0.9375 -0.953125 C 0.6875 -1.304688 0.5625 -1.726562 0.5625 -2.21875 C 0.5625 -2.644531 0.660156 -3.015625 0.859375 -3.328125 C 1.054688 -3.648438 1.34375 -3.894531 1.71875 -4.0625 Z M 4.25 -5.421875 C 4.25 -5.703125 4.164062 -5.921875 4 -6.078125 C 3.84375 -6.234375 3.628906 -6.3125 3.359375 -6.3125 C 3.085938 -6.3125 2.867188 -6.234375 2.703125 -6.078125 C 2.546875 -5.921875 2.46875 -5.703125 2.46875 -5.421875 C 2.46875 -5.148438 2.550781 -4.9375 2.71875 -4.78125 C 2.882812 -4.625 3.097656 -4.546875 3.359375 -4.546875 C 3.617188 -4.546875 3.832031 -4.625 4 -4.78125 C 4.164062 -4.9375 4.25 -5.148438 4.25 -5.421875 Z M 3.359375 -3.296875 C 3.035156 -3.296875 2.769531 -3.207031 2.5625 -3.03125 C 2.363281 -2.851562 2.265625 -2.609375 2.265625 -2.296875 C 2.265625 -2.015625 2.363281 -1.78125 2.5625 -1.59375 C 2.757812 -1.40625 3.023438 -1.3125 3.359375 -1.3125 C 3.691406 -1.3125 3.953125 -1.40625 4.140625 -1.59375 C 4.335938 -1.78125 4.4375 -2.015625 4.4375 -2.296875 C 4.4375 -2.609375 4.335938 -2.851562 4.140625 -3.03125 C 3.941406 -3.207031 3.679688 -3.296875 3.359375 -3.296875 Z M 3.359375 -3.296875 "/></g></g></g><g fill="#000000" fill-opacity="1"><g transform="translate(291.004995, 151.481912)"><g><path d="M 5.109375 -4.375 L 5.109375 -2.90625 L 0.546875 -2.90625 L 0.546875 -4.375 Z M 5.109375 -4.375 "/></g></g></g><g fill="#000000" fill-opacity="1"><g transform="translate(297.021257, 151.481912)"><g><path d="M 0.40625 -1.421875 C 0.632812 -1.609375 0.738281 -1.695312 0.71875 -1.6875 C 1.40625 -2.238281 1.941406 -2.691406 2.328125 -3.046875 C 2.722656 -3.410156 3.050781 -3.789062 3.3125 -4.1875 C 3.582031 -4.582031 3.71875 -4.96875 3.71875 -5.34375 C 3.71875 -5.625 3.648438 -5.84375 3.515625 -6 C 3.390625 -6.164062 3.195312 -6.25 2.9375 -6.25 C 2.675781 -6.25 2.46875 -6.148438 2.3125 -5.953125 C 2.164062 -5.753906 2.09375 -5.472656 2.09375 -5.109375 L 0.390625 -5.109375 C 0.398438 -5.703125 0.523438 -6.191406 0.765625 -6.578125 C 1.003906 -6.972656 1.316406 -7.265625 1.703125 -7.453125 C 2.097656 -7.640625 2.535156 -7.734375 3.015625 -7.734375 C 3.835938 -7.734375 4.457031 -7.519531 4.875 -7.09375 C 5.289062 -6.675781 5.5 -6.128906 5.5 -5.453125 C 5.5 -4.710938 5.242188 -4.023438 4.734375 -3.390625 C 4.234375 -2.765625 3.59375 -2.148438 2.8125 -1.546875 L 5.609375 -1.546875 L 5.609375 -0.109375 L 0.40625 -0.109375 Z M 0.40625 -1.421875 "/></g></g></g><g fill="#000000" fill-opacity="1"><g transform="translate(302.944156, 151.481912)"><g><path d="M 2.375 -2.21875 C 2.476562 -1.675781 2.796875 -1.40625 3.328125 -1.40625 C 3.691406 -1.40625 3.953125 -1.566406 4.109375 -1.890625 C 4.265625 -2.210938 4.34375 -2.738281 4.34375 -3.46875 C 4.1875 -3.257812 3.972656 -3.09375 3.703125 -2.96875 C 3.441406 -2.851562 3.148438 -2.796875 2.828125 -2.796875 C 2.390625 -2.796875 1.992188 -2.882812 1.640625 -3.0625 C 1.296875 -3.25 1.023438 -3.523438 0.828125 -3.890625 C 0.640625 -4.253906 0.546875 -4.695312 0.546875 -5.21875 C 0.546875 -5.726562 0.648438 -6.171875 0.859375 -6.546875 C 1.066406 -6.929688 1.363281 -7.226562 1.75 -7.4375 C 2.144531 -7.644531 2.609375 -7.75 3.140625 -7.75 C 4.160156 -7.75 4.875 -7.429688 5.28125 -6.796875 C 5.695312 -6.160156 5.90625 -5.222656 5.90625 -3.984375 C 5.90625 -3.085938 5.820312 -2.34375 5.65625 -1.75 C 5.5 -1.164062 5.226562 -0.722656 4.84375 -0.421875 C 4.457031 -0.117188 3.929688 0.03125 3.265625 0.03125 C 2.742188 0.03125 2.296875 -0.0703125 1.921875 -0.28125 C 1.554688 -0.488281 1.273438 -0.757812 1.078125 -1.09375 C 0.878906 -1.4375 0.765625 -1.8125 0.734375 -2.21875 Z M 3.234375 -4.203125 C 3.523438 -4.203125 3.753906 -4.289062 3.921875 -4.46875 C 4.097656 -4.644531 4.1875 -4.882812 4.1875 -5.1875 C 4.1875 -5.519531 4.097656 -5.773438 3.921875 -5.953125 C 3.742188 -6.128906 3.503906 -6.21875 3.203125 -6.21875 C 2.890625 -6.21875 2.644531 -6.125 2.46875 -5.9375 C 2.289062 -5.757812 2.203125 -5.515625 2.203125 -5.203125 C 2.203125 -4.898438 2.289062 -4.65625 2.46875 -4.46875 C 2.644531 -4.289062 2.898438 -4.203125 3.234375 -4.203125 Z M 3.234375 -4.203125 "/></g></g></g><g fill="#000000" fill-opacity="1"><g transform="translate(309.323468, 151.481912)"><g><path d="M 2.546875 -1.640625 L 1.40625 1.34375 L 0.265625 1.34375 L 0.875 -1.640625 Z M 2.546875 -1.640625 "/></g></g></g><g fill="#000000" fill-opacity="1"><g transform="translate(312.300477, 151.481912)"><g/></g></g><g fill="#000000" fill-opacity="1"><g transform="translate(314.499525, 151.481912)"><g><path d="M 0.40625 -1.421875 C 0.632812 -1.609375 0.738281 -1.695312 0.71875 -1.6875 C 1.40625 -2.238281 1.941406 -2.691406 2.328125 -3.046875 C 2.722656 -3.410156 3.050781 -3.789062 3.3125 -4.1875 C 3.582031 -4.582031 3.71875 -4.96875 3.71875 -5.34375 C 3.71875 -5.625 3.648438 -5.84375 3.515625 -6 C 3.390625 -6.164062 3.195312 -6.25 2.9375 -6.25 C 2.675781 -6.25 2.46875 -6.148438 2.3125 -5.953125 C 2.164062 -5.753906 2.09375 -5.472656 2.09375 -5.109375 L 0.390625 -5.109375 C 0.398438 -5.703125 0.523438 -6.191406 0.765625 -6.578125 C 1.003906 -6.972656 1.316406 -7.265625 1.703125 -7.453125 C 2.097656 -7.640625 2.535156 -7.734375 3.015625 -7.734375 C 3.835938 -7.734375 4.457031 -7.519531 4.875 -7.09375 C 5.289062 -6.675781 5.5 -6.128906 5.5 -5.453125 C 5.5 -4.710938 5.242188 -4.023438 4.734375 -3.390625 C 4.234375 -2.765625 3.59375 -2.148438 2.8125 -1.546875 L 5.609375 -1.546875 L 5.609375 -0.109375 L 0.40625 -0.109375 Z M 0.40625 -1.421875 "/></g></g></g><g fill="#000000" fill-opacity="1"><g transform="translate(320.422425, 151.481912)"><g><path d="M 0.46875 -3.890625 C 0.46875 -5.078125 0.695312 -6.015625 1.15625 -6.703125 C 1.613281 -7.390625 2.351562 -7.734375 3.375 -7.734375 C 4.40625 -7.734375 5.148438 -7.390625 5.609375 -6.703125 C 6.066406 -6.015625 6.296875 -5.078125 6.296875 -3.890625 C 6.296875 -2.679688 6.066406 -1.734375 5.609375 -1.046875 C 5.148438 -0.367188 4.40625 -0.03125 3.375 -0.03125 C 2.351562 -0.03125 1.613281 -0.367188 1.15625 -1.046875 C 0.695312 -1.734375 0.46875 -2.679688 0.46875 -3.890625 Z M 4.546875 -3.890625 C 4.546875 -4.585938 4.46875 -5.125 4.3125 -5.5 C 4.164062 -5.875 3.851562 -6.0625 3.375 -6.0625 C 2.90625 -6.0625 2.59375 -5.875 2.4375 -5.5 C 2.28125 -5.125 2.203125 -4.585938 2.203125 -3.890625 C 2.203125 -3.421875 2.226562 -3.03125 2.28125 -2.71875 C 2.34375 -2.414062 2.457031 -2.164062 2.625 -1.96875 C 2.800781 -1.78125 3.050781 -1.6875 3.375 -1.6875 C 3.707031 -1.6875 3.957031 -1.78125 4.125 -1.96875 C 4.300781 -2.164062 4.414062 -2.414062 4.46875 -2.71875 C 4.519531 -3.03125 4.546875 -3.421875 4.546875 -3.890625 Z M 4.546875 -3.890625 "/></g></g></g><g fill="#000000" fill-opacity="1"><g transform="translate(327.185529, 151.481912)"><g><path d="M 0.40625 -1.421875 C 0.632812 -1.609375 0.738281 -1.695312 0.71875 -1.6875 C 1.40625 -2.238281 1.941406 -2.691406 2.328125 -3.046875 C 2.722656 -3.410156 3.050781 -3.789062 3.3125 -4.1875 C 3.582031 -4.582031 3.71875 -4.96875 3.71875 -5.34375 C 3.71875 -5.625 3.648438 -5.84375 3.515625 -6 C 3.390625 -6.164062 3.195312 -6.25 2.9375 -6.25 C 2.675781 -6.25 2.46875 -6.148438 2.3125 -5.953125 C 2.164062 -5.753906 2.09375 -5.472656 2.09375 -5.109375 L 0.390625 -5.109375 C 0.398438 -5.703125 0.523438 -6.191406 0.765625 -6.578125 C 1.003906 -6.972656 1.316406 -7.265625 1.703125 -7.453125 C 2.097656 -7.640625 2.535156 -7.734375 3.015625 -7.734375 C 3.835938 -7.734375 4.457031 -7.519531 4.875 -7.09375 C 5.289062 -6.675781 5.5 -6.128906 5.5 -5.453125 C 5.5 -4.710938 5.242188 -4.023438 4.734375 -3.390625 C 4.234375 -2.765625 3.59375 -2.148438 2.8125 -1.546875 L 5.609375 -1.546875 L 5.609375 -0.109375 L 0.40625 -0.109375 Z M 0.40625 -1.421875 "/></g></g></g><g fill="#000000" fill-opacity="1"><g transform="translate(333.108428, 151.481912)"><g><path d="M 0.515625 -1.34375 L 0.515625 -2.78125 L 3.78125 -7.46875 L 5.765625 -7.46875 L 5.765625 -2.890625 L 6.625 -2.890625 L 6.625 -1.34375 L 5.765625 -1.34375 L 5.765625 0 L 4 0 L 4 -1.34375 Z M 4.125 -5.515625 L 2.375 -2.890625 L 4.125 -2.890625 Z M 4.125 -5.515625 "/></g></g></g><g fill="#000000" fill-opacity="1"><g transform="translate(375.821811, 151.714459)"><g><path d="M 2.421875 -1.375 L 4.734375 -1.375 L 4.734375 0 L 0.640625 0 L 0.640625 -7.28125 L 2.421875 -7.28125 Z M 2.421875 -1.375 "/></g></g></g><g fill="#000000" fill-opacity="1"><g transform="translate(380.769666, 151.714459)"><g><path d="M 5.171875 -1.28125 L 2.453125 -1.28125 L 2.015625 0 L 0.171875 0 L 2.796875 -7.28125 L 4.859375 -7.28125 L 7.484375 0 L 5.609375 0 Z M 4.71875 -2.65625 L 3.8125 -5.328125 L 2.921875 -2.65625 Z M 4.71875 -2.65625 "/></g></g></g><g fill="#000000" fill-opacity="1"><g transform="translate(388.414464, 151.714459)"><g><path d="M 2.390625 -7.28125 L 2.390625 -2.921875 C 2.390625 -2.484375 2.492188 -2.144531 2.703125 -1.90625 C 2.921875 -1.675781 3.238281 -1.5625 3.65625 -1.5625 C 4.070312 -1.5625 4.390625 -1.675781 4.609375 -1.90625 C 4.828125 -2.144531 4.9375 -2.484375 4.9375 -2.921875 L 4.9375 -7.28125 L 6.71875 -7.28125 L 6.71875 -2.9375 C 6.71875 -2.28125 6.578125 -1.726562 6.296875 -1.28125 C 6.015625 -0.832031 5.640625 -0.492188 5.171875 -0.265625 C 4.710938 -0.0351562 4.195312 0.078125 3.625 0.078125 C 3.050781 0.078125 2.535156 -0.0351562 2.078125 -0.265625 C 1.628906 -0.492188 1.269531 -0.832031 1 -1.28125 C 0.738281 -1.726562 0.609375 -2.28125 0.609375 -2.9375 L 0.609375 -7.28125 Z M 2.390625 -7.28125 "/></g></g></g><g fill="#000000" fill-opacity="1"><g transform="translate(395.72733, 151.714459)"><g><path d="M 3.28125 0.078125 C 2.75 0.078125 2.269531 -0.0078125 1.84375 -0.1875 C 1.425781 -0.363281 1.085938 -0.617188 0.828125 -0.953125 C 0.578125 -1.296875 0.445312 -1.703125 0.4375 -2.171875 L 2.328125 -2.171875 C 2.347656 -1.910156 2.4375 -1.707031 2.59375 -1.5625 C 2.757812 -1.414062 2.972656 -1.34375 3.234375 -1.34375 C 3.492188 -1.34375 3.695312 -1.40625 3.84375 -1.53125 C 4 -1.65625 4.078125 -1.820312 4.078125 -2.03125 C 4.078125 -2.207031 4.015625 -2.351562 3.890625 -2.46875 C 3.773438 -2.59375 3.628906 -2.691406 3.453125 -2.765625 C 3.273438 -2.847656 3.023438 -2.9375 2.703125 -3.03125 C 2.222656 -3.175781 1.832031 -3.320312 1.53125 -3.46875 C 1.238281 -3.613281 0.984375 -3.828125 0.765625 -4.109375 C 0.554688 -4.390625 0.453125 -4.757812 0.453125 -5.21875 C 0.453125 -5.894531 0.695312 -6.425781 1.1875 -6.8125 C 1.6875 -7.195312 2.328125 -7.390625 3.109375 -7.390625 C 3.910156 -7.390625 4.554688 -7.195312 5.046875 -6.8125 C 5.546875 -6.425781 5.8125 -5.890625 5.84375 -5.203125 L 3.921875 -5.203125 C 3.910156 -5.441406 3.820312 -5.628906 3.65625 -5.765625 C 3.5 -5.898438 3.296875 -5.96875 3.046875 -5.96875 C 2.835938 -5.96875 2.664062 -5.910156 2.53125 -5.796875 C 2.394531 -5.679688 2.328125 -5.515625 2.328125 -5.296875 C 2.328125 -5.066406 2.4375 -4.882812 2.65625 -4.75 C 2.882812 -4.613281 3.234375 -4.472656 3.703125 -4.328125 C 4.171875 -4.171875 4.550781 -4.019531 4.84375 -3.875 C 5.144531 -3.726562 5.398438 -3.515625 5.609375 -3.234375 C 5.828125 -2.960938 5.9375 -2.609375 5.9375 -2.171875 C 5.9375 -1.753906 5.828125 -1.375 5.609375 -1.03125 C 5.398438 -0.695312 5.09375 -0.425781 4.6875 -0.21875 C 4.289062 -0.0195312 3.820312 0.078125 3.28125 0.078125 Z M 3.28125 0.078125 "/></g></g></g><g fill="#000000" fill-opacity="1"><g transform="translate(402.106641, 151.714459)"><g/></g></g><g fill="#000000" fill-opacity="1"><g transform="translate(404.30569, 151.714459)"><g><path d="M 2.421875 -5.859375 L 2.421875 -4.390625 L 4.796875 -4.390625 L 4.796875 -3.015625 L 2.421875 -3.015625 L 2.421875 -1.421875 L 5.109375 -1.421875 L 5.109375 0 L 0.640625 0 L 0.640625 -7.28125 L 5.109375 -7.28125 L 5.109375 -5.859375 Z M 2.421875 -5.859375 "/></g></g></g><g fill="#000000" fill-opacity="1"><g transform="translate(409.917409, 151.714459)"><g><path d="M 7.484375 -7.28125 L 4.890625 0 L 2.671875 0 L 0.09375 -7.28125 L 1.984375 -7.28125 L 3.78125 -1.78125 L 5.609375 -7.28125 Z M 7.484375 -7.28125 "/></g></g></g><g fill="#000000" fill-opacity="1"><g transform="translate(417.489599, 151.714459)"><g><path d="M 2.421875 -5.859375 L 2.421875 -4.390625 L 4.796875 -4.390625 L 4.796875 -3.015625 L 2.421875 -3.015625 L 2.421875 -1.421875 L 5.109375 -1.421875 L 5.109375 0 L 0.640625 0 L 0.640625 -7.28125 L 5.109375 -7.28125 L 5.109375 -5.859375 Z M 2.421875 -5.859375 "/></g></g></g><g fill="#000000" fill-opacity="1"><g transform="translate(423.101318, 151.714459)"><g><path d="M 7.15625 0 L 5.390625 0 L 2.421875 -4.5 L 2.421875 0 L 0.640625 0 L 0.640625 -7.28125 L 2.421875 -7.28125 L 5.390625 -2.765625 L 5.390625 -7.28125 L 7.15625 -7.28125 Z M 7.15625 0 "/></g></g></g><g fill="#000000" fill-opacity="1"><g transform="translate(430.90171, 151.714459)"><g><path d="M 5.875 -7.28125 L 5.875 -5.859375 L 3.953125 -5.859375 L 3.953125 0 L 2.171875 0 L 2.171875 -5.859375 L 0.25 -5.859375 L 0.25 -7.28125 Z M 5.875 -7.28125 "/></g></g></g><g fill="#000000" fill-opacity="1"><g transform="translate(437.032073, 151.714459)"><g/></g></g><g fill="#000000" fill-opacity="1"><g transform="translate(439.231121, 151.714459)"><g><path d="M 0.34375 -3.65625 C 0.34375 -4.375 0.5 -5.015625 0.8125 -5.578125 C 1.125 -6.140625 1.554688 -6.578125 2.109375 -6.890625 C 2.671875 -7.203125 3.300781 -7.359375 4 -7.359375 C 4.863281 -7.359375 5.601562 -7.128906 6.21875 -6.671875 C 6.832031 -6.222656 7.242188 -5.601562 7.453125 -4.8125 L 5.515625 -4.8125 C 5.367188 -5.113281 5.160156 -5.34375 4.890625 -5.5 C 4.628906 -5.664062 4.328125 -5.75 3.984375 -5.75 C 3.441406 -5.75 3 -5.554688 2.65625 -5.171875 C 2.3125 -4.796875 2.140625 -4.289062 2.140625 -3.65625 C 2.140625 -3.019531 2.3125 -2.507812 2.65625 -2.125 C 3 -1.75 3.441406 -1.5625 3.984375 -1.5625 C 4.328125 -1.5625 4.628906 -1.640625 4.890625 -1.796875 C 5.160156 -1.953125 5.367188 -2.179688 5.515625 -2.484375 L 7.453125 -2.484375 C 7.242188 -1.703125 6.832031 -1.082031 6.21875 -0.625 C 5.601562 -0.175781 4.863281 0.046875 4 0.046875 C 3.300781 0.046875 2.671875 -0.109375 2.109375 -0.421875 C 1.554688 -0.734375 1.125 -1.171875 0.8125 -1.734375 C 0.5 -2.296875 0.34375 -2.9375 0.34375 -3.65625 Z M 0.34375 -3.65625 "/></g></g></g><g fill="#000000" fill-opacity="1"><g transform="translate(447.135247, 151.714459)"><g><path d="M 2.421875 -5.859375 L 2.421875 -4.390625 L 4.796875 -4.390625 L 4.796875 -3.015625 L 2.421875 -3.015625 L 2.421875 -1.421875 L 5.109375 -1.421875 L 5.109375 0 L 0.640625 0 L 0.640625 -7.28125 L 5.109375 -7.28125 L 5.109375 -5.859375 Z M 2.421875 -5.859375 "/></g></g></g><g fill="#000000" fill-opacity="1"><g transform="translate(452.746966, 151.714459)"><g><path d="M 7.15625 0 L 5.390625 0 L 2.421875 -4.5 L 2.421875 0 L 0.640625 0 L 0.640625 -7.28125 L 2.421875 -7.28125 L 5.390625 -2.765625 L 5.390625 -7.28125 L 7.15625 -7.28125 Z M 7.15625 0 "/></g></g></g><g fill="#000000" fill-opacity="1"><g transform="translate(460.547358, 151.714459)"><g><path d="M 5.875 -7.28125 L 5.875 -5.859375 L 3.953125 -5.859375 L 3.953125 0 L 2.171875 0 L 2.171875 -5.859375 L 0.25 -5.859375 L 0.25 -7.28125 Z M 5.875 -7.28125 "/></g></g></g><g fill="#000000" fill-opacity="1"><g transform="translate(466.677725, 151.714459)"><g><path d="M 2.421875 -5.859375 L 2.421875 -4.390625 L 4.796875 -4.390625 L 4.796875 -3.015625 L 2.421875 -3.015625 L 2.421875 -1.421875 L 5.109375 -1.421875 L 5.109375 0 L 0.640625 0 L 0.640625 -7.28125 L 5.109375 -7.28125 L 5.109375 -5.859375 Z M 2.421875 -5.859375 "/></g></g></g><g fill="#000000" fill-opacity="1"><g transform="translate(472.289444, 151.714459)"><g><path d="M 4.359375 0 L 2.84375 -2.75 L 2.421875 -2.75 L 2.421875 0 L 0.640625 0 L 0.640625 -7.28125 L 3.625 -7.28125 C 4.195312 -7.28125 4.6875 -7.179688 5.09375 -6.984375 C 5.5 -6.785156 5.800781 -6.507812 6 -6.15625 C 6.195312 -5.8125 6.296875 -5.421875 6.296875 -4.984375 C 6.296875 -4.503906 6.160156 -4.070312 5.890625 -3.6875 C 5.617188 -3.3125 5.210938 -3.046875 4.671875 -2.890625 L 6.359375 0 Z M 2.421875 -4 L 3.515625 -4 C 3.835938 -4 4.082031 -4.078125 4.25 -4.234375 C 4.414062 -4.398438 4.5 -4.628906 4.5 -4.921875 C 4.5 -5.191406 4.414062 -5.40625 4.25 -5.5625 C 4.082031 -5.726562 3.835938 -5.8125 3.515625 -5.8125 L 2.421875 -5.8125 Z M 2.421875 -4 "/></g></g></g><g fill="#000000" fill-opacity="1"><g transform="translate(516.002385, 151.481912)"><g><path d="M 0.28125 -5.921875 L 0.28125 -7.578125 L 3.15625 -7.578125 L 3.15625 0 L 1.3125 0 L 1.3125 -5.921875 Z M 0.28125 -5.921875 "/></g></g></g><g fill="#000000" fill-opacity="1"><g transform="translate(519.902581, 151.481912)"><g><path d="M 2.546875 -1.640625 L 1.40625 1.34375 L 0.265625 1.34375 L 0.875 -1.640625 Z M 2.546875 -1.640625 "/></g></g></g><g fill="#000000" fill-opacity="1"><g transform="translate(522.879594, 151.481912)"><g><path d="M 5.796875 -6.03125 L 2.5625 -6.03125 L 2.5625 -4.59375 C 2.695312 -4.75 2.890625 -4.875 3.140625 -4.96875 C 3.390625 -5.0625 3.660156 -5.109375 3.953125 -5.109375 C 4.472656 -5.109375 4.90625 -4.988281 5.25 -4.75 C 5.59375 -4.519531 5.84375 -4.21875 6 -3.84375 C 6.15625 -3.46875 6.234375 -3.066406 6.234375 -2.640625 C 6.234375 -1.828125 6.003906 -1.179688 5.546875 -0.703125 C 5.085938 -0.234375 4.445312 0 3.625 0 C 3.070312 0 2.585938 -0.09375 2.171875 -0.28125 C 1.765625 -0.476562 1.453125 -0.742188 1.234375 -1.078125 C 1.015625 -1.421875 0.894531 -1.8125 0.875 -2.25 L 2.609375 -2.25 C 2.648438 -2.039062 2.75 -1.863281 2.90625 -1.71875 C 3.0625 -1.570312 3.28125 -1.5 3.5625 -1.5 C 3.882812 -1.5 4.125 -1.601562 4.28125 -1.8125 C 4.445312 -2.019531 4.53125 -2.296875 4.53125 -2.640625 C 4.53125 -2.984375 4.445312 -3.242188 4.28125 -3.421875 C 4.113281 -3.597656 3.867188 -3.6875 3.546875 -3.6875 C 3.316406 -3.6875 3.125 -3.628906 2.96875 -3.515625 C 2.8125 -3.398438 2.710938 -3.253906 2.671875 -3.078125 L 0.953125 -3.078125 L 0.953125 -7.578125 L 5.796875 -7.578125 Z M 5.796875 -6.03125 "/></g></g></g><g fill="#000000" fill-opacity="1"><g transform="translate(529.621955, 151.481912)"><g><path d="M 0.46875 -3.890625 C 0.46875 -5.078125 0.695312 -6.015625 1.15625 -6.703125 C 1.613281 -7.390625 2.351562 -7.734375 3.375 -7.734375 C 4.40625 -7.734375 5.148438 -7.390625 5.609375 -6.703125 C 6.066406 -6.015625 6.296875 -5.078125 6.296875 -3.890625 C 6.296875 -2.679688 6.066406 -1.734375 5.609375 -1.046875 C 5.148438 -0.367188 4.40625 -0.03125 3.375 -0.03125 C 2.351562 -0.03125 1.613281 -0.367188 1.15625 -1.046875 C 0.695312 -1.734375 0.46875 -2.679688 0.46875 -3.890625 Z M 4.546875 -3.890625 C 4.546875 -4.585938 4.46875 -5.125 4.3125 -5.5 C 4.164062 -5.875 3.851562 -6.0625 3.375 -6.0625 C 2.90625 -6.0625 2.59375 -5.875 2.4375 -5.5 C 2.28125 -5.125 2.203125 -4.585938 2.203125 -3.890625 C 2.203125 -3.421875 2.226562 -3.03125 2.28125 -2.71875 C 2.34375 -2.414062 2.457031 -2.164062 2.625 -1.96875 C 2.800781 -1.78125 3.050781 -1.6875 3.375 -1.6875 C 3.707031 -1.6875 3.957031 -1.78125 4.125 -1.96875 C 4.300781 -2.164062 4.414062 -2.414062 4.46875 -2.71875 C 4.519531 -3.03125 4.546875 -3.421875 4.546875 -3.890625 Z M 4.546875 -3.890625 "/></g></g></g><g fill="#000000" fill-opacity="1"><g transform="translate(536.385063, 151.481912)"><g><path d="M 0.46875 -3.890625 C 0.46875 -5.078125 0.695312 -6.015625 1.15625 -6.703125 C 1.613281 -7.390625 2.351562 -7.734375 3.375 -7.734375 C 4.40625 -7.734375 5.148438 -7.390625 5.609375 -6.703125 C 6.066406 -6.015625 6.296875 -5.078125 6.296875 -3.890625 C 6.296875 -2.679688 6.066406 -1.734375 5.609375 -1.046875 C 5.148438 -0.367188 4.40625 -0.03125 3.375 -0.03125 C 2.351562 -0.03125 1.613281 -0.367188 1.15625 -1.046875 C 0.695312 -1.734375 0.46875 -2.679688 0.46875 -3.890625 Z M 4.546875 -3.890625 C 4.546875 -4.585938 4.46875 -5.125 4.3125 -5.5 C 4.164062 -5.875 3.851562 -6.0625 3.375 -6.0625 C 2.90625 -6.0625 2.59375 -5.875 2.4375 -5.5 C 2.28125 -5.125 2.203125 -4.585938 2.203125 -3.890625 C 2.203125 -3.421875 2.226562 -3.03125 2.28125 -2.71875 C 2.34375 -2.414062 2.457031 -2.164062 2.625 -1.96875 C 2.800781 -1.78125 3.050781 -1.6875 3.375 -1.6875 C 3.707031 -1.6875 3.957031 -1.78125 4.125 -1.96875 C 4.300781 -2.164062 4.414062 -2.414062 4.46875 -2.71875 C 4.519531 -3.03125 4.546875 -3.421875 4.546875 -3.890625 Z M 4.546875 -3.890625 "/></g></g></g><g fill="#000000" fill-opacity="1"><g transform="translate(543.148171, 151.481912)"><g><path d="M 5.90625 -2.828125 L 4.09375 -2.828125 L 4.09375 -0.984375 L 2.421875 -0.984375 L 2.421875 -2.828125 L 0.609375 -2.828125 L 0.609375 -4.421875 L 2.421875 -4.421875 L 2.421875 -6.28125 L 4.09375 -6.28125 L 4.09375 -4.421875 L 5.90625 -4.421875 Z M 5.90625 -2.828125 "/></g></g></g><g fill="#000000" fill-opacity="1"><g transform="translate(549.66233, 151.481912)"><g/></g></g><g fill="#000000" fill-opacity="1"><g transform="translate(551.861379, 151.481912)"><g><path d="M 6.1875 -4.9375 C 6.1875 -4.519531 6.085938 -4.132812 5.890625 -3.78125 C 5.703125 -3.425781 5.40625 -3.140625 5 -2.921875 C 4.601562 -2.710938 4.109375 -2.609375 3.515625 -2.609375 L 2.421875 -2.609375 L 2.421875 0 L 0.640625 0 L 0.640625 -7.28125 L 3.515625 -7.28125 C 4.097656 -7.28125 4.585938 -7.179688 4.984375 -6.984375 C 5.390625 -6.785156 5.691406 -6.507812 5.890625 -6.15625 C 6.085938 -5.800781 6.1875 -5.394531 6.1875 -4.9375 Z M 3.375 -4.03125 C 3.71875 -4.03125 3.972656 -4.109375 4.140625 -4.265625 C 4.304688 -4.421875 4.390625 -4.644531 4.390625 -4.9375 C 4.390625 -5.226562 4.304688 -5.453125 4.140625 -5.609375 C 3.972656 -5.765625 3.71875 -5.84375 3.375 -5.84375 L 2.421875 -5.84375 L 2.421875 -4.03125 Z M 3.375 -4.03125 "/></g></g></g><g fill="#000000" fill-opacity="1"><g transform="translate(558.334044, 151.481912)"><g><path d="M 5.171875 -1.28125 L 2.453125 -1.28125 L 2.015625 0 L 0.171875 0 L 2.796875 -7.28125 L 4.859375 -7.28125 L 7.484375 0 L 5.609375 0 Z M 4.71875 -2.65625 L 3.8125 -5.328125 L 2.921875 -2.65625 Z M 4.71875 -2.65625 "/></g></g></g><g fill="#000000" fill-opacity="1"><g transform="translate(565.978842, 151.481912)"><g><path d="M 4.359375 0 L 2.84375 -2.75 L 2.421875 -2.75 L 2.421875 0 L 0.640625 0 L 0.640625 -7.28125 L 3.625 -7.28125 C 4.195312 -7.28125 4.6875 -7.179688 5.09375 -6.984375 C 5.5 -6.785156 5.800781 -6.507812 6 -6.15625 C 6.195312 -5.8125 6.296875 -5.421875 6.296875 -4.984375 C 6.296875 -4.503906 6.160156 -4.070312 5.890625 -3.6875 C 5.617188 -3.3125 5.210938 -3.046875 4.671875 -2.890625 L 6.359375 0 Z M 2.421875 -4 L 3.515625 -4 C 3.835938 -4 4.082031 -4.078125 4.25 -4.234375 C 4.414062 -4.398438 4.5 -4.628906 4.5 -4.921875 C 4.5 -5.191406 4.414062 -5.40625 4.25 -5.5625 C 4.082031 -5.726562 3.835938 -5.8125 3.515625 -5.8125 L 2.421875 -5.8125 Z M 2.421875 -4 "/></g></g></g><g fill="#000000" fill-opacity="1"><g transform="translate(572.74195, 151.481912)"><g><path d="M 5.875 -7.28125 L 5.875 -5.859375 L 3.953125 -5.859375 L 3.953125 0 L 2.171875 0 L 2.171875 -5.859375 L 0.25 -5.859375 L 0.25 -7.28125 Z M 5.875 -7.28125 "/></g></g></g><g fill="#000000" fill-opacity="1"><g transform="translate(578.872313, 151.481912)"><g><path d="M 2.421875 -7.28125 L 2.421875 0 L 0.640625 0 L 0.640625 -7.28125 Z M 2.421875 -7.28125 "/></g></g></g><g fill="#000000" fill-opacity="1"><g transform="translate(581.932308, 151.481912)"><g><path d="M 0.34375 -3.65625 C 0.34375 -4.375 0.5 -5.015625 0.8125 -5.578125 C 1.125 -6.140625 1.554688 -6.578125 2.109375 -6.890625 C 2.671875 -7.203125 3.300781 -7.359375 4 -7.359375 C 4.863281 -7.359375 5.601562 -7.128906 6.21875 -6.671875 C 6.832031 -6.222656 7.242188 -5.601562 7.453125 -4.8125 L 5.515625 -4.8125 C 5.367188 -5.113281 5.160156 -5.34375 4.890625 -5.5 C 4.628906 -5.664062 4.328125 -5.75 3.984375 -5.75 C 3.441406 -5.75 3 -5.554688 2.65625 -5.171875 C 2.3125 -4.796875 2.140625 -4.289062 2.140625 -3.65625 C 2.140625 -3.019531 2.3125 -2.507812 2.65625 -2.125 C 3 -1.75 3.441406 -1.5625 3.984375 -1.5625 C 4.328125 -1.5625 4.628906 -1.640625 4.890625 -1.796875 C 5.160156 -1.953125 5.367188 -2.179688 5.515625 -2.484375 L 7.453125 -2.484375 C 7.242188 -1.703125 6.832031 -1.082031 6.21875 -0.625 C 5.601562 -0.175781 4.863281 0.046875 4 0.046875 C 3.300781 0.046875 2.671875 -0.109375 2.109375 -0.421875 C 1.554688 -0.734375 1.125 -1.171875 0.8125 -1.734375 C 0.5 -2.296875 0.34375 -2.9375 0.34375 -3.65625 Z M 0.34375 -3.65625 "/></g></g></g><g fill="#000000" fill-opacity="1"><g transform="translate(589.836434, 151.481912)"><g><path d="M 2.421875 -7.28125 L 2.421875 0 L 0.640625 0 L 0.640625 -7.28125 Z M 2.421875 -7.28125 "/></g></g></g><g fill="#000000" fill-opacity="1"><g transform="translate(592.89643, 151.481912)"><g><path d="M 6.1875 -4.9375 C 6.1875 -4.519531 6.085938 -4.132812 5.890625 -3.78125 C 5.703125 -3.425781 5.40625 -3.140625 5 -2.921875 C 4.601562 -2.710938 4.109375 -2.609375 3.515625 -2.609375 L 2.421875 -2.609375 L 2.421875 0 L 0.640625 0 L 0.640625 -7.28125 L 3.515625 -7.28125 C 4.097656 -7.28125 4.585938 -7.179688 4.984375 -6.984375 C 5.390625 -6.785156 5.691406 -6.507812 5.890625 -6.15625 C 6.085938 -5.800781 6.1875 -5.394531 6.1875 -4.9375 Z M 3.375 -4.03125 C 3.71875 -4.03125 3.972656 -4.109375 4.140625 -4.265625 C 4.304688 -4.421875 4.390625 -4.644531 4.390625 -4.9375 C 4.390625 -5.226562 4.304688 -5.453125 4.140625 -5.609375 C 3.972656 -5.765625 3.71875 -5.84375 3.375 -5.84375 L 2.421875 -5.84375 L 2.421875 -4.03125 Z M 3.375 -4.03125 "/></g></g></g><g fill="#000000" fill-opacity="1"><g transform="translate(599.369096, 151.481912)"><g><path d="M 5.171875 -1.28125 L 2.453125 -1.28125 L 2.015625 0 L 0.171875 0 L 2.796875 -7.28125 L 4.859375 -7.28125 L 7.484375 0 L 5.609375 0 Z M 4.71875 -2.65625 L 3.8125 -5.328125 L 2.921875 -2.65625 Z M 4.71875 -2.65625 "/></g></g></g><g fill="#000000" fill-opacity="1"><g transform="translate(607.013889, 151.481912)"><g><path d="M 7.15625 0 L 5.390625 0 L 2.421875 -4.5 L 2.421875 0 L 0.640625 0 L 0.640625 -7.28125 L 2.421875 -7.28125 L 5.390625 -2.765625 L 5.390625 -7.28125 L 7.15625 -7.28125 Z M 7.15625 0 "/></g></g></g><g fill="#000000" fill-opacity="1"><g transform="translate(614.814281, 151.481912)"><g><path d="M 5.875 -7.28125 L 5.875 -5.859375 L 3.953125 -5.859375 L 3.953125 0 L 2.171875 0 L 2.171875 -5.859375 L 0.25 -5.859375 L 0.25 -7.28125 Z M 5.875 -7.28125 "/></g></g></g><g fill="#000000" fill-opacity="1"><g transform="translate(620.944648, 151.481912)"><g><path d="M 3.28125 0.078125 C 2.75 0.078125 2.269531 -0.0078125 1.84375 -0.1875 C 1.425781 -0.363281 1.085938 -0.617188 0.828125 -0.953125 C 0.578125 -1.296875 0.445312 -1.703125 0.4375 -2.171875 L 2.328125 -2.171875 C 2.347656 -1.910156 2.4375 -1.707031 2.59375 -1.5625 C 2.757812 -1.414062 2.972656 -1.34375 3.234375 -1.34375 C 3.492188 -1.34375 3.695312 -1.40625 3.84375 -1.53125 C 4 -1.65625 4.078125 -1.820312 4.078125 -2.03125 C 4.078125 -2.207031 4.015625 -2.351562 3.890625 -2.46875 C 3.773438 -2.59375 3.628906 -2.691406 3.453125 -2.765625 C 3.273438 -2.847656 3.023438 -2.9375 2.703125 -3.03125 C 2.222656 -3.175781 1.832031 -3.320312 1.53125 -3.46875 C 1.238281 -3.613281 0.984375 -3.828125 0.765625 -4.109375 C 0.554688 -4.390625 0.453125 -4.757812 0.453125 -5.21875 C 0.453125 -5.894531 0.695312 -6.425781 1.1875 -6.8125 C 1.6875 -7.195312 2.328125 -7.390625 3.109375 -7.390625 C 3.910156 -7.390625 4.554688 -7.195312 5.046875 -6.8125 C 5.546875 -6.425781 5.8125 -5.890625 5.84375 -5.203125 L 3.921875 -5.203125 C 3.910156 -5.441406 3.820312 -5.628906 3.65625 -5.765625 C 3.5 -5.898438 3.296875 -5.96875 3.046875 -5.96875 C 2.835938 -5.96875 2.664062 -5.910156 2.53125 -5.796875 C 2.394531 -5.679688 2.328125 -5.515625 2.328125 -5.296875 C 2.328125 -5.066406 2.4375 -4.882812 2.65625 -4.75 C 2.882812 -4.613281 3.234375 -4.472656 3.703125 -4.328125 C 4.171875 -4.171875 4.550781 -4.019531 4.84375 -3.875 C 5.144531 -3.726562 5.398438 -3.515625 5.609375 -3.234375 C 5.828125 -2.960938 5.9375 -2.609375 5.9375 -2.171875 C 5.9375 -1.753906 5.828125 -1.375 5.609375 -1.03125 C 5.398438 -0.695312 5.09375 -0.425781 4.6875 -0.21875 C 4.289062 -0.0195312 3.820312 0.078125 3.28125 0.078125 Z M 3.28125 0.078125 "/></g></g></g><g clip-path="url(#98704a521f)"><path fill="#eeba2b" d="M 308.320312 30.890625 L 304.507812 30.890625 L 304.507812 25.195312 C 304.507812 23.824219 303.390625 22.722656 302.03125 22.722656 C 300.664062 22.722656 299.558594 23.835938 299.558594 25.195312 L 299.558594 30.898438 L 265.554688 30.898438 L 265.554688 25.195312 C 265.554688 23.824219 264.441406 22.722656 263.082031 22.722656 C 261.710938 22.722656 260.605469 23.835938 260.605469 25.195312 L 260.605469 30.898438 L 258.203125 30.898438 C 250.382812 30.898438 244.046875 37.238281 244.046875 45.058594 L 244.046875 90.605469 C 244.046875 98.425781 250.382812 104.761719 258.203125 104.761719 L 308.320312 104.761719 C 316.140625 104.761719 322.480469 98.425781 322.480469 90.605469 L 322.480469 45.058594 C 322.488281 37.238281 316.140625 30.890625 308.320312 30.890625 Z M 299.546875 33.507812 L 299.546875 38.648438 C 299.546875 40.019531 300.664062 41.121094 302.023438 41.121094 C 303.390625 41.121094 304.496094 40.007812 304.496094 38.648438 L 304.496094 33.699219 C 306.082031 34.621094 307.15625 36.339844 307.15625 38.300781 C 307.15625 41.234375 304.773438 43.617188 301.839844 43.617188 C 298.902344 43.617188 296.523438 41.234375 296.523438 38.300781 C 296.542969 36.183594 297.769531 34.367188 299.546875 33.507812 Z M 260.597656 33.597656 L 260.597656 38.648438 C 260.597656 40.019531 261.710938 41.121094 263.070312 41.121094 C 264.441406 41.121094 265.546875 40.007812 265.546875 38.648438 L 265.546875 33.597656 C 267.230469 34.488281 268.378906 36.257812 268.378906 38.292969 C 268.378906 41.226562 265.996094 43.605469 263.0625 43.605469 C 260.125 43.605469 257.746094 41.226562 257.746094 38.292969 C 257.765625 36.257812 258.921875 34.488281 260.597656 33.597656 Z M 317.53125 90.59375 C 317.53125 95.675781 313.402344 99.796875 308.332031 99.796875 L 258.203125 99.796875 C 253.125 99.796875 249.003906 95.664062 249.003906 90.59375 L 249.003906 52.871094 L 317.53125 52.871094 Z M 317.53125 90.59375 " fill-opacity="1" fill-rule="nonzero"/></g><path fill="#eeba2b" d="M 265.628906 67.152344 L 258.765625 67.152344 C 258.214844 67.152344 257.765625 66.703125 257.765625 66.148438 L 257.765625 59.289062 C 257.765625 58.738281 258.214844 58.289062 258.765625 58.289062 L 265.628906 58.289062 C 266.179688 58.289062 266.628906 58.738281 266.628906 59.289062 L 266.628906 66.148438 C 266.617188 66.703125 266.179688 67.152344 265.628906 67.152344 Z M 265.628906 67.152344 " fill-opacity="1" fill-rule="nonzero"/><path fill="#eeba2b" d="M 265.628906 81.21875 L 258.765625 81.21875 C 258.214844 81.21875 257.765625 80.769531 257.765625 80.21875 L 257.765625 73.355469 C 257.765625 72.804688 258.214844 72.355469 258.765625 72.355469 L 265.628906 72.355469 C 266.179688 72.355469 266.628906 72.804688 266.628906 73.355469 L 266.628906 80.21875 C 266.617188 80.78125 266.179688 81.21875 265.628906 81.21875 Z M 265.628906 81.21875 " fill-opacity="1" fill-rule="nonzero"/><path fill="#eeba2b" d="M 265.628906 95.296875 L 258.765625 95.296875 C 258.214844 95.296875 257.765625 94.847656 257.765625 94.292969 L 257.765625 87.433594 C 257.765625 86.882812 258.214844 86.433594 258.765625 86.433594 L 265.628906 86.433594 C 266.179688 86.433594 266.628906 86.882812 266.628906 87.433594 L 266.628906 94.304688 C 266.617188 94.847656 266.179688 95.296875 265.628906 95.296875 Z M 265.628906 95.296875 " fill-opacity="1" fill-rule="nonzero"/><path fill="#eeba2b" d="M 279.695312 67.152344 L 272.835938 67.152344 C 272.28125 67.152344 271.832031 66.703125 271.832031 66.148438 L 271.832031 59.289062 C 271.832031 58.738281 272.28125 58.289062 272.835938 58.289062 L 279.695312 58.289062 C 280.246094 58.289062 280.695312 58.738281 280.695312 59.289062 L 280.695312 66.148438 C 280.695312 66.703125 280.246094 67.152344 279.695312 67.152344 Z M 279.695312 67.152344 " fill-opacity="1" fill-rule="nonzero"/><path fill="#eeba2b" d="M 279.695312 81.21875 L 272.835938 81.21875 C 272.28125 81.21875 271.832031 80.769531 271.832031 80.21875 L 271.832031 73.355469 C 271.832031 72.804688 272.28125 72.355469 272.835938 72.355469 L 279.695312 72.355469 C 280.246094 72.355469 280.695312 72.804688 280.695312 73.355469 L 280.695312 80.21875 C 280.695312 80.78125 280.246094 81.21875 279.695312 81.21875 Z M 279.695312 81.21875 " fill-opacity="1" fill-rule="nonzero"/><path fill="#eeba2b" d="M 279.695312 95.296875 L 272.835938 95.296875 C 272.28125 95.296875 271.832031 94.847656 271.832031 94.292969 L 271.832031 87.433594 C 271.832031 86.882812 272.28125 86.433594 272.835938 86.433594 L 279.695312 86.433594 C 280.246094 86.433594 280.695312 86.882812 280.695312 87.433594 L 280.695312 94.304688 C 280.695312 94.847656 280.246094 95.296875 279.695312 95.296875 Z M 279.695312 95.296875 " fill-opacity="1" fill-rule="nonzero"/><path fill="#eeba2b" d="M 293.773438 67.152344 L 286.914062 67.152344 C 286.359375 67.152344 285.910156 66.703125 285.910156 66.148438 L 285.910156 59.289062 C 285.910156 58.738281 286.359375 58.289062 286.914062 58.289062 L 293.773438 58.289062 C 294.324219 58.289062 294.773438 58.738281 294.773438 59.289062 L 294.773438 66.148438 C 294.765625 66.703125 294.324219 67.152344 293.773438 67.152344 Z M 293.773438 67.152344 " fill-opacity="1" fill-rule="nonzero"/><path fill="#eeba2b" d="M 293.773438 81.21875 L 286.914062 81.21875 C 286.359375 81.21875 285.910156 80.769531 285.910156 80.21875 L 285.910156 73.355469 C 285.910156 72.804688 286.359375 72.355469 286.914062 72.355469 L 293.773438 72.355469 C 294.324219 72.355469 294.773438 72.804688 294.773438 73.355469 L 294.773438 80.21875 C 294.765625 80.78125 294.324219 81.21875 293.773438 81.21875 Z M 293.773438 81.21875 " fill-opacity="1" fill-rule="nonzero"/><path fill="#eeba2b" d="M 293.773438 95.296875 L 286.914062 95.296875 C 286.359375 95.296875 285.910156 94.847656 285.910156 94.292969 L 285.910156 87.433594 C 285.910156 86.882812 286.359375 86.433594 286.914062 86.433594 L 293.773438 86.433594 C 294.324219 86.433594 294.773438 86.882812 294.773438 87.433594 L 294.773438 94.304688 C 294.765625 94.847656 294.324219 95.296875 293.773438 95.296875 Z M 293.773438 95.296875 " fill-opacity="1" fill-rule="nonzero"/><path fill="#eeba2b" d="M 307.851562 67.152344 L 300.988281 67.152344 C 300.4375 67.152344 299.988281 66.703125 299.988281 66.148438 L 299.988281 59.289062 C 299.988281 58.738281 300.4375 58.289062 300.988281 58.289062 L 307.851562 58.289062 C 308.402344 58.289062 308.851562 58.738281 308.851562 59.289062 L 308.851562 66.148438 C 308.839844 66.703125 308.390625 67.152344 307.851562 67.152344 Z M 307.851562 67.152344 " fill-opacity="1" fill-rule="nonzero"/><path fill="#eeba2b" d="M 307.851562 81.21875 L 300.988281 81.21875 C 300.4375 81.21875 299.988281 80.769531 299.988281 80.21875 L 299.988281 73.355469 C 299.988281 72.804688 300.4375 72.355469 300.988281 72.355469 L 307.851562 72.355469 C 308.402344 72.355469 308.851562 72.804688 308.851562 73.355469 L 308.851562 80.21875 C 308.839844 80.78125 308.390625 81.21875 307.851562 81.21875 Z M 307.851562 81.21875 " fill-opacity="1" fill-rule="nonzero"/><path fill="#eeba2b" d="M 427.421875 36.613281 C 420.996094 36.613281 415.789062 41.824219 415.789062 48.246094 C 415.789062 54.671875 420.996094 59.878906 427.421875 59.878906 C 433.847656 59.878906 439.054688 54.671875 439.054688 48.246094 C 439.054688 41.824219 433.847656 36.613281 427.421875 36.613281 " fill-opacity="1" fill-rule="nonzero"/><g clip-path="url(#3db0d0bb53)"><path fill="#eeba2b" d="M 427.421875 93.417969 C 427.421875 93.417969 405.589844 63.710938 405.589844 51.652344 C 405.589844 39.597656 415.363281 29.820312 427.421875 29.820312 C 439.476562 29.820312 449.253906 39.597656 449.253906 51.652344 C 449.253906 63.710938 427.421875 93.417969 427.421875 93.417969 Z M 427.421875 15.300781 C 400.664062 15.300781 378.96875 36.992188 378.96875 63.75 C 378.96875 90.511719 400.664062 112.203125 427.421875 112.203125 C 454.179688 112.203125 475.871094 90.511719 475.871094 63.75 C 475.871094 36.992188 454.179688 15.300781 427.421875 15.300781 " fill-opacity="1" fill-rule="nonzero"/></g><g clip-path="url(#2c0ab8f71c)"><path fill="#eeba2b" d="M 571.554688 108.328125 C 546.972656 108.328125 526.96875 88.324219 526.96875 63.742188 C 526.96875 39.160156 546.972656 19.160156 571.554688 19.160156 C 596.136719 19.160156 616.136719 39.160156 616.136719 63.742188 C 616.136719 88.324219 596.136719 108.328125 571.554688 108.328125 Z M 571.554688 15.296875 C 544.839844 15.296875 523.109375 37.03125 523.109375 63.742188 C 523.109375 90.457031 544.839844 112.1875 571.554688 112.1875 C 598.265625 112.1875 620 90.457031 620 63.742188 C 620 37.03125 598.265625 15.296875 571.554688 15.296875 " fill-opacity="1" fill-rule="nonzero"/></g><path fill="#eeba2b" d="M 571.554688 62.375 C 577.199219 62.375 581.777344 57.472656 581.777344 51.429688 C 581.777344 45.382812 577.199219 40.480469 571.554688 40.480469 C 565.90625 40.480469 561.332031 45.382812 561.332031 51.429688 C 561.332031 57.472656 565.90625 62.375 571.554688 62.375 " fill-opacity="1" fill-rule="nonzero"/><path fill="#eeba2b" d="M 577.738281 66.679688 L 565.367188 66.679688 C 558.527344 66.679688 552.984375 72.226562 552.984375 79.066406 L 552.984375 83.152344 C 552.984375 86.574219 555.761719 89.351562 559.183594 89.351562 L 583.925781 89.351562 C 587.347656 89.351562 590.121094 86.574219 590.121094 83.152344 L 590.121094 79.066406 C 590.121094 72.226562 584.578125 66.679688 577.738281 66.679688 " fill-opacity="1" fill-rule="nonzero"/><path fill="#eeba2b" d="M 590.972656 62.984375 C 595.261719 62.984375 598.738281 59.261719 598.738281 54.671875 C 598.738281 50.078125 595.261719 46.355469 590.972656 46.355469 C 586.683594 46.355469 583.207031 50.078125 583.207031 54.671875 C 583.207031 59.261719 586.683594 62.984375 590.972656 62.984375 " fill-opacity="1" fill-rule="nonzero"/><path fill="#eeba2b" d="M 552.136719 62.984375 C 556.421875 62.984375 559.898438 59.261719 559.898438 54.671875 C 559.898438 50.078125 556.421875 46.355469 552.136719 46.355469 C 547.847656 46.355469 544.371094 50.078125 544.371094 54.671875 C 544.371094 59.261719 547.847656 62.984375 552.136719 62.984375 " fill-opacity="1" fill-rule="nonzero"/><path fill="#eeba2b" d="M 558.851562 66.480469 C 558.199219 66.335938 557.527344 66.257812 556.832031 66.257812 L 547.4375 66.257812 C 542.242188 66.257812 538.03125 70.46875 538.03125 75.664062 L 538.03125 78.769531 C 538.03125 81.367188 540.136719 83.476562 542.738281 83.476562 L 550.917969 83.476562 L 550.917969 79.21875 C 550.917969 73.625 554.152344 68.792969 558.851562 66.480469 " fill-opacity="1" fill-rule="nonzero"/><path fill="#eeba2b" d="M 595.671875 66.257812 L 586.273438 66.257812 C 585.582031 66.257812 584.90625 66.335938 584.257812 66.480469 C 588.957031 68.792969 592.191406 73.625 592.191406 79.21875 L 592.191406 83.476562 L 600.367188 83.476562 C 602.96875 83.476562 605.078125 81.367188 605.078125 78.769531 L 605.078125 75.664062 C 605.078125 70.46875 600.867188 66.257812 595.671875 66.257812 " fill-opacity="1" fill-rule="nonzero"/></svg>